<svg id="Layer_1" data-name="Layer 1" xmlns="http://www.w3.org/2000/svg" viewBox="0 0 630.39 231"><defs><style>.cls-1{fill:#fff;}.cls-12,.cls-2,.cls-5{fill:#3c3c41;}.cls-2{opacity:0.18;}.cls-10,.cls-19,.cls-2,.cls-3,.cls-5,.cls-6,.cls-8,.cls-9{isolation:isolate;}.cls-19,.cls-3,.cls-8{fill:#50e6ff;}.cls-3{opacity:0.06;}.cls-11,.cls-4,.cls-7{fill:none;}.cls-11,.cls-4{stroke:#3c3c41;}.cls-4{stroke-dasharray:1 2;}.cls-19,.cls-5{opacity:0.15;}.cls-6{fill:#0072c6;opacity:0.09;}.cls-7{stroke:#0072c6;stroke-width:0.5px;}.cls-8{opacity:0.7;}.cls-9{fill:#0078d4;opacity:0.5;}.cls-10{fill:#008575;opacity:0.4;}.cls-11{stroke-miterlimit:10;}.cls-13{fill:#804998;}.cls-14{fill:#40244c;}.cls-15{fill:#5c4168;}.cls-16{fill:#c0a4cc;}.cls-17{fill:#a092a6;}.cls-18{fill:#996dad;}</style></defs><title>OJ104601287</title><g id="Shapes"><rect class="cls-1" width="630.39" height="231"/><rect class="cls-1" x="149.62" width="480.77" height="231"/><rect class="cls-2" x="149.62" width="480.77" height="231"/><rect class="cls-1" width="140.16" height="231"/><rect class="cls-2" width="140.16" height="231"/><rect class="cls-1" x="155.87" y="26.5" width="360" height="200" rx="5"/><rect class="cls-3" x="155.87" y="26.5" width="360" height="200" rx="5"/><rect class="cls-4" x="155.87" y="26.5" width="360" height="200" rx="5"/><rect class="cls-1" x="524.89" y="26.5" width="100" height="200" rx="5"/><rect class="cls-3" x="524.89" y="26.5" width="100" height="200" rx="5"/><rect class="cls-4" x="524.89" y="26.5" width="100" height="200" rx="5"/><rect class="cls-1" x="356.98" y="61" width="144.73" height="155"/><rect class="cls-5" x="356.98" y="61" width="144.73" height="155"/><rect class="cls-1" x="171.64" y="181" width="125" height="35"/><rect class="cls-6" x="171.64" y="181" width="125" height="35"/><rect class="cls-7" x="171.64" y="181" width="125" height="35"/><rect class="cls-1" x="171.64" y="122" width="125" height="35"/><rect class="cls-6" x="171.64" y="122" width="125" height="35"/><rect class="cls-7" x="171.64" y="122" width="125" height="35"/><rect class="cls-1" x="7.58" y="44.35" width="125" height="25"/><rect class="cls-8" x="7.58" y="44.35" width="125" height="25"/><rect class="cls-1" x="7.58" y="89.5" width="125" height="25"/><rect class="cls-9" x="7.58" y="89.5" width="125" height="25"/><rect class="cls-1" x="7.58" y="134.5" width="125" height="25"/><rect class="cls-10" x="7.58" y="134.5" width="125" height="25"/><rect class="cls-1" x="366.84" y="90.85" width="125" height="25"/><rect class="cls-8" x="366.84" y="90.85" width="125" height="25"/><rect class="cls-1" x="366.84" y="136" width="125" height="25"/><rect class="cls-9" x="366.84" y="136" width="125" height="25"/><rect class="cls-1" x="366.84" y="181" width="125" height="25"/><rect class="cls-10" x="366.84" y="181" width="125" height="25"/><line class="cls-11" x1="234.14" y1="162.38" x2="234.14" y2="175.62"/><polygon class="cls-12" points="230.4 163.48 234.14 157 237.88 163.48 230.4 163.48"/><polygon class="cls-12" points="230.4 174.52 234.14 181 237.88 174.52 230.4 174.52"/><line class="cls-11" x1="234.14" y1="102.38" x2="234.14" y2="115.62"/><polygon class="cls-12" points="230.4 103.48 234.14 97 237.88 103.48 230.4 103.48"/><polygon class="cls-12" points="230.4 114.52 234.14 121 237.88 114.52 230.4 114.52"/><line class="cls-11" x1="351.6" y1="79.5" x2="302.02" y2="79.5"/><polygon class="cls-12" points="350.5 75.76 356.98 79.5 350.5 83.24 350.5 75.76"/><polygon class="cls-12" points="303.12 75.76 296.64 79.5 303.12 83.24 303.12 75.76"/><polyline class="cls-13" points="574.69 81.94 555.8 88.22 555.8 103.82 573.3 110.28 574.67 110.79 574.67 110.79 593.8 103.85 593.8 88.23 574.69 81.94"/><path class="cls-14" d="M557.81,89.73l-.45.16v13.22l.31.11h.14V89.73m.78-.9-1.23.42v.64l.46-.16h0l.78-.27v-.63"/><path class="cls-14" d="M560.39,88.85l-.6.21v14.87l.6.2V88.85m1.23-1-1.83.62v.64l.6-.2h0l1.23-.42V87.8"/><path d="M559.79,88.42l1.84-.62Z"/><path class="cls-14" d="M563.26,87.88l-.58.2v16.83l.58.2V87.88m1.8-.62-1.06.36,1.06-.34h0m0-.64-2.38.82v.63l.58-.2h0l.74-.24,1-.36v-.63"/><path class="cls-14" d="M566.93,86.63l-.6.2v19.32l.6.18V86.63m2-1.35-2.61.91v.64l.6-.2h0l2-.68v-.66"/><path class="cls-14" d="M570.67,85.36l-.61.2v21.83l.61.22V85.36m2.65-1.54-3.26,1.11v.63l.61-.2h0l2.65-.9v-.64"/><path class="cls-15" d="M592.39,88.59a.51.51,0,1,0,.51.51.51.51,0,0,0-.51-.51h0"/><path class="cls-16" d="M557.36,89.89h0m2.43-.83-2,.67h0l2-.67m2.89-1-2.29.77,2.29-.77m1.32-.45h0l-.74.25.74-.25m2.33-.8-1.28.44,1.28-.44m3.73-1.27-3.13,1.07,3.13-1.07m3.26-1.11h0l-2.65.91h0l2.65-.91"/><polyline class="cls-17" points="557.81 89.73 557.36 89.89 557.36 89.89 557.81 89.73 557.81 89.73"/><polyline class="cls-17" points="560.39 88.86 559.79 89.06 560.39 88.86"/><path class="cls-17" d="M563.26,87.88l-.58.2.58-.2m1.8-.62-1.06.36,1.06-.36"/><polyline class="cls-17" points="566.93 86.63 566.33 86.83 566.93 86.63"/><path class="cls-18" d="M574.69,82v28.82l19.1-6.94V88.26Zm17.7,6.62a.51.51,0,1,1-.51.51.51.51,0,0,1,.51-.51h0ZM576,83.34a.5.5,0,0,1,.5.5h0a.5.5,0,0,1-.5.5h0a.5.5,0,0,1-.51-.49h0a.51.51,0,0,1,.51-.51Z"/><polyline class="cls-13" points="574.69 121.94 555.8 128.22 555.8 143.82 573.3 150.28 574.67 150.79 574.67 150.79 593.8 143.85 593.8 128.23 574.69 121.94"/><path class="cls-14" d="M557.81,129.73l-.45.16v13.22l.31.11h.14V129.73m.78-.9-1.23.42v.64l.46-.16h0l.78-.27v-.63"/><path class="cls-14" d="M560.39,128.85l-.6.21v14.87l.6.2V128.85m1.23-1-1.83.62v.64l.6-.2h0l1.23-.42v-.64"/><path d="M559.79,128.42l1.84-.62Z"/><path class="cls-14" d="M563.26,127.88l-.58.2v16.83l.58.2V127.88m1.8-.62-1.06.36,1.06-.34h0m0-.64-2.38.82v.63l.58-.2h0l.74-.24,1-.36v-.63"/><path class="cls-14" d="M566.93,126.63l-.6.2v19.32l.6.18v-19.7m2-1.35-2.61.91v.64l.6-.2h0l2-.68v-.66"/><path class="cls-14" d="M570.67,125.36l-.61.2v21.83l.61.22V125.36m2.65-1.54-3.26,1.11v.63l.61-.2h0l2.65-.9v-.64"/><path class="cls-15" d="M592.39,128.59a.51.51,0,1,0,.51.51.51.51,0,0,0-.51-.51h0"/><path class="cls-16" d="M557.36,129.89h0m2.43-.83-2,.67h0l2-.67m2.89-1-2.29.77,2.29-.77m1.32-.45h0l-.74.25.74-.25m2.33-.8-1.28.44,1.28-.44m3.73-1.27-3.13,1.07,3.13-1.07m3.26-1.11h0l-2.65.91h0l2.65-.91"/><polyline class="cls-17" points="557.81 129.73 557.36 129.88 557.36 129.88 557.81 129.73 557.81 129.73"/><polyline class="cls-17" points="560.39 128.85 559.79 129.06 560.39 128.85"/><path class="cls-17" d="M563.26,127.88l-.58.2.58-.2m1.8-.62-1.06.36,1.06-.36"/><polyline class="cls-17" points="566.93 126.63 566.33 126.83 566.93 126.63"/><path class="cls-18" d="M574.69,122v28.82l19.1-6.94V128.26Zm17.7,6.62a.51.51,0,1,1-.51.51.51.51,0,0,1,.51-.51h0ZM576,123.34a.5.5,0,0,1,.5.5h0a.5.5,0,0,1-.5.5h0a.5.5,0,0,1-.51-.49h0a.51.51,0,0,1,.51-.51Z"/><polyline class="cls-13" points="574.69 161.94 555.8 168.22 555.8 183.82 573.3 190.28 574.67 190.79 574.67 190.79 593.8 183.85 593.8 168.23 574.69 161.94"/><path class="cls-14" d="M557.81,169.73l-.45.16v13.22l.31.11h.14V169.73m.78-.9-1.23.42v.64l.46-.16h0l.78-.27v-.63"/><path class="cls-14" d="M560.39,168.85l-.6.21v14.87l.6.2V168.85m1.23-1-1.83.62v.64l.6-.2h0l1.23-.42v-.64"/><path d="M559.79,168.42l1.84-.62Z"/><path class="cls-14" d="M563.26,167.88l-.58.2v16.83l.58.2V167.88m1.8-.62-1.06.36,1.06-.34h0m0-.64-2.38.82v.63l.58-.2h0l.74-.24,1-.36v-.63"/><path class="cls-14" d="M566.93,166.63l-.6.2v19.32l.6.18v-19.7m2-1.35-2.61.91v.64l.6-.2h0l2-.68v-.66"/><path class="cls-14" d="M570.67,165.36l-.61.2v21.83l.61.22V165.36m2.65-1.54-3.26,1.11v.63l.61-.2h0l2.65-.9v-.64"/><path class="cls-15" d="M592.39,168.59a.51.51,0,1,0,.51.51.51.51,0,0,0-.51-.51h0"/><path class="cls-16" d="M557.36,169.89h0m2.43-.83-2,.67h0l2-.67m2.89-1-2.29.77,2.29-.77m1.32-.45h0l-.74.25.74-.25m2.33-.8-1.28.44,1.28-.44m3.73-1.27-3.13,1.07,3.13-1.07m3.26-1.11h0l-2.65.91h0l2.65-.91"/><polyline class="cls-17" points="557.81 169.73 557.36 169.88 557.36 169.88 557.81 169.73 557.81 169.73"/><polyline class="cls-17" points="560.39 168.85 559.79 169.06 560.39 168.85"/><path class="cls-17" d="M563.26,167.88l-.58.2.58-.2m1.8-.62-1.06.36,1.06-.36"/><polyline class="cls-17" points="566.93 166.63 566.33 166.83 566.93 166.63"/><path class="cls-18" d="M574.69,162v28.82l19.1-6.94V168.26Zm17.7,6.62a.51.51,0,1,1-.51.51.51.51,0,0,1,.51-.51h0ZM576,163.34a.5.5,0,0,1,.5.5h0a.5.5,0,0,1-.5.5h0a.5.5,0,0,1-.51-.49h0a.51.51,0,0,1,.51-.51Z"/><rect class="cls-1" x="171.64" y="61" width="125" height="35"/><rect class="cls-19" x="171.64" y="61" width="125" height="35"/><rect class="cls-7" x="171.64" y="61" width="125" height="35"/><path class="cls-11" d="M280.39,55V47.83a5,5,0,0,1,5-5H531.28"/><polygon class="cls-12" points="284.13 53.89 280.39 60.36 276.65 53.89 284.13 53.89"/><polygon class="cls-12" points="530.18 46.57 536.66 42.83 530.18 39.09 530.18 46.57"/><line class="cls-11" x1="130.77" y1="79.5" x2="165.05" y2="79.5"/><polygon class="cls-12" points="131.87 83.24 125.39 79.5 131.87 75.76 131.87 83.24"/><polygon class="cls-12" points="163.95 83.24 170.43 79.5 163.95 75.76 163.95 83.24"/></g><path d="M421.18,197.46H420l-4.32-6.69a2.94,2.94,0,0,1-.27-.53h0a8.6,8.6,0,0,1,.05,1.15v6.07h-1v-8.4h1.28l4.21,6.59c.17.28.29.46.34.57h0a8.84,8.84,0,0,1-.06-1.24v-5.92h1Z"/><path d="M428.37,197q0,3.32-3.16,3.31a4.31,4.31,0,0,1-1.95-.42v-1a4.06,4.06,0,0,0,1.94.56c1.47,0,2.21-.79,2.21-2.36v-.65h0a2.44,2.44,0,0,1-3.87.34,3.19,3.19,0,0,1-.68-2.14,3.73,3.73,0,0,1,.74-2.43,2.44,2.44,0,0,1,2-.91,2,2,0,0,1,1.8,1h0v-.84h1Zm-1-2.23v-.88a1.73,1.73,0,0,0-.48-1.23,1.59,1.59,0,0,0-1.21-.51,1.68,1.68,0,0,0-1.39.65,2.86,2.86,0,0,0-.5,1.81,2.53,2.53,0,0,0,.48,1.61,1.56,1.56,0,0,0,1.28.6,1.7,1.7,0,0,0,1.32-.58A2.16,2.16,0,0,0,427.41,194.75Z"/><path d="M430.81,189.94a.6.6,0,0,1-.44-.18.57.57,0,0,1-.18-.44.61.61,0,0,1,.18-.45.6.6,0,0,1,.44-.18.62.62,0,0,1,.63.63.6.6,0,0,1-.18.44A.61.61,0,0,1,430.81,189.94Zm.47,7.52h-1v-6h1Z"/><path d="M438.21,197.46h-1V194c0-1.27-.46-1.91-1.39-1.91a1.5,1.5,0,0,0-1.19.54,2,2,0,0,0-.47,1.37v3.42h-1v-6h1v1h0a2.16,2.16,0,0,1,2-1.14,1.84,1.84,0,0,1,1.5.64,2.82,2.82,0,0,1,.53,1.84Z"/><path d="M444.4,191.46l-2,3,2,3h-1.12l-1.17-1.94a5.17,5.17,0,0,1-.27-.46h0l-.28.46-1.2,1.94h-1.1l2-2.94-2-3.06h1.12l1.16,2,.25.47h0l1.5-2.52Z"/><path d="M415.73,144.35l-2.38,8.41H412.2l-1.73-6.14a3.87,3.87,0,0,1-.13-.86h0a3.89,3.89,0,0,1-.15.84l-1.74,6.16h-1.14l-2.46-8.41h1.08l1.79,6.45a4.6,4.6,0,0,1,.14.84h0a5.16,5.16,0,0,1,.18-.84l1.86-6.45h.94l1.78,6.5a4.78,4.78,0,0,1,.14.78h0a4.18,4.18,0,0,1,.15-.81l1.72-6.47Z"/><path d="M417.34,145.23a.64.64,0,0,1-.44-.17.65.65,0,0,1,0-.9.6.6,0,0,1,.44-.18.64.64,0,0,1,.45.18.61.61,0,0,1,.18.45.6.6,0,0,1-.18.44A.64.64,0,0,1,417.34,145.23Zm.47,7.53h-1v-6h1Z"/><path d="M424.73,152.76h-1v-3.43c0-1.27-.46-1.91-1.39-1.91a1.48,1.48,0,0,0-1.19.55,2,2,0,0,0-.48,1.36v3.43h-1v-6h1v1h0a2.15,2.15,0,0,1,2-1.13,1.84,1.84,0,0,1,1.5.63,2.82,2.82,0,0,1,.52,1.84Z"/><path d="M431.67,152.76h-1v-1h0a2.42,2.42,0,0,1-3.87.35,3.32,3.32,0,0,1-.68-2.19,3.6,3.6,0,0,1,.75-2.39,2.47,2.47,0,0,1,2-.89,1.91,1.91,0,0,1,1.8,1h0v-3.72h1Zm-1-2.72v-.88a1.7,1.7,0,0,0-.48-1.23,1.59,1.59,0,0,0-1.22-.51,1.67,1.67,0,0,0-1.38.65,2.85,2.85,0,0,0-.5,1.78,2.56,2.56,0,0,0,.48,1.64,1.59,1.59,0,0,0,1.3.6,1.66,1.66,0,0,0,1.3-.58A2.15,2.15,0,0,0,430.7,150Z"/><path d="M436.12,152.9a2.79,2.79,0,0,1-2.13-.84,3.12,3.12,0,0,1-.79-2.23,3.27,3.27,0,0,1,.83-2.37,3,3,0,0,1,2.23-.84,2.68,2.68,0,0,1,2.09.82,3.25,3.25,0,0,1,.76,2.29,3.18,3.18,0,0,1-.82,2.3A2.82,2.82,0,0,1,436.12,152.9Zm.07-5.48a1.84,1.84,0,0,0-1.47.63,2.59,2.59,0,0,0-.54,1.74,2.46,2.46,0,0,0,.55,1.68,1.85,1.85,0,0,0,1.46.62,1.73,1.73,0,0,0,1.43-.61,2.57,2.57,0,0,0,.5-1.71,2.65,2.65,0,0,0-.5-1.74A1.76,1.76,0,0,0,436.19,147.42Z"/><path d="M448.2,146.76l-1.8,6h-1l-1.24-4.3a2.26,2.26,0,0,1-.09-.56h0a2.51,2.51,0,0,1-.12.55l-1.34,4.31h-1l-1.82-6h1l1.24,4.51a2.21,2.21,0,0,1,.08.54h.05a2.78,2.78,0,0,1,.1-.55l1.39-4.5h.88l1.24,4.52a3,3,0,0,1,.09.54h0a2.61,2.61,0,0,1,.1-.54l1.22-4.52Z"/><path d="M449,152.54v-1a2.88,2.88,0,0,0,1.73.58c.84,0,1.26-.28,1.26-.85a.72.72,0,0,0-.1-.4,1.22,1.22,0,0,0-.3-.3,2.44,2.44,0,0,0-.43-.23l-.54-.21-.7-.32a2,2,0,0,1-.5-.37,1.21,1.21,0,0,1-.31-.46,1.79,1.79,0,0,1-.1-.6,1.45,1.45,0,0,1,.2-.75,1.64,1.64,0,0,1,.51-.54,2.26,2.26,0,0,1,.74-.33,3,3,0,0,1,.85-.11,3.59,3.59,0,0,1,1.39.26v1a2.71,2.71,0,0,0-1.52-.44,1.53,1.53,0,0,0-.49.07,1.14,1.14,0,0,0-.37.17.85.85,0,0,0-.24.26.69.69,0,0,0-.08.35.8.8,0,0,0,.08.39.83.83,0,0,0,.25.28,1.67,1.67,0,0,0,.4.22l.53.22c.27.1.51.21.72.31a2.44,2.44,0,0,1,.54.37,1.36,1.36,0,0,1,.46,1.09,1.45,1.45,0,0,1-.2.77,1.7,1.7,0,0,1-.52.55,2.49,2.49,0,0,1-.76.32,3.68,3.68,0,0,1-.89.11A3.39,3.39,0,0,1,449,152.54Z"/><path d="M400.52,104.43q0,3.54-3.19,3.54c-2,0-3.06-1.14-3.06-3.4V99.43h1v5.07c0,1.72.73,2.58,2.18,2.58s2.11-.83,2.11-2.49V99.43h1Z"/><path d="M403.48,107h0v.87h-1V99h1v3.93h0a2.27,2.27,0,0,1,2.07-1.19,2.23,2.23,0,0,1,1.81.8,3.37,3.37,0,0,1,.65,2.16,3.69,3.69,0,0,1-.73,2.41,2.44,2.44,0,0,1-2,.91A2,2,0,0,1,403.48,107Zm0-2.42v.84a1.73,1.73,0,0,0,.49,1.26,1.71,1.71,0,0,0,2.59-.15,3,3,0,0,0,.5-1.85,2.39,2.39,0,0,0-.47-1.57,1.52,1.52,0,0,0-1.25-.57,1.7,1.7,0,0,0-1.35.58A2.15,2.15,0,0,0,403.45,104.54Z"/><path d="M414.4,107.83h-1v-1h0a2,2,0,0,1-1.85,1.09c-1.43,0-2.14-.85-2.14-2.55v-3.59h.95v3.43c0,1.27.49,1.9,1.46,1.9a1.45,1.45,0,0,0,1.15-.52,1.94,1.94,0,0,0,.46-1.35v-3.46h1Z"/><path d="M421.32,107.83h-1v-3.42c0-1.28-.47-1.91-1.4-1.91a1.5,1.5,0,0,0-1.19.54,2,2,0,0,0-.47,1.37v3.42h-1v-6h1v1h0a2.16,2.16,0,0,1,2-1.14,1.85,1.85,0,0,1,1.51.63,2.9,2.9,0,0,1,.52,1.84Z"/><path d="M425.91,107.77a1.8,1.8,0,0,1-.9.19c-1.05,0-1.57-.59-1.57-1.76v-3.55h-1v-.82h1v-1.47l1-.31v1.78h1.51v.82H424.4V106a1.45,1.45,0,0,0,.2.86.84.84,0,0,0,.68.26,1,1,0,0,0,.63-.2Z"/><path d="M432.05,107.83h-1v-1h0a2,2,0,0,1-1.85,1.09c-1.43,0-2.14-.85-2.14-2.55v-3.59H428v3.43c0,1.27.48,1.9,1.45,1.9a1.46,1.46,0,0,0,1.16-.52,2,2,0,0,0,.45-1.35v-3.46h1Z"/><path d="M441.76,107.83H437.4v-8.4h1v7.51h3.37Z"/><path d="M443.41,100.31a.6.6,0,0,1-.44-.18.61.61,0,0,1-.18-.45.59.59,0,0,1,.18-.44.6.6,0,0,1,.44-.18.61.61,0,0,1,.45.18.6.6,0,0,1,0,.88A.58.58,0,0,1,443.41,100.31Zm.47,7.52h-1v-6h1Z"/><path d="M450.81,107.83h-1v-3.42c0-1.28-.47-1.91-1.4-1.91a1.5,1.5,0,0,0-1.19.54,2,2,0,0,0-.47,1.37v3.42h-1v-6h1v1h0a2.16,2.16,0,0,1,2-1.14,1.85,1.85,0,0,1,1.51.63,2.9,2.9,0,0,1,.52,1.84Z"/><path d="M457.47,107.83h-1v-1h0a2,2,0,0,1-1.86,1.09c-1.43,0-2.14-.85-2.14-2.55v-3.59h.95v3.43c0,1.27.49,1.9,1.46,1.9a1.44,1.44,0,0,0,1.15-.52,1.94,1.94,0,0,0,.46-1.35v-3.46h1Z"/><path d="M463.79,101.83l-2,3,2,3h-1.12l-1.18-2-.26-.45h0l-.27.45-1.2,2h-1.11l2-2.94-1.95-3.06h1.12l1.16,2,.25.47h0l1.5-2.52Z"/><path d="M414.63,76.77a3.7,3.7,0,0,1-2.86-1.17,4.37,4.37,0,0,1-1.07-3.07,4.61,4.61,0,0,1,1.09-3.23,3.82,3.82,0,0,1,3-1.21,3.62,3.62,0,0,1,2.81,1.17,4.39,4.39,0,0,1,1.06,3.07,4.63,4.63,0,0,1-1.09,3.25A3.73,3.73,0,0,1,414.63,76.77ZM414.7,69a2.7,2.7,0,0,0-2.15,1,3.67,3.67,0,0,0-.82,2.5,3.75,3.75,0,0,0,.8,2.5,2.64,2.64,0,0,0,2.1,1,2.75,2.75,0,0,0,2.18-.9,3.71,3.71,0,0,0,.8-2.53,3.88,3.88,0,0,0-.77-2.57A2.66,2.66,0,0,0,414.7,69Z"/><path d="M421.15,75.77h0v.86h-1V67.75h1v3.94h0a2.26,2.26,0,0,1,2.07-1.2,2.19,2.19,0,0,1,1.81.81,3.31,3.31,0,0,1,.65,2.16,3.71,3.71,0,0,1-.73,2.41,2.44,2.44,0,0,1-2,.9A2,2,0,0,1,421.15,75.77Zm0-2.42v.84a1.8,1.8,0,0,0,.48,1.26,1.73,1.73,0,0,0,2.6-.15,3.09,3.09,0,0,0,.49-1.86,2.41,2.41,0,0,0-.46-1.57A1.54,1.54,0,0,0,423,71.3a1.69,1.69,0,0,0-1.34.59A2.11,2.11,0,0,0,421.13,73.35Z"/><path d="M430.35,71.61a1.18,1.18,0,0,0-.73-.2,1.25,1.25,0,0,0-1,.58,2.75,2.75,0,0,0-.41,1.59v3h-1v-6h1v1.24h0a2.17,2.17,0,0,1,.63-1,1.46,1.46,0,0,1,.94-.35,1.71,1.71,0,0,1,.58.08Z"/><path d="M435.69,76.63h-1V75.7h0a2,2,0,0,1-1.84,1.07,2,2,0,0,1-1.41-.47A1.68,1.68,0,0,1,431,75c0-1.12.66-1.77,2-2l1.8-.25c0-1-.42-1.53-1.24-1.53a3,3,0,0,0-2,.74v-1a3.68,3.68,0,0,1,2-.57c1.41,0,2.12.75,2.12,2.24Zm-1-3-1.45.2a2.3,2.3,0,0,0-1,.33,1,1,0,0,0-.34.84,1,1,0,0,0,.31.72,1.25,1.25,0,0,0,.84.28,1.55,1.55,0,0,0,1.18-.5,1.81,1.81,0,0,0,.47-1.27Z"/><path d="M441.68,70.91l-3.55,4.9h3.52v.82h-4.93v-.29l3.55-4.89h-3.22v-.82h4.63Z"/><path d="M447.7,70.63l-2.76,7c-.49,1.24-1.19,1.86-2.08,1.86a2.17,2.17,0,0,1-.62-.08v-.86a1.74,1.74,0,0,0,.57.11,1.19,1.19,0,0,0,1.09-.87l.48-1.14-2.35-6h1.07l1.62,4.62c0,.06.06.21.12.46h0c0-.1.06-.24.12-.45l1.7-4.63Z"/><path d="M181.64,202.63h-1.31L177.22,199a2.59,2.59,0,0,1-.22-.28h0v4H176v-8H177v3.79h0a2.42,2.42,0,0,1,.22-.28l3-3.51h1.17L178,198.44Z"/><path d="M183.39,202.63h-.92v-8.51h.92Z"/><path d="M185.61,195.42a.57.57,0,0,1-.42-.17.54.54,0,0,1-.17-.42.56.56,0,0,1,.17-.43.61.61,0,0,1,.42-.17.61.61,0,0,1,.43.17.57.57,0,0,1,.18.43.6.6,0,0,1-.61.59Zm.45,7.21h-.92v-5.75h.92Z"/><path d="M192.43,200h-4.06a2.17,2.17,0,0,0,.52,1.48,1.77,1.77,0,0,0,1.36.52,2.8,2.8,0,0,0,1.78-.64v.87a3.36,3.36,0,0,1-2,.55,2.46,2.46,0,0,1-1.92-.78,3.25,3.25,0,0,1-.69-2.21,3.16,3.16,0,0,1,.76-2.19,2.43,2.43,0,0,1,1.89-.84,2.14,2.14,0,0,1,1.74.73,3,3,0,0,1,.62,2Zm-.94-.78a1.86,1.86,0,0,0-.39-1.24,1.29,1.29,0,0,0-1-.45,1.52,1.52,0,0,0-1.11.47,2.13,2.13,0,0,0-.56,1.22Z"/><path d="M198.48,202.63h-.92v-3.28c0-1.22-.44-1.83-1.34-1.83a1.46,1.46,0,0,0-1.14.52,2,2,0,0,0-.45,1.31v3.28h-.92v-5.75h.92v1h0a2.07,2.07,0,0,1,1.89-1.09,1.74,1.74,0,0,1,1.44.61,2.71,2.71,0,0,1,.5,1.76Z"/><path d="M202.77,202.58a1.77,1.77,0,0,1-.86.18c-1,0-1.51-.56-1.51-1.69v-3.4h-1v-.79h1v-1.4l.92-.3v1.7h1.45v.79h-1.45v3.24a1.37,1.37,0,0,0,.2.83.78.78,0,0,0,.65.24,1,1,0,0,0,.6-.19Z"/><path d="M207.86,201.8h0v3.48h-.92v-8.4h.92v1h0a2.19,2.19,0,0,1,2-1.14,2.13,2.13,0,0,1,1.74.77,3.25,3.25,0,0,1,.62,2.07,3.61,3.61,0,0,1-.7,2.31,2.34,2.34,0,0,1-1.92.87A1.93,1.93,0,0,1,207.86,201.8Zm0-2.32v.81a1.71,1.71,0,0,0,.46,1.21,1.66,1.66,0,0,0,2.49-.15,2.9,2.9,0,0,0,.48-1.78,2.28,2.28,0,0,0-.45-1.5,1.46,1.46,0,0,0-1.2-.55,1.62,1.62,0,0,0-1.29.56A2,2,0,0,0,207.84,199.48Z"/><path d="M214.49,202.63h-.93v-8.51h.93Z"/><path d="M220.35,202.63h-.92v-.89h0a1.94,1.94,0,0,1-1.77,1,1.89,1.89,0,0,1-1.35-.46,1.57,1.57,0,0,1-.48-1.2c0-1.08.63-1.7,1.9-1.88l1.72-.24c0-1-.39-1.47-1.18-1.47a2.84,2.84,0,0,0-1.88.71v-.94a3.57,3.57,0,0,1,1.95-.54c1.36,0,2,.71,2,2.14Zm-.92-2.9-1.39.19a2.25,2.25,0,0,0-1,.31.91.91,0,0,0-.33.81.89.89,0,0,0,.3.69,1.2,1.2,0,0,0,.8.26,1.46,1.46,0,0,0,1.13-.48,1.69,1.69,0,0,0,.45-1.21Z"/><path d="M224.64,202.58a1.8,1.8,0,0,1-.86.18c-1,0-1.51-.56-1.51-1.69v-3.4h-1v-.79h1v-1.4l.92-.3v1.7h1.45v.79h-1.45v3.24a1.3,1.3,0,0,0,.2.83.78.78,0,0,0,.65.24,1,1,0,0,0,.6-.19Z"/><path d="M228.59,194.93a1.23,1.23,0,0,0-.61-.15c-.64,0-1,.4-1,1.22v.88h1.34v.79H227v5h-.92v-5h-1v-.79h1V196a1.93,1.93,0,0,1,.52-1.43,1.78,1.78,0,0,1,1.31-.52,1.7,1.7,0,0,1,.66.1Z"/><path d="M231.64,202.77a2.67,2.67,0,0,1-2-.81,3,3,0,0,1-.76-2.13,3.13,3.13,0,0,1,.8-2.27,2.84,2.84,0,0,1,2.14-.81,2.56,2.56,0,0,1,2,.79,3.15,3.15,0,0,1,.72,2.2,3.08,3.08,0,0,1-.77,2.2A2.75,2.75,0,0,1,231.64,202.77Zm.07-5.25a1.79,1.79,0,0,0-1.41.61,2.48,2.48,0,0,0-.51,1.66,2.33,2.33,0,0,0,.52,1.61,1.75,1.75,0,0,0,1.4.59,1.7,1.7,0,0,0,1.37-.57,3.09,3.09,0,0,0,0-3.31A1.68,1.68,0,0,0,231.71,197.52Z"/><path d="M238.86,197.82a1.08,1.08,0,0,0-.7-.19,1.17,1.17,0,0,0-1,.56,2.51,2.51,0,0,0-.4,1.51v2.93h-.92v-5.75h.92v1.19h0a2.08,2.08,0,0,1,.6-.95,1.43,1.43,0,0,1,.91-.34,1.56,1.56,0,0,1,.55.08Z"/><path d="M247.91,202.63H247v-3.3a2.48,2.48,0,0,0-.3-1.38,1.11,1.11,0,0,0-1-.43,1.22,1.22,0,0,0-1,.54,2,2,0,0,0-.41,1.29v3.28h-.92v-3.41c0-1.13-.44-1.7-1.31-1.7a1.2,1.2,0,0,0-1,.51,2.12,2.12,0,0,0-.4,1.32v3.28h-.92v-5.75h.92v.91h0a2,2,0,0,1,1.78-1,1.66,1.66,0,0,1,1.63,1.19,2.06,2.06,0,0,1,1.91-1.19c1.27,0,1.9.78,1.9,2.34Z"/><path d="M254.11,196.88l-2.64,6.67c-.48,1.2-1.14,1.79-2,1.79a2.06,2.06,0,0,1-.6-.07v-.83a1.64,1.64,0,0,0,.54.1,1.13,1.13,0,0,0,1.05-.83l.46-1.09-2.25-5.74h1l1.56,4.43c0,.05.06.2.12.44h0c0-.09.06-.24.11-.43l1.64-4.44Z"/><path d="M258.14,202.63v-8h2.23q4.25,0,4.25,3.93a3.93,3.93,0,0,1-1.18,3,4.36,4.36,0,0,1-3.16,1.13Zm.95-7.2v6.35h1.2a3.39,3.39,0,0,0,2.46-.85,3.15,3.15,0,0,0,.88-2.4c0-2.06-1.09-3.1-3.29-3.1Z"/><path d="M268.37,202.77a2.67,2.67,0,0,1-2-.81,3,3,0,0,1-.76-2.13,3.13,3.13,0,0,1,.8-2.27,2.84,2.84,0,0,1,2.14-.81,2.56,2.56,0,0,1,2,.79,3.15,3.15,0,0,1,.72,2.2,3.08,3.08,0,0,1-.77,2.2A2.75,2.75,0,0,1,268.37,202.77Zm.07-5.25a1.79,1.79,0,0,0-1.41.61,2.48,2.48,0,0,0-.51,1.66,2.33,2.33,0,0,0,.52,1.61,1.75,1.75,0,0,0,1.4.59,1.7,1.7,0,0,0,1.37-.57,3.09,3.09,0,0,0,0-3.31A1.68,1.68,0,0,0,268.44,197.52Z"/><path d="M276.51,202.37a3,3,0,0,1-1.57.4,2.64,2.64,0,0,1-2-.8,2.94,2.94,0,0,1-.75-2.08,3.21,3.21,0,0,1,.81-2.28,2.86,2.86,0,0,1,2.17-.86,3,3,0,0,1,1.34.28V198a2.34,2.34,0,0,0-1.37-.45,1.81,1.81,0,0,0-1.44.64,2.37,2.37,0,0,0-.57,1.66,2.3,2.3,0,0,0,.53,1.59,1.82,1.82,0,0,0,1.42.58,2.26,2.26,0,0,0,1.42-.5Z"/><path d="M282.56,202.63h-1.29l-2.54-2.76h0v2.76h-.92v-8.51h.92v5.4h0l2.42-2.64h1.2l-2.66,2.78Z"/><path d="M288,200H284a2.17,2.17,0,0,0,.52,1.48,1.77,1.77,0,0,0,1.36.52,2.8,2.8,0,0,0,1.78-.64v.87a3.36,3.36,0,0,1-2,.55,2.44,2.44,0,0,1-1.92-.78,3.25,3.25,0,0,1-.69-2.21,3.16,3.16,0,0,1,.76-2.19,2.43,2.43,0,0,1,1.89-.84,2.14,2.14,0,0,1,1.74.73,3.06,3.06,0,0,1,.62,2Zm-.94-.78a1.91,1.91,0,0,0-.39-1.24,1.29,1.29,0,0,0-1.05-.45,1.5,1.5,0,0,0-1.11.47,2.13,2.13,0,0,0-.56,1.22Z"/><path d="M292.29,197.82a1.1,1.1,0,0,0-.7-.19,1.2,1.2,0,0,0-1,.56,2.58,2.58,0,0,0-.39,1.51v2.93h-.92v-5.75h.92v1.19h0a2,2,0,0,1,.6-.95,1.41,1.41,0,0,1,.91-.34,1.56,1.56,0,0,1,.55.08Z"/><path d="M192.88,144.15h-.95v-8.06h.95Z"/><path d="M199.53,144.15h-.92v-3.28c0-1.22-.45-1.83-1.34-1.83a1.43,1.43,0,0,0-1.14.52,1.92,1.92,0,0,0-.46,1.31v3.28h-.92V138.4h.92v.95h0a2.08,2.08,0,0,1,1.88-1.09,1.77,1.77,0,0,1,1.45.61,2.73,2.73,0,0,1,.5,1.76Z"/><path d="M203.81,144.09a1.73,1.73,0,0,1-.85.18c-1,0-1.52-.56-1.52-1.68v-3.41h-1v-.78h1V137l.93-.29v1.7h1.44v.78h-1.44v3.24a1.37,1.37,0,0,0,.19.83.8.8,0,0,0,.65.25.92.92,0,0,0,.6-.2Z"/><path d="M209.55,141.5h-4.06A2.15,2.15,0,0,0,206,143a1.78,1.78,0,0,0,1.36.53,2.86,2.86,0,0,0,1.78-.64v.86a3.29,3.29,0,0,1-2,.55,2.44,2.44,0,0,1-1.92-.78,3.23,3.23,0,0,1-.69-2.21,3.11,3.11,0,0,1,.76-2.18,2.4,2.4,0,0,1,1.89-.85,2.14,2.14,0,0,1,1.74.73,3.06,3.06,0,0,1,.62,2Zm-.94-.78a1.93,1.93,0,0,0-.39-1.24,1.28,1.28,0,0,0-1.05-.44,1.49,1.49,0,0,0-1.11.46,2.13,2.13,0,0,0-.56,1.22Z"/><path d="M213.83,139.33a1.17,1.17,0,0,0-.7-.19,1.2,1.2,0,0,0-1,.56,2.6,2.6,0,0,0-.39,1.51v2.94h-.92V138.4h.92v1.18h0a2,2,0,0,1,.6-1,1.41,1.41,0,0,1,.91-.34,1.56,1.56,0,0,1,.55.08Z"/><path d="M217.55,136.44a1.23,1.23,0,0,0-.61-.15c-.64,0-1,.41-1,1.22v.89h1.35v.78H216v5h-.91v-5h-1v-.78h1v-.94a1.91,1.91,0,0,1,.52-1.42,2,2,0,0,1,2-.43Z"/><path d="M222.82,141.5h-4.06a2.1,2.1,0,0,0,.51,1.48,1.79,1.79,0,0,0,1.36.53,2.87,2.87,0,0,0,1.79-.64v.86a3.34,3.34,0,0,1-2,.55,2.42,2.42,0,0,1-1.91-.78,3.67,3.67,0,0,1,.06-4.39,2.43,2.43,0,0,1,1.89-.85,2.15,2.15,0,0,1,1.75.73,3.06,3.06,0,0,1,.62,2Zm-.95-.78a1.87,1.87,0,0,0-.38-1.24,1.28,1.28,0,0,0-1.05-.44,1.48,1.48,0,0,0-1.11.46,2.13,2.13,0,0,0-.56,1.22Z"/><path d="M225,143.91a3.6,3.6,0,0,1-.57,2.18,1.92,1.92,0,0,1-1.64.76,1.73,1.73,0,0,1-.76-.18v-.86a1.54,1.54,0,0,0,.79.26c.83,0,1.25-.67,1.25-2V138.4H225Zm-.45-7a.61.61,0,0,1-.43-.17.6.6,0,0,1-.17-.43.58.58,0,0,1,.6-.6.63.63,0,0,1,.43.17.61.61,0,0,1,.17.43.57.57,0,0,1-.17.42A.6.6,0,0,1,224.57,136.94Z"/><path d="M226.42,143.94v-1a2.72,2.72,0,0,0,1.65.56c.81,0,1.22-.27,1.22-.81a.67.67,0,0,0-.11-.39,1.09,1.09,0,0,0-.28-.29,3.14,3.14,0,0,0-.41-.22l-.52-.2a7.19,7.19,0,0,1-.67-.31,2,2,0,0,1-.48-.35,1.17,1.17,0,0,1-.29-.44,1.47,1.47,0,0,1-.1-.58,1.39,1.39,0,0,1,.18-.71,1.65,1.65,0,0,1,.5-.52,2,2,0,0,1,.7-.32,3.24,3.24,0,0,1,.82-.11,3.29,3.29,0,0,1,1.33.26v.93a2.55,2.55,0,0,0-1.46-.41,1.65,1.65,0,0,0-.46.06,1,1,0,0,0-.36.16.82.82,0,0,0-.23.26.73.73,0,0,0-.08.33.81.81,0,0,0,.08.37,1,1,0,0,0,.24.27,1.71,1.71,0,0,0,.38.21l.51.21q.39.15.69.3a3,3,0,0,1,.52.35,1.28,1.28,0,0,1,.32.45,1.55,1.55,0,0,1-.07,1.34,1.55,1.55,0,0,1-.5.52,2.3,2.3,0,0,1-.73.31,3.44,3.44,0,0,1-.86.1A3.2,3.2,0,0,1,226.42,143.94Z"/><path d="M240.92,144.15h-1l-.86-2.26h-3.41l-.8,2.26h-1.05l3.08-8.06h1ZM238.71,141l-1.26-3.43a3.25,3.25,0,0,1-.12-.54h0a2.37,2.37,0,0,1-.13.54L235.92,141Z"/><path d="M242.93,141.1v3.05H242v-8.06h2.21a2.91,2.91,0,0,1,2,.63,2.23,2.23,0,0,1,.72,1.78,2.45,2.45,0,0,1-.79,1.87,3,3,0,0,1-2.13.73Zm0-4.15v3.3h1a2.19,2.19,0,0,0,1.49-.45,1.55,1.55,0,0,0,.52-1.26q0-1.59-1.89-1.59Z"/><path d="M249.26,144.15h-.94v-8.06h.94Z"/><path d="M260.07,144.15H259l-1.35-2.26q-.19-.31-.36-.54a2.44,2.44,0,0,0-.36-.36,1.2,1.2,0,0,0-.39-.2,1.43,1.43,0,0,0-.48-.07h-.77v3.43h-.94v-8.06h2.4a3.29,3.29,0,0,1,1,.14,2.06,2.06,0,0,1,.78.4,1.79,1.79,0,0,1,.51.67,2.13,2.13,0,0,1,.19.94,2.11,2.11,0,0,1-.13.77,1.88,1.88,0,0,1-.36.63,2.15,2.15,0,0,1-.56.47,2.73,2.73,0,0,1-.74.3v0a1.62,1.62,0,0,1,.64.48,2.45,2.45,0,0,1,.26.35l.3.47Zm-4.83-7.2v2.92h1.28a1.93,1.93,0,0,0,.65-.11,1.48,1.48,0,0,0,.52-.3A1.57,1.57,0,0,0,258,139a1.71,1.71,0,0,0,.12-.65,1.26,1.26,0,0,0-.42-1,1.8,1.8,0,0,0-1.21-.36Z"/><path d="M265.33,144.15h-4.27v-8.06h4.09V137H262v2.68h2.91v.84H262v2.82h3.33Z"/><path d="M266.39,143.82v-1.11a2.2,2.2,0,0,0,.45.3,3.57,3.57,0,0,0,.57.23,3.9,3.9,0,0,0,.59.14,2.74,2.74,0,0,0,.55.05,2.13,2.13,0,0,0,1.3-.32,1.1,1.1,0,0,0,.43-.93,1.08,1.08,0,0,0-.15-.57,1.59,1.59,0,0,0-.39-.44,4.14,4.14,0,0,0-.6-.38l-.74-.38c-.28-.15-.55-.29-.79-.44a3.08,3.08,0,0,1-.63-.48,2,2,0,0,1-.43-.6,1.87,1.87,0,0,1-.15-.78,1.85,1.85,0,0,1,.24-1,2.12,2.12,0,0,1,.63-.67,2.92,2.92,0,0,1,.9-.39,3.91,3.91,0,0,1,1-.13,3.79,3.79,0,0,1,1.74.29v1.06a3.16,3.16,0,0,0-1.83-.5,2.62,2.62,0,0,0-.62.07,1.58,1.58,0,0,0-.55.21,1.26,1.26,0,0,0-.39.37,1,1,0,0,0-.15.57,1.12,1.12,0,0,0,.11.53,1.31,1.31,0,0,0,.34.41,3.75,3.75,0,0,0,.55.36l.74.38a9.13,9.13,0,0,1,.82.45,3.69,3.69,0,0,1,.68.52,2,2,0,0,1,.46.64,1.67,1.67,0,0,1,.18.79,2,2,0,0,1-.24,1,1.76,1.76,0,0,1-.63.67,2.77,2.77,0,0,1-.91.38,5.44,5.44,0,0,1-1.09.11l-.47,0-.57-.09a4.58,4.58,0,0,1-.56-.15A1.43,1.43,0,0,1,266.39,143.82Z"/><path d="M277.52,137h-2.33v7.2h-.94V137h-2.32v-.86h5.59Z"/><path d="M173.38,82.48V81.37a2.29,2.29,0,0,0,.46.3,3.13,3.13,0,0,0,.56.23A3.9,3.9,0,0,0,175,82a3.74,3.74,0,0,0,.55,0,2.2,2.2,0,0,0,1.3-.32,1.1,1.1,0,0,0,.43-.93,1.15,1.15,0,0,0-.14-.57,1.65,1.65,0,0,0-.4-.44,4.14,4.14,0,0,0-.6-.38l-.74-.39c-.28-.14-.54-.28-.79-.43a3.08,3.08,0,0,1-.63-.48,2.28,2.28,0,0,1-.43-.6,1.87,1.87,0,0,1-.15-.78,1.85,1.85,0,0,1,.24-1,2,2,0,0,1,.64-.67,2.65,2.65,0,0,1,.89-.39,4,4,0,0,1,1-.13,3.93,3.93,0,0,1,1.73.28V76a3.12,3.12,0,0,0-1.83-.5,2.62,2.62,0,0,0-.62.07,1.66,1.66,0,0,0-.55.21,1.15,1.15,0,0,0-.39.37,1,1,0,0,0-.15.56,1.27,1.27,0,0,0,.11.54,1.43,1.43,0,0,0,.34.41,4.38,4.38,0,0,0,.55.36l.74.38a7.93,7.93,0,0,1,.82.45,3.69,3.69,0,0,1,.68.52,2.36,2.36,0,0,1,.47.63,1.88,1.88,0,0,1,.17.8,2.09,2.09,0,0,1-.23,1,1.93,1.93,0,0,1-.63.67,2.69,2.69,0,0,1-.92.37,4.73,4.73,0,0,1-1.09.12l-.47,0c-.18,0-.38,0-.57-.09a4.41,4.41,0,0,1-.55-.15A1.67,1.67,0,0,1,173.38,82.48Z"/><path d="M184.25,80.16h-4.06a2.12,2.12,0,0,0,.51,1.48,1.79,1.79,0,0,0,1.36.52,2.81,2.81,0,0,0,1.79-.64v.87a3.34,3.34,0,0,1-2,.55,2.42,2.42,0,0,1-1.91-.78,3.2,3.2,0,0,1-.7-2.21,3.16,3.16,0,0,1,.76-2.18,2.43,2.43,0,0,1,1.89-.85,2.15,2.15,0,0,1,1.75.73,3.06,3.06,0,0,1,.62,2Zm-.95-.78a1.86,1.86,0,0,0-.38-1.24,1.29,1.29,0,0,0-1-.45,1.49,1.49,0,0,0-1.11.47,2.13,2.13,0,0,0-.56,1.22Z"/><path d="M188.52,78a1.07,1.07,0,0,0-.69-.19,1.17,1.17,0,0,0-1,.56,2.58,2.58,0,0,0-.39,1.51V82.8h-.93V77.05h.93v1.19h0a2,2,0,0,1,.6-.95A1.4,1.4,0,0,1,188,77a1.52,1.52,0,0,1,.55.08Z"/><path d="M196.65,77.05l-1.72,5.75h-1l-1.18-4.11a2.17,2.17,0,0,1-.09-.53h0a3.27,3.27,0,0,1-.12.52l-1.29,4.12h-.92l-1.74-5.75h1l1.19,4.33a3.86,3.86,0,0,1,.08.52h0a2.59,2.59,0,0,1,.1-.53l1.33-4.32h.84l1.19,4.34a3,3,0,0,1,.08.52h0a3,3,0,0,1,.09-.52l1.17-4.34Z"/><path d="M202.22,80.16h-4.06a2.17,2.17,0,0,0,.52,1.48,1.77,1.77,0,0,0,1.36.52,2.83,2.83,0,0,0,1.79-.64v.87a3.34,3.34,0,0,1-2,.55,2.42,2.42,0,0,1-1.91-.78,3.2,3.2,0,0,1-.7-2.21,3.11,3.11,0,0,1,.76-2.18,2.43,2.43,0,0,1,1.89-.85,2.17,2.17,0,0,1,1.75.73,3.06,3.06,0,0,1,.61,2Zm-.94-.78a1.86,1.86,0,0,0-.38-1.24,1.33,1.33,0,0,0-1.06-.45,1.48,1.48,0,0,0-1.1.47,2.07,2.07,0,0,0-.56,1.22Z"/><path d="M206.5,78a1.08,1.08,0,0,0-.7-.19,1.17,1.17,0,0,0-1,.56,2.51,2.51,0,0,0-.4,1.51V82.8h-.92V77.05h.92v1.19h0a2,2,0,0,1,.6-.95A1.4,1.4,0,0,1,206,77a1.56,1.56,0,0,1,.55.08Z"/><path d="M211.36,82h0v3.48h-.92v-8.4h.92v1h0a2.18,2.18,0,0,1,2-1.15,2.13,2.13,0,0,1,1.74.77,3.25,3.25,0,0,1,.62,2.07,3.56,3.56,0,0,1-.7,2.31,2.34,2.34,0,0,1-1.92.87A1.93,1.93,0,0,1,211.36,82Zm0-2.32v.81a1.75,1.75,0,0,0,.46,1.21,1.55,1.55,0,0,0,1.18.49,1.52,1.52,0,0,0,1.31-.64,2.9,2.9,0,0,0,.48-1.78,2.28,2.28,0,0,0-.45-1.5,1.46,1.46,0,0,0-1.2-.55,1.65,1.65,0,0,0-1.29.56A2,2,0,0,0,211.34,79.65Z"/><path d="M218,82.8h-.92V74.29H218Z"/><path d="M223.85,82.8h-.92v-.89h0a1.92,1.92,0,0,1-1.77,1,1.85,1.85,0,0,1-1.34-.46,1.54,1.54,0,0,1-.49-1.2c0-1.08.63-1.7,1.9-1.88l1.72-.24c0-1-.39-1.47-1.18-1.47a2.84,2.84,0,0,0-1.88.71v-.94a3.58,3.58,0,0,1,2-.54c1.35,0,2,.71,2,2.14Zm-.92-2.9-1.39.19a2.3,2.3,0,0,0-1,.31.92.92,0,0,0-.33.81.89.89,0,0,0,.3.69,1.15,1.15,0,0,0,.8.26,1.46,1.46,0,0,0,1.13-.48,1.69,1.69,0,0,0,.45-1.21Z"/><path d="M228.14,82.75a1.77,1.77,0,0,1-.86.18c-1,0-1.51-.56-1.51-1.69v-3.4h-1v-.79h1v-1.4l.92-.3v1.7h1.45v.79h-1.45v3.24a1.37,1.37,0,0,0,.2.83.8.8,0,0,0,.65.24,1,1,0,0,0,.6-.19Z"/><path d="M232.1,75.1a1.26,1.26,0,0,0-.62-.15c-.64,0-1,.4-1,1.22v.88h1.35v.79h-1.35v5h-.92v-5h-1v-.79h1v-.93a1.94,1.94,0,0,1,.53-1.43,1.74,1.74,0,0,1,1.3-.52,1.78,1.78,0,0,1,.67.1Z"/><path d="M235.14,82.94a2.64,2.64,0,0,1-2-.81,3,3,0,0,1-.76-2.13,3.12,3.12,0,0,1,.79-2.27,2.86,2.86,0,0,1,2.14-.81,2.56,2.56,0,0,1,2,.79,3.58,3.58,0,0,1-.05,4.4A2.75,2.75,0,0,1,235.14,82.94Zm.07-5.25a1.75,1.75,0,0,0-1.4.61,2.45,2.45,0,0,0-.52,1.66,2.37,2.37,0,0,0,.52,1.62,1.79,1.79,0,0,0,1.4.58,1.7,1.7,0,0,0,1.37-.57,3.09,3.09,0,0,0,0-3.31A1.68,1.68,0,0,0,235.21,77.69Z"/><path d="M242.36,78a1.08,1.08,0,0,0-.7-.19,1.17,1.17,0,0,0-1,.56,2.51,2.51,0,0,0-.4,1.51V82.8h-.92V77.05h.92v1.19h0a2,2,0,0,1,.6-.95,1.4,1.4,0,0,1,.9-.34,1.56,1.56,0,0,1,.55.08Z"/><path d="M251.41,82.8h-.92V79.5a2.48,2.48,0,0,0-.3-1.38,1.11,1.11,0,0,0-1-.43,1.23,1.23,0,0,0-1,.54,2.1,2.1,0,0,0-.41,1.3V82.8h-.92V79.39c0-1.13-.44-1.7-1.31-1.7a1.2,1.2,0,0,0-1,.51,2.12,2.12,0,0,0-.39,1.33V82.8h-.92V77.05h.92V78h0a2,2,0,0,1,1.78-1,1.66,1.66,0,0,1,1.63,1.19,2.07,2.07,0,0,1,1.91-1.19c1.27,0,1.9.78,1.9,2.34Z"/><path d="M257.61,77.05,255,83.73c-.47,1.19-1.14,1.78-2,1.78a2.06,2.06,0,0,1-.6-.07v-.83a1.64,1.64,0,0,0,.54.1,1.12,1.12,0,0,0,1.05-.83l.46-1.09-2.25-5.74h1l1.56,4.43c0,.06.06.2.12.44h0c0-.09.06-.23.11-.43l1.64-4.44Z"/><path d="M261.64,82.8v-8h2.23q4.25,0,4.25,3.93a3.93,3.93,0,0,1-1.18,3,4.36,4.36,0,0,1-3.16,1.13Zm.95-7.19V82h1.2a3.38,3.38,0,0,0,2.46-.85,3.15,3.15,0,0,0,.89-2.4q0-3.09-3.3-3.09Z"/><path d="M271.87,82.94a2.64,2.64,0,0,1-2-.81,3,3,0,0,1-.76-2.13,3.12,3.12,0,0,1,.79-2.27,2.86,2.86,0,0,1,2.14-.81,2.56,2.56,0,0,1,2,.79,3.58,3.58,0,0,1-.05,4.4A2.75,2.75,0,0,1,271.87,82.94Zm.07-5.25a1.75,1.75,0,0,0-1.4.61A2.45,2.45,0,0,0,270,80a2.37,2.37,0,0,0,.52,1.62,1.79,1.79,0,0,0,1.4.58,1.7,1.7,0,0,0,1.37-.57,3.09,3.09,0,0,0,0-3.31A1.68,1.68,0,0,0,271.94,77.69Z"/><path d="M280,82.54a2.93,2.93,0,0,1-1.57.4,2.64,2.64,0,0,1-2-.8,2.92,2.92,0,0,1-.75-2.08,3.21,3.21,0,0,1,.81-2.28,2.88,2.88,0,0,1,2.18-.86,3,3,0,0,1,1.33.28v.94a2.32,2.32,0,0,0-1.37-.45,1.84,1.84,0,0,0-1.44.64,2.37,2.37,0,0,0-.57,1.66,2.3,2.3,0,0,0,.53,1.59,1.84,1.84,0,0,0,1.43.58,2.3,2.3,0,0,0,1.41-.49Z"/><path d="M286.06,82.8h-1.29L282.23,80h0V82.8h-.92V74.29h.92v5.4h0l2.42-2.64h1.2l-2.66,2.78Z"/><path d="M291.51,80.16h-4.06a2.17,2.17,0,0,0,.52,1.48,1.77,1.77,0,0,0,1.36.52,2.8,2.8,0,0,0,1.78-.64v.87a3.29,3.29,0,0,1-2,.55,2.46,2.46,0,0,1-1.92-.78A3.25,3.25,0,0,1,286.5,80a3.11,3.11,0,0,1,.76-2.18,2.43,2.43,0,0,1,1.89-.85,2.14,2.14,0,0,1,1.74.73,3,3,0,0,1,.62,2Zm-.94-.78a1.86,1.86,0,0,0-.39-1.24,1.29,1.29,0,0,0-1.05-.45,1.52,1.52,0,0,0-1.11.47,2.13,2.13,0,0,0-.56,1.22Z"/><path d="M295.79,78a1.1,1.1,0,0,0-.7-.19,1.17,1.17,0,0,0-1,.56,2.51,2.51,0,0,0-.4,1.51V82.8h-.92V77.05h.92v1.19h0a2,2,0,0,1,.6-.95,1.41,1.41,0,0,1,.91-.34,1.56,1.56,0,0,1,.55.08Z"/><path d="M166.8,40h-2.07l-.59-1.87h-3L160.56,40h-2.05l3.05-8.41h2.25Zm-3.1-3.33-.9-2.82a3.57,3.57,0,0,1-.14-.76h0a3.86,3.86,0,0,1-.14.74l-.92,2.84Z"/><path d="M169.54,39.28h0v3.46h-1.86V34h1.86v.9h0a2.36,2.36,0,0,1,3.73-.25,3.43,3.43,0,0,1,.63,2.18,3.63,3.63,0,0,1-.74,2.4,2.4,2.4,0,0,1-2,.91A1.87,1.87,0,0,1,169.54,39.28Zm0-2.46v.48a1.57,1.57,0,0,0,.32,1,1.08,1.08,0,0,0,.87.39,1.14,1.14,0,0,0,1-.49,2.34,2.34,0,0,0,.35-1.38c0-1.06-.41-1.58-1.23-1.58a1.15,1.15,0,0,0-.93.43A1.69,1.69,0,0,0,169.49,36.82Z"/><path d="M180,40h-1.75v-.87h0a2,2,0,0,1-1.79,1,1.89,1.89,0,0,1-1.38-.49,1.79,1.79,0,0,1-.5-1.32c0-1.17.69-1.84,2.07-2l1.63-.22c0-.65-.36-1-1.07-1a3.64,3.64,0,0,0-2,.64v-1.4a4.85,4.85,0,0,1,1.06-.35,5.7,5.7,0,0,1,1.22-.15A2.26,2.26,0,0,1,180,36.39Zm-1.74-2.44v-.41l-1.09.14c-.6.08-.9.35-.9.82a.67.67,0,0,0,.22.52.84.84,0,0,0,.59.2,1.1,1.1,0,0,0,.85-.36A1.29,1.29,0,0,0,178.24,37.54Z"/><path d="M185.36,35.65a1.5,1.5,0,0,0-.78-.19,1.1,1.1,0,0,0-.94.45,1.88,1.88,0,0,0-.34,1.2V40h-1.85V34h1.85v1.11h0a1.6,1.6,0,0,1,1.58-1.22,1.14,1.14,0,0,1,.46.07Z"/><path d="M191.21,40h-1.75v-.87h0a1.94,1.94,0,0,1-1.79,1,1.85,1.85,0,0,1-1.37-.49,1.75,1.75,0,0,1-.5-1.32c0-1.17.68-1.84,2.06-2l1.63-.22c0-.65-.35-1-1.06-1a3.59,3.59,0,0,0-2,.64v-1.4a4.74,4.74,0,0,1,1-.35,5.71,5.71,0,0,1,1.23-.15,2.26,2.26,0,0,1,2.56,2.56Zm-1.74-2.44v-.41l-1.09.14c-.6.08-.9.35-.9.82a.67.67,0,0,0,.22.52.86.86,0,0,0,.59.2,1.08,1.08,0,0,0,.85-.36A1.29,1.29,0,0,0,189.47,37.54Z"/><path d="M196.3,39.91a2.78,2.78,0,0,1-1.23.21,1.76,1.76,0,0,1-2-2V35.34h-1V34h1v-1.3l1.85-.53V34h1.34v1.36H195v2.43c0,.62.25.93.74.93a1.14,1.14,0,0,0,.6-.17Z"/><path d="M202.53,39.28h0v3.46h-1.85V34h1.85v.9h0a2.36,2.36,0,0,1,3.73-.25,3.37,3.37,0,0,1,.64,2.18,3.68,3.68,0,0,1-.74,2.4,2.41,2.41,0,0,1-2,.91A1.88,1.88,0,0,1,202.53,39.28Zm-.05-2.46v.48a1.52,1.52,0,0,0,.33,1,1.06,1.06,0,0,0,.86.39,1.12,1.12,0,0,0,1-.49,2.34,2.34,0,0,0,.35-1.38c0-1.06-.41-1.58-1.23-1.58a1.15,1.15,0,0,0-.93.43A1.69,1.69,0,0,0,202.48,36.82Z"/><path d="M210,40H208.1V31.09H210Z"/><path d="M216.5,40h-1.75v-.87h0a2,2,0,0,1-1.79,1,1.85,1.85,0,0,1-1.37-.49,1.76,1.76,0,0,1-.51-1.32c0-1.17.69-1.84,2.07-2l1.63-.22c0-.65-.35-1-1.06-1a3.59,3.59,0,0,0-2,.64v-1.4a4.57,4.57,0,0,1,1.05-.35,5.71,5.71,0,0,1,1.23-.15,2.26,2.26,0,0,1,2.56,2.56Zm-1.74-2.44v-.41l-1.09.14c-.6.08-.9.35-.9.82a.67.67,0,0,0,.22.52.86.86,0,0,0,.59.2,1.1,1.1,0,0,0,.85-.36A1.29,1.29,0,0,0,214.76,37.54Z"/><path d="M221.59,39.91a2.78,2.78,0,0,1-1.23.21,1.76,1.76,0,0,1-2-2V35.34h-1V34h1v-1.3l1.85-.53V34h1.34v1.36h-1.34v2.43c0,.62.24.93.74.93a1.14,1.14,0,0,0,.6-.17Z"/><path d="M226.55,32.51a2,2,0,0,0-.68-.14c-.6,0-.9.32-.9,1V34h1.38v1.36H225V40h-1.84V35.34h-1V34h1v-.75a2.15,2.15,0,0,1,.67-1.65,2.52,2.52,0,0,1,1.81-.63,3.11,3.11,0,0,1,.94.12Z"/><path d="M230.1,40.12a3.23,3.23,0,0,1-2.36-.84,3.47,3.47,0,0,1,0-4.61,3.37,3.37,0,0,1,2.41-.84,3.18,3.18,0,0,1,2.34.84,3,3,0,0,1,.85,2.22,3.16,3.16,0,0,1-.87,2.36A3.27,3.27,0,0,1,230.1,40.12Zm0-4.87a1.26,1.26,0,0,0-1,.45,2,2,0,0,0-.36,1.28c0,1.15.46,1.72,1.39,1.72s1.33-.59,1.33-1.77S231,35.25,230.14,35.25Z"/><path d="M238.49,35.65a1.55,1.55,0,0,0-.78-.19,1.12,1.12,0,0,0-1,.45,1.94,1.94,0,0,0-.34,1.2V40h-1.85V34h1.85v1.11h0A1.6,1.6,0,0,1,238,33.87a1.17,1.17,0,0,1,.46.07Z"/><path d="M248.91,40h-1.85V36.55c0-.87-.32-1.3-1-1.3a.88.88,0,0,0-.74.39,1.63,1.63,0,0,0-.29,1V40h-1.85V36.52c0-.85-.31-1.27-.94-1.27a.9.9,0,0,0-.76.37,1.65,1.65,0,0,0-.29,1V40h-1.85V34h1.85v.93h0a2.22,2.22,0,0,1,.8-.78,2.26,2.26,0,0,1,1.14-.3A1.73,1.73,0,0,1,244.94,35a2.2,2.2,0,0,1,2-1.12c1.31,0,2,.8,2,2.41Z"/><path d="M256.09,34l-2.44,6.48c-.59,1.55-1.47,2.33-2.65,2.33a3.46,3.46,0,0,1-1.11-.15V41.17a1.63,1.63,0,0,0,.81.21,1,1,0,0,0,1-.67L252,40l-2.44-6h2.05l1.12,3.65a4.62,4.62,0,0,1,.17.8h0a5.22,5.22,0,0,1,.19-.79L254.25,34Z"/><path d="M260.32,40V31.57h3q4.49,0,4.48,4.1a4.14,4.14,0,0,1-1.22,3.13A4.53,4.53,0,0,1,263.3,40Zm1.9-6.87v5.33h.93a2.53,2.53,0,0,0,1.93-.74,2.79,2.79,0,0,0,.71-2,2.56,2.56,0,0,0-.7-1.89,2.64,2.64,0,0,0-1.95-.69Z"/><path d="M271.85,40.12a3.23,3.23,0,0,1-2.36-.84,3.47,3.47,0,0,1,0-4.61,3.38,3.38,0,0,1,2.41-.84,3.2,3.2,0,0,1,2.35.84,3,3,0,0,1,.85,2.22,3.17,3.17,0,0,1-.88,2.36A3.24,3.24,0,0,1,271.85,40.12Zm0-4.87a1.23,1.23,0,0,0-1,.45,1.93,1.93,0,0,0-.37,1.28c0,1.15.47,1.72,1.4,1.72s1.33-.59,1.33-1.77S272.79,35.25,271.9,35.25Z"/><path d="M280.87,39.76a3.66,3.66,0,0,1-1.81.36,3.06,3.06,0,0,1-2.24-.84,2.88,2.88,0,0,1-.85-2.16,3.16,3.16,0,0,1,.92-2.41,3.36,3.36,0,0,1,2.45-.88,3.1,3.1,0,0,1,1.53.28v1.57a2.09,2.09,0,0,0-1.29-.43A1.61,1.61,0,0,0,277.85,37a1.73,1.73,0,0,0,.44,1.25,1.66,1.66,0,0,0,1.23.45,2.42,2.42,0,0,0,1.35-.43Z"/><path d="M288.1,40h-2.22L284,37h0v3h-1.85V31.09h1.85v5.66h0L285.75,34H288l-2.16,2.81Z"/><path d="M294,37.5H290.1c.06.87.61,1.31,1.65,1.31a3.24,3.24,0,0,0,1.74-.47v1.34a4.68,4.68,0,0,1-2.16.44,2.78,2.78,0,0,1-3.06-3,3.24,3.24,0,0,1,.86-2.37,2.9,2.9,0,0,1,2.14-.87,2.63,2.63,0,0,1,2,.78,3,3,0,0,1,.72,2.11Zm-1.72-1.13c0-.86-.35-1.29-1-1.29a1,1,0,0,0-.77.37,1.65,1.65,0,0,0-.4.92Z"/><path d="M299,35.65a1.5,1.5,0,0,0-.78-.19,1.12,1.12,0,0,0-.94.45,1.88,1.88,0,0,0-.34,1.2V40h-1.85V34H297v1.11h0a1.61,1.61,0,0,1,1.58-1.22,1.14,1.14,0,0,1,.46.07Z"/><path d="M62.33,151H61.12l-4.33-6.7a3.16,3.16,0,0,1-.26-.52h0a8.6,8.6,0,0,1,0,1.15V151h-1v-8.4h1.28L61,149.2c.17.27.29.46.34.56h0a8.58,8.58,0,0,1-.06-1.23v-5.92h1Z"/><path d="M69.52,150.53c0,2.2-1,3.31-3.16,3.31a4.18,4.18,0,0,1-2-.43v-1a4,4,0,0,0,1.94.57c1.47,0,2.21-.79,2.21-2.36V150h0a2.43,2.43,0,0,1-3.87.35,3.21,3.21,0,0,1-.68-2.14,3.78,3.78,0,0,1,.74-2.44,2.46,2.46,0,0,1,2-.9,2,2,0,0,1,1.8,1h0V145h1Zm-1-2.23v-.89a1.72,1.72,0,0,0-.48-1.22,1.62,1.62,0,0,0-1.21-.51,1.66,1.66,0,0,0-1.39.65,2.85,2.85,0,0,0-.51,1.81,2.48,2.48,0,0,0,.49,1.6,1.56,1.56,0,0,0,1.28.6,1.65,1.65,0,0,0,1.31-.57A2.12,2.12,0,0,0,68.56,148.3Z"/><path d="M72,143.49a.6.6,0,0,1-.44-.18.57.57,0,0,1-.18-.44.61.61,0,0,1,.18-.45.6.6,0,0,1,.44-.18.64.64,0,0,1,.45.18.61.61,0,0,1,.18.45.6.6,0,0,1-.18.44A.64.64,0,0,1,72,143.49Zm.47,7.52h-1v-6h1Z"/><path d="M79.35,151h-1v-3.42c0-1.27-.46-1.91-1.39-1.91a1.5,1.5,0,0,0-1.19.54,2,2,0,0,0-.48,1.37V151h-1v-6h1v1h0a2.16,2.16,0,0,1,2-1.14,1.82,1.82,0,0,1,1.5.64,2.79,2.79,0,0,1,.52,1.83Z"/><path d="M85.55,145l-2,3,2,3H84.39l-1.18-1.94-.26-.46h0l-.28.46L81.45,151H80.34l2-2.94-2-3.06h1.12l1.16,2.05c.09.15.17.31.25.47h0l1.5-2.52Z"/><path d="M56.88,97.9l-2.38,8.4H53.35l-1.73-6.14a3.69,3.69,0,0,1-.13-.85h0a3.89,3.89,0,0,1-.15.84l-1.74,6.15H48.43L46,97.9h1.08l1.79,6.45a4.6,4.6,0,0,1,.14.84h0a5,5,0,0,1,.18-.84l1.86-6.45H52l1.78,6.49a5.13,5.13,0,0,1,.14.79h0a5.38,5.38,0,0,1,.16-.81l1.72-6.47Z"/><path d="M58.49,98.78a.6.6,0,0,1-.44-.18.57.57,0,0,1-.18-.44.61.61,0,0,1,.18-.45.6.6,0,0,1,.44-.18.64.64,0,0,1,.45.18.61.61,0,0,1,.18.45.6.6,0,0,1-.18.44A.64.64,0,0,1,58.49,98.78ZM59,106.3H58v-6h1Z"/><path d="M65.88,106.3h-1v-3.42c0-1.27-.46-1.91-1.39-1.91a1.54,1.54,0,0,0-1.2.54,2.05,2.05,0,0,0-.47,1.37v3.42h-1v-6h1v1h0a2.16,2.16,0,0,1,2-1.14,1.86,1.86,0,0,1,1.51.64,2.82,2.82,0,0,1,.52,1.84Z"/><path d="M72.81,106.3h-1v-1h0a2.43,2.43,0,0,1-3.87.36,3.33,3.33,0,0,1-.68-2.2,3.59,3.59,0,0,1,.75-2.38,2.48,2.48,0,0,1,2-.9,1.94,1.94,0,0,1,1.8,1h0V97.42h1Zm-1-2.71v-.88a1.7,1.7,0,0,0-.48-1.23,1.59,1.59,0,0,0-1.22-.51,1.67,1.67,0,0,0-1.38.65,2.79,2.79,0,0,0-.5,1.78,2.56,2.56,0,0,0,.48,1.64,1.57,1.57,0,0,0,1.3.6,1.66,1.66,0,0,0,1.3-.58A2.15,2.15,0,0,0,71.85,103.59Z"/><path d="M77.27,106.44a2.79,2.79,0,0,1-2.13-.84,3.1,3.1,0,0,1-.79-2.23,3.26,3.26,0,0,1,.82-2.36,3,3,0,0,1,2.24-.85,2.69,2.69,0,0,1,2.09.83,3.27,3.27,0,0,1,.75,2.29,3.23,3.23,0,0,1-.81,2.3A2.81,2.81,0,0,1,77.27,106.44Zm.07-5.47a1.84,1.84,0,0,0-1.47.63,2.59,2.59,0,0,0-.54,1.74,2.41,2.41,0,0,0,.55,1.68,1.85,1.85,0,0,0,1.46.62,1.73,1.73,0,0,0,1.43-.61,2.62,2.62,0,0,0,.5-1.71,2.71,2.71,0,0,0-.5-1.74A1.76,1.76,0,0,0,77.34,101Z"/><path d="M89.35,100.3l-1.8,6h-1L85.32,102a2.81,2.81,0,0,1-.1-.56h0a2.64,2.64,0,0,1-.12.55l-1.34,4.3h-1l-1.81-6h1l1.24,4.52a2.85,2.85,0,0,1,.08.53h0a2.38,2.38,0,0,1,.1-.55l1.39-4.5h.87L87,104.83a3.12,3.12,0,0,1,.08.54h0a2.4,2.4,0,0,1,.1-.54l1.22-4.53Z"/><path d="M90.1,106.09v-1a2.88,2.88,0,0,0,1.73.58c.84,0,1.26-.29,1.26-.85a.65.65,0,0,0-.11-.4,1,1,0,0,0-.29-.3,2.18,2.18,0,0,0-.43-.23l-.54-.22a5.79,5.79,0,0,1-.7-.32,1.74,1.74,0,0,1-.5-.36,1.29,1.29,0,0,1-.31-.46,1.57,1.57,0,0,1-.1-.6,1.44,1.44,0,0,1,.19-.75,1.58,1.58,0,0,1,.52-.54,2.45,2.45,0,0,1,.73-.34,3.49,3.49,0,0,1,.86-.11,3.41,3.41,0,0,1,1.39.27v1a2.71,2.71,0,0,0-1.52-.44,1.88,1.88,0,0,0-.49.06,1.06,1.06,0,0,0-.37.18.85.85,0,0,0-.24.26.7.7,0,0,0-.09.35.8.8,0,0,0,.09.39.94.94,0,0,0,.25.28,1.67,1.67,0,0,0,.4.22l.53.22c.27.1.5.21.72.31a2.16,2.16,0,0,1,.53.37,1.41,1.41,0,0,1,.35.46,1.54,1.54,0,0,1,.12.63,1.47,1.47,0,0,1-.2.77,1.7,1.7,0,0,1-.52.55,2.49,2.49,0,0,1-.76.32,3.71,3.71,0,0,1-.9.1A3.37,3.37,0,0,1,90.1,106.09Z"/><path d="M41.67,58q0,3.54-3.19,3.54t-3.06-3.41V53h1v5.07c0,1.72.73,2.58,2.18,2.58s2.11-.83,2.11-2.49V53h1Z"/><path d="M44.62,60.51h0v.87h-1V52.49h1v3.94h0a2.3,2.3,0,0,1,2.08-1.19,2.23,2.23,0,0,1,1.81.8,3.37,3.37,0,0,1,.65,2.16,3.69,3.69,0,0,1-.73,2.41,2.44,2.44,0,0,1-2,.91A2,2,0,0,1,44.62,60.51Zm0-2.42v.84a1.79,1.79,0,0,0,.48,1.26,1.73,1.73,0,0,0,2.6-.15,3,3,0,0,0,.49-1.86,2.43,2.43,0,0,0-.46-1.57,1.51,1.51,0,0,0-1.25-.56,1.7,1.7,0,0,0-1.35.58A2.13,2.13,0,0,0,44.6,58.09Z"/><path d="M55.55,61.38h-1v-1h0a2,2,0,0,1-1.85,1.09c-1.43,0-2.14-.85-2.14-2.56V55.38h1v3.43c0,1.27.48,1.9,1.45,1.9a1.46,1.46,0,0,0,1.16-.52,2,2,0,0,0,.45-1.36V55.38h1Z"/><path d="M62.47,61.38h-1V58c0-1.28-.46-1.91-1.39-1.91a1.5,1.5,0,0,0-1.19.54A2,2,0,0,0,58.45,58v3.42h-1v-6h1v1h0a2.17,2.17,0,0,1,2-1.13,1.83,1.83,0,0,1,1.5.63,2.84,2.84,0,0,1,.53,1.84Z"/><path d="M67.06,61.32a1.94,1.94,0,0,1-.9.19c-1,0-1.57-.59-1.57-1.76V56.2h-1v-.82h1V53.91l1-.31v1.78h1.51v.82H65.55v3.38a1.45,1.45,0,0,0,.2.86.84.84,0,0,0,.68.26,1.05,1.05,0,0,0,.63-.2Z"/><path d="M73.19,61.38h-1v-1h0a2,2,0,0,1-1.85,1.09c-1.43,0-2.15-.85-2.15-2.56V55.38h1v3.43c0,1.27.48,1.9,1.45,1.9a1.46,1.46,0,0,0,1.16-.52,2,2,0,0,0,.45-1.36V55.38h1Z"/><path d="M82.91,61.38H78.55V53h1v7.51h3.38Z"/><path d="M84.56,53.85a.6.6,0,0,1-.44-.17.65.65,0,0,1,0-.9.64.64,0,0,1,.44-.17.64.64,0,0,1,.45.17.61.61,0,0,1,.18.45.6.6,0,0,1-.18.44A.61.61,0,0,1,84.56,53.85ZM85,61.38h-1v-6h1Z"/><path d="M92,61.38H91V58c0-1.28-.47-1.91-1.4-1.91a1.5,1.5,0,0,0-1.19.54A2,2,0,0,0,87.94,58v3.42H87v-6h1v1h0a2.17,2.17,0,0,1,2-1.13,1.83,1.83,0,0,1,1.5.63A2.84,2.84,0,0,1,92,57.71Z"/><path d="M98.62,61.38h-1v-1h0a2,2,0,0,1-1.85,1.09c-1.43,0-2.14-.85-2.14-2.56V55.38h1v3.43c0,1.27.49,1.9,1.46,1.9a1.45,1.45,0,0,0,1.15-.52,2,2,0,0,0,.46-1.36V55.38h1Z"/><path d="M104.94,55.38l-2,3,2,3h-1.12l-1.18-2c-.08-.12-.16-.27-.27-.45h0l-.27.45-1.21,2h-1.1l2-2.94-2-3.06h1.11l1.16,2c.09.15.17.31.26.47h0l1.5-2.52Z"/><path d="M38.09,18.49v-8.4h3c3,0,4.48,1.36,4.48,4.09a4.15,4.15,0,0,1-1.23,3.14,4.48,4.48,0,0,1-3.25,1.17ZM40,11.63V17h.93a2.5,2.5,0,0,0,1.93-.74,2.78,2.78,0,0,0,.7-2,2.55,2.55,0,0,0-.69-1.89,2.67,2.67,0,0,0-2-.68Z"/><path d="M49.62,18.63a3.23,3.23,0,0,1-2.36-.84,3.05,3.05,0,0,1-.86-2.28,3.07,3.07,0,0,1,.89-2.33,3.38,3.38,0,0,1,2.41-.84,3.16,3.16,0,0,1,2.34.84,3,3,0,0,1,.85,2.23A3.19,3.19,0,0,1,52,17.77,3.27,3.27,0,0,1,49.62,18.63Zm.05-4.87a1.23,1.23,0,0,0-1,.45,2,2,0,0,0-.37,1.28c0,1.15.47,1.73,1.4,1.73S51,16.62,51,15.44,50.56,13.76,49.67,13.76Z"/><path d="M58.64,18.27a3.69,3.69,0,0,1-1.81.36,3.1,3.1,0,0,1-2.24-.83,2.9,2.9,0,0,1-.85-2.17,3.19,3.19,0,0,1,.91-2.41,3.44,3.44,0,0,1,2.46-.88,3.22,3.22,0,0,1,1.53.28v1.57a2.09,2.09,0,0,0-1.29-.43,1.61,1.61,0,0,0-1.73,1.75,1.73,1.73,0,0,0,.44,1.25,1.67,1.67,0,0,0,1.23.46,2.43,2.43,0,0,0,1.35-.44Z"/><path d="M65.87,18.49H63.65l-1.92-3h0v3H59.85V9.6h1.86v5.66h0l1.79-2.77h2.19l-2.15,2.82Z"/><path d="M71.78,16H67.87c.06.87.61,1.3,1.65,1.3a3.15,3.15,0,0,0,1.74-.47v1.34a4.56,4.56,0,0,1-2.16.44,3,3,0,0,1-2.26-.8,3,3,0,0,1-.8-2.25,3.27,3.27,0,0,1,.86-2.37A2.9,2.9,0,0,1,69,12.34a2.63,2.63,0,0,1,2,.78,3,3,0,0,1,.71,2.12Zm-1.71-1.14q0-1.29-1-1.29a1,1,0,0,0-.77.37,1.71,1.71,0,0,0-.39.92Z"/><path d="M76.8,14.16A1.61,1.61,0,0,0,76,14a1.1,1.1,0,0,0-.94.44,1.88,1.88,0,0,0-.34,1.2v2.87H72.89v-6h1.85V13.6h0a1.6,1.6,0,0,1,1.58-1.22,1.35,1.35,0,0,1,.46.07Z"/><path d="M88.43,18.49h-1.9V15.07H83.05v3.42h-1.9v-8.4h1.9v3.35h3.48V10.09h1.9Z"/><path d="M95.87,18.49H94v-.92h0a2.09,2.09,0,0,1-1.83,1.06c-1.39,0-2.09-.84-2.09-2.52V12.49h1.85v3.45c0,.85.33,1.28,1,1.28a1,1,0,0,0,.79-.35,1.41,1.41,0,0,0,.3-1V12.49h1.85Z"/><path d="M99.3,17.79h0v.7H97.43V9.6h1.85v3.79h0a2.2,2.2,0,0,1,2-1.05,2.16,2.16,0,0,1,1.79.8,3.43,3.43,0,0,1,.63,2.18,3.73,3.73,0,0,1-.74,2.41,2.39,2.39,0,0,1-2,.9A1.9,1.9,0,0,1,99.3,17.79Zm0-2.53v.61a1.44,1.44,0,0,0,.33,1,1.1,1.1,0,0,0,.86.38,1.15,1.15,0,0,0,1-.49,2.4,2.4,0,0,0,.35-1.39,1.9,1.9,0,0,0-.32-1.16,1.09,1.09,0,0,0-.91-.42,1.2,1.2,0,0,0-.93.42A1.57,1.57,0,0,0,99.25,15.26Z"/><path d="M553.57,45.71h-2.39l-2.45-3.65a3.14,3.14,0,0,1-.22-.47h0v4.12h-1.89v-8.4h1.89v4h0c0-.11.12-.27.23-.47l2.32-3.5h2.26l-2.93,4Z"/><path d="M556.93,45.85a3.2,3.2,0,0,1-2.35-.84,3.47,3.47,0,0,1,0-4.61,3.35,3.35,0,0,1,2.41-.84,3.19,3.19,0,0,1,2.34.84,3,3,0,0,1,.85,2.23,3.16,3.16,0,0,1-.88,2.36A3.28,3.28,0,0,1,556.93,45.85ZM557,41a1.23,1.23,0,0,0-1,.45,2,2,0,0,0-.36,1.28c0,1.15.46,1.73,1.39,1.73s1.33-.6,1.33-1.78S557.88,41,557,41Z"/><path d="M567.21,45.71h-1.85V42.37c0-.93-.33-1.39-1-1.39a1,1,0,0,0-.79.37,1.44,1.44,0,0,0-.31.94v3.42h-1.85v-6h1.85v.95h0a2.12,2.12,0,0,1,1.92-1.1c1.33,0,2,.83,2,2.47Z"/><path d="M572.3,45.64a2.85,2.85,0,0,1-1.24.21,1.76,1.76,0,0,1-2-2V41.07h-1V39.71h1v-1.3l1.85-.52v1.82h1.35v1.36H571V43.5c0,.62.25.94.74.94a1.31,1.31,0,0,0,.61-.17Z"/><path d="M578.68,43.23h-3.91c.06.88.61,1.31,1.65,1.31a3.15,3.15,0,0,0,1.74-.47v1.34a4.56,4.56,0,0,1-2.16.44,2.78,2.78,0,0,1-3.06-3.05,3.27,3.27,0,0,1,.86-2.37,2.9,2.9,0,0,1,2.14-.87,2.63,2.63,0,0,1,2,.78,3,3,0,0,1,.71,2.12ZM577,42.1q0-1.29-1.05-1.29a1,1,0,0,0-.77.37,1.71,1.71,0,0,0-.39.92Z"/><path d="M585.58,45.71h-1.84V42.37c0-.93-.34-1.39-1-1.39a1,1,0,0,0-.79.37,1.38,1.38,0,0,0-.31.94v3.42h-1.85v-6h1.85v.95h0a2.13,2.13,0,0,1,1.93-1.1c1.33,0,2,.83,2,2.47Z"/><path d="M592.44,43.23h-3.92c.06.88.61,1.31,1.65,1.31a3.15,3.15,0,0,0,1.74-.47v1.34a4.56,4.56,0,0,1-2.16.44,3,3,0,0,1-2.26-.8,3.08,3.08,0,0,1-.8-2.25,3.23,3.23,0,0,1,.87-2.37,2.87,2.87,0,0,1,2.13-.87,2.63,2.63,0,0,1,2,.78,3,3,0,0,1,.72,2.12Zm-1.72-1.13c0-.86-.35-1.29-1-1.29a1,1,0,0,0-.77.37,1.65,1.65,0,0,0-.4.92Z"/><path d="M597.45,41.38a1.61,1.61,0,0,0-.78-.18,1.11,1.11,0,0,0-.94.44,1.88,1.88,0,0,0-.34,1.2v2.87h-1.85v-6h1.85v1.11h0A1.61,1.61,0,0,1,597,39.6a1.32,1.32,0,0,1,.45.07Z"/><path d="M604.51,39.71l-2.44,6.48c-.59,1.56-1.47,2.34-2.65,2.34a3.18,3.18,0,0,1-1.11-.16V46.9a1.63,1.63,0,0,0,.81.21,1,1,0,0,0,1-.67l.32-.74-2.44-6h2l1.12,3.65a4.62,4.62,0,0,1,.17.8h0a5.22,5.22,0,0,1,.19-.79l1.13-3.66Z"/><path d="M333.94,17.83H332V14.41h-3.48v3.42h-1.89V9.43h1.89v3.35H332V9.43h1.9Z"/><path d="M338.54,18a3.19,3.19,0,0,1-2.36-.85,3.05,3.05,0,0,1-.86-2.28,3.07,3.07,0,0,1,.89-2.33,3.38,3.38,0,0,1,2.41-.84,3.2,3.2,0,0,1,2.35.84,3,3,0,0,1,.85,2.23,3.2,3.2,0,0,1-.88,2.36A3.24,3.24,0,0,1,338.54,18Zm0-4.88a1.23,1.23,0,0,0-1,.45,2,2,0,0,0-.37,1.28c0,1.15.47,1.73,1.4,1.73s1.33-.59,1.33-1.78S339.48,13.1,338.59,13.1Z"/><path d="M342.62,17.67v-1.5a4.13,4.13,0,0,0,.92.41,3,3,0,0,0,.85.14,1.84,1.84,0,0,0,.78-.14.43.43,0,0,0,.28-.41.38.38,0,0,0-.12-.29,1.23,1.23,0,0,0-.34-.21,3.72,3.72,0,0,0-.44-.16,3.53,3.53,0,0,1-.46-.15,4.68,4.68,0,0,1-.63-.29,2.45,2.45,0,0,1-.46-.36,1.64,1.64,0,0,1-.28-.48,2,2,0,0,1-.1-.64,1.69,1.69,0,0,1,.22-.86,1.88,1.88,0,0,1,.59-.6,2.64,2.64,0,0,1,.84-.34,4.46,4.46,0,0,1,1-.11,5.73,5.73,0,0,1,.81.06,7.84,7.84,0,0,1,.81.18v1.43a3.37,3.37,0,0,0-.76-.31,3.55,3.55,0,0,0-.78-.1,1.9,1.9,0,0,0-.35,0,1.83,1.83,0,0,0-.28.1.53.53,0,0,0-.2.16.38.38,0,0,0-.07.22.41.41,0,0,0,.11.28.88.88,0,0,0,.28.2,1.79,1.79,0,0,0,.37.15l.42.14a6,6,0,0,1,.66.28,2.18,2.18,0,0,1,.52.36,1.58,1.58,0,0,1,.33.48,1.82,1.82,0,0,1,.11.66,1.78,1.78,0,0,1-.23.91,1.9,1.9,0,0,1-.62.61,2.89,2.89,0,0,1-.88.35,5.1,5.1,0,0,1-1,.11A5.51,5.51,0,0,1,342.62,17.67Z"/><path d="M351.92,17.76a2.75,2.75,0,0,1-1.23.22c-1.31,0-2-.68-2-2V13.19h-1V11.83h1v-1.3l1.85-.52v1.82h1.34v1.36h-1.34v2.43c0,.63.24.94.74.94a1.27,1.27,0,0,0,.6-.17Z"/><path d="M358.15,17.13h0v3.46h-1.85V11.83h1.85v.9h0a2.36,2.36,0,0,1,3.73-.25,3.45,3.45,0,0,1,.64,2.18,3.73,3.73,0,0,1-.74,2.41,2.46,2.46,0,0,1-2,.91A1.88,1.88,0,0,1,358.15,17.13Zm0-2.46v.48a1.54,1.54,0,0,0,.33,1,1.06,1.06,0,0,0,.86.39,1.15,1.15,0,0,0,1-.49,2.4,2.4,0,0,0,.35-1.39c0-1-.41-1.58-1.23-1.58a1.15,1.15,0,0,0-.93.43A1.73,1.73,0,0,0,358.1,14.67Z"/><path d="M365.57,17.83h-1.85V9h1.85Z"/><path d="M372.12,17.83h-1.75V17h0a2,2,0,0,1-1.78,1,1.9,1.9,0,0,1-1.38-.5,1.79,1.79,0,0,1-.5-1.32c0-1.16.69-1.84,2.07-2l1.63-.21c0-.66-.36-1-1.07-1a3.72,3.72,0,0,0-2,.64V12.19a4.62,4.62,0,0,1,1.06-.36,5.7,5.7,0,0,1,1.22-.15,2.27,2.27,0,0,1,2.57,2.56Zm-1.74-2.44V15l-1.09.14q-.9.12-.9.81a.66.66,0,0,0,.22.52.8.8,0,0,0,.59.2,1.1,1.1,0,0,0,.85-.36A1.29,1.29,0,0,0,370.38,15.39Z"/><path d="M377.21,17.76A2.75,2.75,0,0,1,376,18c-1.31,0-2-.68-2-2V13.19h-1V11.83h1v-1.3l1.84-.52v1.82h1.35v1.36h-1.35v2.43c0,.63.25.94.75.94a1.31,1.31,0,0,0,.6-.17Z"/><path d="M382.17,10.36a2,2,0,0,0-.69-.14c-.59,0-.89.33-.89,1v.64H382v1.36h-1.37v4.64h-1.84V13.19h-1V11.83h1v-.75a2.15,2.15,0,0,1,.67-1.65,2.52,2.52,0,0,1,1.81-.62,3.15,3.15,0,0,1,.94.11Z"/><path d="M385.71,18a3.17,3.17,0,0,1-2.35-.85,3,3,0,0,1-.86-2.28,3,3,0,0,1,.89-2.33,3.35,3.35,0,0,1,2.41-.84,3.19,3.19,0,0,1,2.34.84,3,3,0,0,1,.85,2.23,3.16,3.16,0,0,1-.88,2.36A3.24,3.24,0,0,1,385.71,18Zm.05-4.88a1.23,1.23,0,0,0-1,.45,2,2,0,0,0-.36,1.28c0,1.15.46,1.73,1.39,1.73s1.33-.59,1.33-1.78S386.66,13.1,385.76,13.1Z"/><path d="M394.1,13.5a1.59,1.59,0,0,0-.77-.18,1.11,1.11,0,0,0-.95.44A2,2,0,0,0,392,15v2.87h-1.85v-6H392v1.11h0a1.6,1.6,0,0,1,1.58-1.22,1.28,1.28,0,0,1,.45.07Z"/><path d="M404.53,17.83h-1.85V14.41c0-.87-.32-1.31-1-1.31a.88.88,0,0,0-.74.39,1.63,1.63,0,0,0-.29,1v3.36h-1.85V14.37c0-.85-.32-1.27-.94-1.27a.91.91,0,0,0-.76.38,1.65,1.65,0,0,0-.29,1v3.33H395v-6h1.85v.94h0a2.33,2.33,0,0,1,.8-.79,2.26,2.26,0,0,1,1.14-.3,1.75,1.75,0,0,1,1.74,1.12,2.21,2.21,0,0,1,2-1.12c1.31,0,2,.81,2,2.42Z"/><path d="M411.71,11.83l-2.44,6.48c-.59,1.56-1.47,2.34-2.65,2.34a3.46,3.46,0,0,1-1.11-.15V19a1.64,1.64,0,0,0,.81.22,1,1,0,0,0,1-.68l.32-.74-2.44-6h2.05l1.12,3.65a4,4,0,0,1,.16.8h0a5.52,5.52,0,0,1,.19-.79l1.13-3.66Z"/><path d="M415.94,17.83V9.43h3c3,0,4.48,1.36,4.48,4.09a4.13,4.13,0,0,1-1.23,3.14,4.5,4.5,0,0,1-3.25,1.17ZM417.83,11v5.32h.94a2.53,2.53,0,0,0,1.93-.73,2.81,2.81,0,0,0,.7-2,2.55,2.55,0,0,0-.69-1.89,2.64,2.64,0,0,0-1.95-.69Z"/><path d="M427.47,18a3.19,3.19,0,0,1-2.36-.85,3.05,3.05,0,0,1-.86-2.28,3.07,3.07,0,0,1,.89-2.33,3.38,3.38,0,0,1,2.41-.84,3.16,3.16,0,0,1,2.34.84,3,3,0,0,1,.85,2.23,3.19,3.19,0,0,1-.87,2.36A3.27,3.27,0,0,1,427.47,18Zm0-4.88a1.22,1.22,0,0,0-1,.45,2,2,0,0,0-.37,1.28c0,1.15.47,1.73,1.4,1.73s1.33-.59,1.33-1.78S428.41,13.1,427.51,13.1Z"/><path d="M436.49,17.61a3.68,3.68,0,0,1-1.81.37,3.06,3.06,0,0,1-2.24-.84,2.89,2.89,0,0,1-.85-2.16,3.21,3.21,0,0,1,.91-2.42,3.44,3.44,0,0,1,2.46-.88,3.24,3.24,0,0,1,1.53.28v1.57a2.17,2.17,0,0,0-1.29-.43,1.82,1.82,0,0,0-1.29,3,1.63,1.63,0,0,0,1.23.46,2.43,2.43,0,0,0,1.35-.44Z"/><path d="M443.72,17.83H441.5l-1.92-3h0v3H437.7V9h1.86V14.6h0l1.79-2.77h2.19l-2.15,2.82Z"/><path d="M449.63,15.36h-3.91c.06.87.61,1.3,1.65,1.3a3.15,3.15,0,0,0,1.74-.47v1.34a4.57,4.57,0,0,1-2.17.45,2.79,2.79,0,0,1-3.05-3.06,3.19,3.19,0,0,1,.86-2.36,2.87,2.87,0,0,1,2.14-.88,2.63,2.63,0,0,1,2,.78,3.05,3.05,0,0,1,.71,2.12Zm-1.71-1.14q0-1.29-1.05-1.29a1,1,0,0,0-.77.37,1.67,1.67,0,0,0-.39.92Z"/><path d="M454.65,13.5a1.61,1.61,0,0,0-.78-.18,1.1,1.1,0,0,0-.94.44,1.9,1.9,0,0,0-.34,1.2v2.87h-1.85v-6h1.85v1.11h0a1.6,1.6,0,0,1,1.58-1.22,1.35,1.35,0,0,1,.46.07Z"/></svg>