<svg xmlns="http://www.w3.org/2000/svg" viewBox="0 0 407 155"><defs><style>.cls-1{fill:#fff;}.cls-2,.cls-5,.cls-9{fill:#3c3c41;}.cls-2{opacity:0.1;}.cls-14,.cls-2,.cls-3,.cls-5,.cls-6,.cls-7{isolation:isolate;}.cls-10,.cls-3{fill:#50e6ff;}.cls-3{opacity:0.05;}.cls-15,.cls-4,.cls-8{fill:none;}.cls-4{stroke:#0072c6;}.cls-15,.cls-4{stroke-width:0.5px;}.cls-5{opacity:0.15;}.cls-6,.cls-7{fill:#0072c6;}.cls-6{opacity:0.35;}.cls-7{opacity:0.45;}.cls-8{stroke:#3c3c41;}.cls-11{fill:#0072c5;}.cls-12{fill:#3bcaf4;}.cls-13{fill:#0078d4;}.cls-14{fill:#75757a;opacity:0.5;}.cls-15{stroke:#231f20;}</style></defs><title>OJ104601304</title><g id="Layer_1" data-name="Layer 1"><g id="Shapes"><g id="Group"><rect id="Rectangle-path" class="cls-1" width="406.25" height="155"/><rect class="cls-2" width="406.25" height="155"/></g><rect class="cls-1" x="5.63" y="25" width="395" height="125"/><rect class="cls-3" x="5.63" y="25" width="395" height="125"/><rect class="cls-4" x="5.63" y="25" width="395" height="125"/><rect class="cls-1" x="16.25" y="55" width="145" height="80"/><rect class="cls-5" x="16.25" y="55" width="145" height="80"/><rect class="cls-1" x="26.25" y="90" width="125" height="35"/><rect class="cls-6" x="26.25" y="90" width="125" height="35"/><rect class="cls-1" x="231.25" y="55" width="125" height="35"/><rect class="cls-7" x="231.25" y="55" width="125" height="35"/><path id="Shape" class="cls-8" d="M151.25,110h35a5,5,0,0,0,5-5V77.5a5,5,0,0,1,5-5h29.62"/><polygon class="cls-9" points="224.77 76.24 231.25 72.5 224.77 68.76 224.77 76.24"/><path class="cls-8" d="M259.28,95.38v14.24"/><polygon class="cls-9" points="255.54 96.48 259.28 90 263.02 96.48 255.54 96.48"/><polygon class="cls-9" points="255.54 108.52 259.28 115 263.02 108.52 255.54 108.52"/><path class="cls-10" d="M248.32,120v21c0,2.16,4.87,4,10.9,4V120Z"/><path class="cls-11" d="M259.1,145h.18c6,0,10.9-1.76,10.9-4V120H259.1Z"/><path class="cls-12" d="M259,145h.17c6.09,0,11.07-1.76,11.07-4V119.93H259Z"/><path class="cls-1" d="M270.17,120c0,2.17-4.86,4-10.89,4s-10.9-1.76-10.9-4,4.86-4,10.9-4S270.17,117.82,270.17,120Z"/><path class="cls-13" d="M268,119.75c0,1.46-3.87,2.63-8.67,2.63s-8.67-1.17-8.67-2.63,3.86-2.64,8.67-2.64S268,118.28,268,119.75Z"/><path class="cls-12" d="M266.13,121.33c1.12-.47,1.82-1,1.82-1.58,0-1.47-3.87-2.64-8.67-2.64s-8.67,1.17-8.67,2.64c0,.58.7,1.17,1.81,1.58a20,20,0,0,1,6.86-1A21,21,0,0,1,266.13,121.33Z"/><path class="cls-8" d="M329.6,95.38v14.24"/><polygon class="cls-9" points="325.86 96.48 329.6 90 333.34 96.48 325.86 96.48"/><polygon class="cls-9" points="325.86 108.52 329.6 115 333.34 108.52 325.86 108.52"/><rect class="cls-1" x="313.31" y="124.52" width="32.59" height="5.93"/><rect class="cls-14" x="313.31" y="124.52" width="32.59" height="5.93"/><rect class="cls-15" x="313.31" y="124.52" width="32.59" height="5.93"/><rect class="cls-1" x="313.31" y="118.5" width="32.59" height="5.93"/><rect class="cls-14" x="313.31" y="118.5" width="32.59" height="5.93"/><rect class="cls-15" x="313.31" y="118.5" width="32.59" height="5.93"/><rect class="cls-1" x="313.31" y="136.57" width="32.59" height="5.93"/><rect class="cls-14" x="313.31" y="136.57" width="32.59" height="5.93"/><rect class="cls-15" x="313.31" y="136.57" width="32.59" height="5.93"/><rect class="cls-1" x="313.31" y="130.55" width="32.59" height="5.93"/><rect class="cls-14" x="313.31" y="130.55" width="32.59" height="5.93"/><rect class="cls-15" x="313.31" y="130.55" width="32.59" height="5.93"/></g></g><g id="text"><path d="M134.19,15.77V13.9a3.59,3.59,0,0,0,2.32.85,2.83,2.83,0,0,0,.62-.06,1.32,1.32,0,0,0,.45-.18.61.61,0,0,0,.26-.27.64.64,0,0,0,.09-.34.71.71,0,0,0-.14-.43,1.47,1.47,0,0,0-.38-.36,3.87,3.87,0,0,0-.58-.32l-.72-.31a3.65,3.65,0,0,1-1.47-1,2.21,2.21,0,0,1-.48-1.43,2.36,2.36,0,0,1,.26-1.13,2.31,2.31,0,0,1,.72-.77,2.93,2.93,0,0,1,1.05-.45,5.2,5.2,0,0,1,1.27-.15,8,8,0,0,1,1.16.08,4.85,4.85,0,0,1,.93.25V9.63a2.28,2.28,0,0,0-.46-.26,2.8,2.8,0,0,0-.51-.18,3.21,3.21,0,0,0-.52-.11,3,3,0,0,0-.5,0,2.58,2.58,0,0,0-.58.06,1.32,1.32,0,0,0-.45.18.88.88,0,0,0-.28.26.62.62,0,0,0-.1.35.7.7,0,0,0,.11.38,1.38,1.38,0,0,0,.32.32,3.16,3.16,0,0,0,.5.29l.66.29a6.86,6.86,0,0,1,.9.45,3.18,3.18,0,0,1,.69.54,2.15,2.15,0,0,1,.44.68,2.48,2.48,0,0,1,.15.89,2.52,2.52,0,0,1-.26,1.19,2.24,2.24,0,0,1-.73.77,2.94,2.94,0,0,1-1.06.42,5.85,5.85,0,0,1-1.28.13,8,8,0,0,1-1.32-.11A4,4,0,0,1,134.19,15.77Z"/><path d="M146.54,10.1l-2.44,6.48c-.58,1.56-1.47,2.33-2.65,2.33a3.35,3.35,0,0,1-1.1-.15V17.29a1.57,1.57,0,0,0,.8.21,1,1,0,0,0,1-.67l.32-.75-2.44-6h2l1.12,3.65a4.62,4.62,0,0,1,.17.8h0a6.79,6.79,0,0,1,.19-.79l1.14-3.66Z"/><path d="M146.89,15.94v-1.5a3.82,3.82,0,0,0,.91.41,3,3,0,0,0,.86.13,1.86,1.86,0,0,0,.78-.13.42.42,0,0,0,.28-.41.35.35,0,0,0-.13-.29,1,1,0,0,0-.33-.21,3.72,3.72,0,0,0-.44-.16c-.16,0-.32-.1-.46-.16a4.72,4.72,0,0,1-.63-.28,1.67,1.67,0,0,1-.46-.34,1.31,1.31,0,0,1-.28-.45,1.67,1.67,0,0,1-.1-.63,1.54,1.54,0,0,1,.22-.85,1.67,1.67,0,0,1,.59-.56,2.66,2.66,0,0,1,.83-.32,5.36,5.36,0,0,1,1-.09h2.64V8.8L154,8.27V10.1h1.35v1.36H154v2.43c0,.62.25.93.74.93a1.2,1.2,0,0,0,.61-.17V16a2.85,2.85,0,0,1-1.24.21,1.77,1.77,0,0,1-2-2V11.46h-2.91a1.29,1.29,0,0,0-.29,0,.39.39,0,0,0-.19.1.24.24,0,0,0-.07.19.34.34,0,0,0,.11.24.91.91,0,0,0,.27.18,3.35,3.35,0,0,0,.38.14l.41.14a4.66,4.66,0,0,1,.67.28,1.94,1.94,0,0,1,.51.36,1.15,1.15,0,0,1,.33.48,1.6,1.6,0,0,1,.12.65,1.68,1.68,0,0,1-.24.92,1.78,1.78,0,0,1-.61.61,2.7,2.7,0,0,1-.89.34,4.42,4.42,0,0,1-1,.11A5.4,5.4,0,0,1,146.89,15.94Z"/><path d="M161.79,13.62h-3.91c.06.87.61,1.31,1.64,1.31a3.24,3.24,0,0,0,1.74-.47V15.8a4.63,4.63,0,0,1-2.16.44,3,3,0,0,1-2.25-.8,3,3,0,0,1-.81-2.25,3.2,3.2,0,0,1,.87-2.37A2.9,2.9,0,0,1,159,10a2.62,2.62,0,0,1,2,.78,3,3,0,0,1,.72,2.11Zm-1.72-1.13c0-.86-.34-1.29-1-1.29a1,1,0,0,0-.77.37,1.58,1.58,0,0,0-.39.92Z"/><path d="M172.42,16.1h-1.85V12.67c0-.87-.32-1.3-1-1.3a.88.88,0,0,0-.74.39,1.63,1.63,0,0,0-.29,1V16.1h-1.85V12.64c0-.85-.31-1.27-.94-1.27a.9.9,0,0,0-.76.37,1.65,1.65,0,0,0-.29,1V16.1h-1.85v-6h1.85V11h0a2.22,2.22,0,0,1,.8-.78,2.26,2.26,0,0,1,1.14-.3,1.74,1.74,0,0,1,1.74,1.12,2.2,2.2,0,0,1,2-1.12c1.31,0,2,.8,2,2.41Z"/><path d="M180.05,16.24a3.2,3.2,0,0,1-2.35-.84,3,3,0,0,1-.86-2.28,3,3,0,0,1,.89-2.33,3.37,3.37,0,0,1,2.41-.84,3.19,3.19,0,0,1,2.34.84,3,3,0,0,1,.85,2.22,3.17,3.17,0,0,1-.88,2.37A3.28,3.28,0,0,1,180.05,16.24Zm0-4.87a1.23,1.23,0,0,0-1,.45,2,2,0,0,0-.36,1.28c0,1.15.46,1.72,1.39,1.72s1.33-.59,1.33-1.77S181,11.37,180.1,11.37Z"/><path d="M186.41,15.4h0v3.46h-1.85V10.1h1.85V11h0A2.16,2.16,0,0,1,188.33,10a2.2,2.2,0,0,1,1.81.8,3.43,3.43,0,0,1,.63,2.18,3.68,3.68,0,0,1-.74,2.4,2.4,2.4,0,0,1-2,.91A1.87,1.87,0,0,1,186.41,15.4Zm-.06-2.46v.48a1.52,1.52,0,0,0,.33,1,1.08,1.08,0,0,0,.86.39,1.14,1.14,0,0,0,1-.48,2.32,2.32,0,0,0,.35-1.39c0-1-.41-1.58-1.23-1.58a1.15,1.15,0,0,0-.93.43A1.73,1.73,0,0,0,186.35,12.94Z"/><path d="M197.36,13.62h-3.91c.06.87.61,1.31,1.65,1.31a3.24,3.24,0,0,0,1.74-.47V15.8a4.7,4.7,0,0,1-2.17.44,3.06,3.06,0,0,1-2.25-.8,3,3,0,0,1-.8-2.25,3.2,3.2,0,0,1,.86-2.37,2.9,2.9,0,0,1,2.14-.87,2.63,2.63,0,0,1,2,.78,3,3,0,0,1,.71,2.11Zm-1.71-1.13q0-1.29-1.05-1.29a1,1,0,0,0-.77.37,1.64,1.64,0,0,0-.39.92Z"/><path d="M202.38,11.77a1.61,1.61,0,0,0-.78-.19,1.1,1.1,0,0,0-.94.45,1.88,1.88,0,0,0-.34,1.2V16.1h-1.86v-6h1.86v1.11h0A1.6,1.6,0,0,1,201.92,10a1.14,1.14,0,0,1,.46.07Z"/><path d="M208.23,16.1h-1.75v-.87h0a2,2,0,0,1-1.79,1,1.85,1.85,0,0,1-1.37-.49,1.76,1.76,0,0,1-.51-1.32c0-1.17.69-1.84,2.07-2l1.63-.22c0-.65-.35-1-1.06-1a3.59,3.59,0,0,0-2,.64v-1.4a4.57,4.57,0,0,1,1.05-.35,5.71,5.71,0,0,1,1.23-.15,2.26,2.26,0,0,1,2.56,2.56Zm-1.74-2.44v-.41l-1.09.15q-.9.11-.9.81a.67.67,0,0,0,.22.52.86.86,0,0,0,.59.2,1.08,1.08,0,0,0,.85-.36A1.29,1.29,0,0,0,206.49,13.66Z"/><path d="M214.24,15.88a3.66,3.66,0,0,1-1.81.36,3,3,0,0,1-2.23-.84,2.87,2.87,0,0,1-.86-2.16,3.19,3.19,0,0,1,.92-2.41,3.38,3.38,0,0,1,2.45-.88,3.07,3.07,0,0,1,1.53.28V11.8a2.07,2.07,0,0,0-1.29-.43,1.7,1.7,0,0,0-1.26.46,1.75,1.75,0,0,0-.47,1.29,1.69,1.69,0,0,0,.45,1.25,1.62,1.62,0,0,0,1.22.45,2.42,2.42,0,0,0,1.35-.43Z"/><path d="M221.17,10.1l-2.44,6.48c-.58,1.56-1.47,2.33-2.65,2.33a3.39,3.39,0,0,1-1.1-.15V17.29a1.57,1.57,0,0,0,.8.21,1,1,0,0,0,1-.67l.31-.75-2.44-6h2.06l1.11,3.65a4.62,4.62,0,0,1,.17.8h0a5.38,5.38,0,0,1,.2-.79l1.13-3.66Z"/><path d="M223.77,16a3.28,3.28,0,0,1-.65,2.13,2.29,2.29,0,0,1-1.88.79,2.48,2.48,0,0,1-.88-.17V17.29a1.43,1.43,0,0,0,.68.21c.58,0,.87-.45.87-1.37v-6h1.86Zm-.92-6.84a1.12,1.12,0,0,1-.77-.28.89.89,0,0,1-.29-.68.84.84,0,0,1,.29-.68,1.11,1.11,0,0,1,.77-.27,1.1,1.1,0,0,1,.77.27.85.85,0,0,1,.3.68.89.89,0,0,1-.3.69A1.1,1.1,0,0,1,222.85,9.15Z"/><path d="M231.12,16.1h-1.85V12.76c0-.93-.33-1.39-1-1.39a1,1,0,0,0-.79.37,1.38,1.38,0,0,0-.31.93V16.1h-1.86v-6h1.86v1h0a2.1,2.1,0,0,1,1.93-1.1c1.33,0,2,.82,2,2.47Z"/><path d="M238.3,10.1l-2.44,6.48c-.59,1.56-1.47,2.33-2.65,2.33a3.46,3.46,0,0,1-1.11-.15V17.29a1.63,1.63,0,0,0,.81.21,1,1,0,0,0,1-.67l.32-.75-2.44-6h2.05L235,13.75a4.62,4.62,0,0,1,.17.8h0a5.22,5.22,0,0,1,.19-.79l1.13-3.66Z"/><path d="M248.11,16.1h-1.84V12.69c0-.88-.32-1.32-1-1.32a1,1,0,0,0-.79.37,1.38,1.38,0,0,0-.31.93V16.1h-1.85V7.21h1.85V11h0a2.09,2.09,0,0,1,1.84-1q2,0,2,2.46Z"/><path d="M252.44,16.24a3.23,3.23,0,0,1-2.36-.84,3,3,0,0,1-.86-2.28,3.07,3.07,0,0,1,.89-2.33,3.37,3.37,0,0,1,2.41-.84,3.19,3.19,0,0,1,2.34.84,3,3,0,0,1,.85,2.22,3.17,3.17,0,0,1-.88,2.37A3.27,3.27,0,0,1,252.44,16.24Zm0-4.87a1.24,1.24,0,0,0-1,.45,2,2,0,0,0-.36,1.28c0,1.15.46,1.72,1.39,1.72s1.33-.59,1.33-1.77S253.38,11.37,252.48,11.37Z"/><path d="M256.52,15.94v-1.5a3.66,3.66,0,0,0,.91.41,3,3,0,0,0,.86.13,1.86,1.86,0,0,0,.78-.13.42.42,0,0,0,.28-.41.35.35,0,0,0-.13-.29,1.33,1.33,0,0,0-.33-.21l-.44-.16-.47-.16a5.19,5.19,0,0,1-.62-.28,1.67,1.67,0,0,1-.46-.34,1.18,1.18,0,0,1-.28-.45,1.67,1.67,0,0,1-.1-.63,1.54,1.54,0,0,1,.22-.85,1.67,1.67,0,0,1,.59-.56,2.66,2.66,0,0,1,.83-.32,5.25,5.25,0,0,1,1-.09h2.65V8.8l1.85-.53V10.1H265v1.36h-1.35v2.43c0,.62.25.93.74.93a1.2,1.2,0,0,0,.61-.17V16a2.85,2.85,0,0,1-1.24.21,1.77,1.77,0,0,1-2-2V11.46h-2.91a1.29,1.29,0,0,0-.29,0,.39.39,0,0,0-.19.1.24.24,0,0,0-.07.19.34.34,0,0,0,.11.24.91.91,0,0,0,.27.18,2.77,2.77,0,0,0,.38.14l.41.14a4.66,4.66,0,0,1,.67.28,1.94,1.94,0,0,1,.51.36,1.25,1.25,0,0,1,.33.48,1.6,1.6,0,0,1,.12.65,1.68,1.68,0,0,1-.24.92,1.87,1.87,0,0,1-.61.61,2.7,2.7,0,0,1-.89.34,4.42,4.42,0,0,1-1,.11A5.4,5.4,0,0,1,256.52,15.94Z"/><path d="M271,16.1h-1.75v-.87h0a2,2,0,0,1-1.79,1,1.89,1.89,0,0,1-1.38-.49,1.79,1.79,0,0,1-.5-1.32c0-1.17.69-1.84,2.07-2l1.63-.22c0-.65-.35-1-1.07-1a3.58,3.58,0,0,0-2,.64v-1.4a4.57,4.57,0,0,1,1.05-.35,5.71,5.71,0,0,1,1.23-.15A2.26,2.26,0,0,1,271,12.51Zm-1.74-2.44v-.41l-1.09.15q-.9.11-.9.81a.67.67,0,0,0,.22.52.86.86,0,0,0,.59.2,1.1,1.1,0,0,0,.85-.36A1.29,1.29,0,0,0,269.28,13.66Z"/><path d="M132.67,43V41.11a3.52,3.52,0,0,0,1.1.64A3.4,3.4,0,0,0,135,42a2.72,2.72,0,0,0,.62-.07,1.32,1.32,0,0,0,.45-.18.7.7,0,0,0,.27-.27.62.62,0,0,0,.08-.33.68.68,0,0,0-.14-.44,1.47,1.47,0,0,0-.38-.36,3.43,3.43,0,0,0-.58-.32l-.72-.31a3.7,3.7,0,0,1-1.47-1,2.19,2.19,0,0,1-.48-1.43,2.25,2.25,0,0,1,.27-1.13,2.18,2.18,0,0,1,.71-.77,3.09,3.09,0,0,1,1-.45,5.21,5.21,0,0,1,1.27-.14,7.94,7.94,0,0,1,1.16.07,5.16,5.16,0,0,1,.94.25v1.75a3.42,3.42,0,0,0-.46-.26,5.17,5.17,0,0,0-.51-.18,3.58,3.58,0,0,0-.53-.11,4.4,4.4,0,0,0-.49,0,2.68,2.68,0,0,0-.59.06,1.69,1.69,0,0,0-.45.18.88.88,0,0,0-.28.26.69.69,0,0,0,0,.73,1.38,1.38,0,0,0,.32.32,3.69,3.69,0,0,0,.5.29c.19.1.42.19.66.3a8.62,8.62,0,0,1,.91.44,3.75,3.75,0,0,1,.69.54,2.12,2.12,0,0,1,.43.68,2.29,2.29,0,0,1,.16.9,2.37,2.37,0,0,1-.27,1.18,2.22,2.22,0,0,1-.72.77,3.2,3.2,0,0,1-1.07.43,6.55,6.55,0,0,1-1.28.12,6.88,6.88,0,0,1-1.31-.11A4.15,4.15,0,0,1,132.67,43Z"/><path d="M145,40.84h-3.92c.07.87.62,1.3,1.65,1.3a3.15,3.15,0,0,0,1.74-.47V43a4.51,4.51,0,0,1-2.16.44,3,3,0,0,1-2.26-.8,3.08,3.08,0,0,1-.8-2.25,3.23,3.23,0,0,1,.87-2.37,2.9,2.9,0,0,1,2.13-.87,2.62,2.62,0,0,1,2,.78,3,3,0,0,1,.72,2.12Zm-1.72-1.14c0-.86-.35-1.29-1-1.29a1,1,0,0,0-.77.37,1.65,1.65,0,0,0-.4.92Z"/><path d="M150,39a1.59,1.59,0,0,0-.77-.18,1.11,1.11,0,0,0-.95.44,2,2,0,0,0-.34,1.2v2.87h-1.85v-6h1.85v1.11h0a1.6,1.6,0,0,1,1.58-1.22,1.28,1.28,0,0,1,.45.07Z"/><path d="M160,37.31l-1.73,6h-2l-.88-3.52a3.06,3.06,0,0,1-.1-.77h0a3.92,3.92,0,0,1-.12.75l-.94,3.54h-1.93l-1.69-6h1.89l.82,3.91a5.2,5.2,0,0,1,.09.67h0a3.92,3.92,0,0,1,.1-.69l1-3.89h1.77l.92,3.91a5,5,0,0,1,.08.68h0c0-.22.05-.45.09-.68l.78-3.91Z"/><path d="M166.18,40.84h-3.92c.06.87.61,1.3,1.65,1.3a3.15,3.15,0,0,0,1.74-.47V43a4.56,4.56,0,0,1-2.16.44,3,3,0,0,1-2.26-.8,3.08,3.08,0,0,1-.8-2.25A3.23,3.23,0,0,1,161.3,38a2.87,2.87,0,0,1,2.13-.87,2.63,2.63,0,0,1,2,.78,3,3,0,0,1,.72,2.12Zm-1.72-1.14c0-.86-.35-1.29-1-1.29a1,1,0,0,0-.77.37,1.65,1.65,0,0,0-.4.92Z"/><path d="M171.19,39a1.61,1.61,0,0,0-.78-.18,1.11,1.11,0,0,0-.94.44,1.9,1.9,0,0,0-.34,1.2v2.87h-1.85v-6h1.85v1.11h0a1.61,1.61,0,0,1,1.58-1.22,1.35,1.35,0,0,1,.46.07Z"/><path d="M177.24,42.61h0v3.46h-1.86V37.31h1.86v.9h0A2.36,2.36,0,0,1,181,38a3.43,3.43,0,0,1,.63,2.18,3.67,3.67,0,0,1-.74,2.41,2.42,2.42,0,0,1-2,.9A1.87,1.87,0,0,1,177.24,42.61Zm-.05-2.46v.48a1.57,1.57,0,0,0,.32,1,1.06,1.06,0,0,0,.87.4,1.16,1.16,0,0,0,1-.49,2.4,2.4,0,0,0,.35-1.39c0-1-.41-1.58-1.23-1.58a1.15,1.15,0,0,0-.93.43A1.73,1.73,0,0,0,177.19,40.15Z"/><path d="M184.66,43.31h-1.85V34.43h1.85Z"/><path d="M191.21,43.31h-1.75v-.86h0a2,2,0,0,1-1.78,1,1.86,1.86,0,0,1-1.38-.49,1.79,1.79,0,0,1-.5-1.32c0-1.17.69-1.84,2.07-2l1.63-.21c0-.66-.36-1-1.07-1a3.64,3.64,0,0,0-2,.64V37.67a4.62,4.62,0,0,1,1.06-.36,5.63,5.63,0,0,1,1.22-.15,2.27,2.27,0,0,1,2.57,2.56Zm-1.74-2.44v-.4l-1.09.14q-.9.12-.9.81a.69.69,0,0,0,.21.52.89.89,0,0,0,.6.2,1.1,1.1,0,0,0,.85-.36A1.29,1.29,0,0,0,189.47,40.87Z"/><path d="M196.3,43.24a2.82,2.82,0,0,1-1.24.21c-1.3,0-1.95-.67-1.95-2V38.67h-1V37.31h1V36l1.84-.52v1.82h1.35v1.36H195V41.1c0,.62.25.94.75.94a1.31,1.31,0,0,0,.6-.17Z"/><path d="M201.26,35.84a2,2,0,0,0-.69-.14c-.59,0-.89.32-.89,1v.64h1.37v1.36h-1.37v4.64h-1.85V38.67h-1V37.31h1v-.75a2.18,2.18,0,0,1,.67-1.65,2.55,2.55,0,0,1,1.82-.63,3.16,3.16,0,0,1,.94.12Z"/><path d="M204.8,43.45a3.24,3.24,0,0,1-2.36-.84,3.46,3.46,0,0,1,0-4.61,3.34,3.34,0,0,1,2.4-.84,3.2,3.2,0,0,1,2.35.84,3,3,0,0,1,.85,2.23,3.2,3.2,0,0,1-.88,2.36A3.24,3.24,0,0,1,204.8,43.45Zm0-4.87a1.23,1.23,0,0,0-1,.45,2,2,0,0,0-.36,1.28c0,1.15.46,1.73,1.39,1.73s1.33-.6,1.33-1.78S205.74,38.58,204.85,38.58Z"/><path d="M213.19,39a1.61,1.61,0,0,0-.78-.18,1.11,1.11,0,0,0-.94.44,1.9,1.9,0,0,0-.34,1.2v2.87h-1.85v-6h1.85v1.11h0a1.61,1.61,0,0,1,1.58-1.22,1.35,1.35,0,0,1,.46.07Z"/><path d="M223.62,43.31h-1.85V39.89c0-.87-.32-1.31-1-1.31a.9.9,0,0,0-.75.39,1.62,1.62,0,0,0-.28,1v3.36h-1.85V39.85c0-.85-.32-1.27-1-1.27a.91.91,0,0,0-.76.37,1.65,1.65,0,0,0-.28,1v3.34h-1.85v-6h1.85v.94h0a2.27,2.27,0,0,1,1.94-1.09,1.72,1.72,0,0,1,1.74,1.12,2.22,2.22,0,0,1,2-1.12c1.3,0,2,.81,2,2.42Z"/><path d="M230.79,37.31l-2.43,6.48c-.59,1.56-1.47,2.34-2.65,2.34A3.18,3.18,0,0,1,224.6,46V44.5a1.59,1.59,0,0,0,.8.21,1,1,0,0,0,1-.67l.31-.74-2.43-6h2.05L227.45,41a4.91,4.91,0,0,1,.16.8h0a5.38,5.38,0,0,1,.2-.79L229,37.31Z"/><path d="M235,43.31v-8.4h3q4.47,0,4.47,4.09a4.14,4.14,0,0,1-1.22,3.14A4.5,4.5,0,0,1,238,43.31Zm1.89-6.86v5.32h.94a2.51,2.51,0,0,0,1.93-.74,2.78,2.78,0,0,0,.7-2,2.51,2.51,0,0,0-.69-1.88,2.67,2.67,0,0,0-2-.69Z"/><path d="M246.55,43.45a3.2,3.2,0,0,1-2.35-.84,3.47,3.47,0,0,1,0-4.61,3.37,3.37,0,0,1,2.41-.84A3.19,3.19,0,0,1,249,38a3,3,0,0,1,.85,2.23,3.16,3.16,0,0,1-.88,2.36A3.24,3.24,0,0,1,246.55,43.45Zm0-4.87a1.23,1.23,0,0,0-1,.45,2,2,0,0,0-.36,1.28c0,1.15.46,1.73,1.39,1.73s1.33-.6,1.33-1.78S247.5,38.58,246.6,38.58Z"/><path d="M255.58,43.09a3.69,3.69,0,0,1-1.81.36,3.06,3.06,0,0,1-2.24-.83,2.91,2.91,0,0,1-.86-2.17,3.21,3.21,0,0,1,.92-2.41,3.42,3.42,0,0,1,2.45-.88,3.26,3.26,0,0,1,1.54.28V39a2.12,2.12,0,0,0-1.3-.43,1.67,1.67,0,0,0-1.26.47,1.72,1.72,0,0,0-.47,1.28,1.69,1.69,0,0,0,.45,1.25,1.62,1.62,0,0,0,1.22.46,2.44,2.44,0,0,0,1.36-.44Z"/><path d="M262.8,43.31h-2.22l-1.91-3h0v3h-1.85V34.43h1.85v5.65h0l1.78-2.77h2.2l-2.15,2.82Z"/><path d="M268.72,40.84h-3.91c.06.87.61,1.3,1.64,1.3a3.15,3.15,0,0,0,1.74-.47V43a4.51,4.51,0,0,1-2.16.44,3,3,0,0,1-2.25-.8A3,3,0,0,1,263,40.4a3.23,3.23,0,0,1,.87-2.37,2.9,2.9,0,0,1,2.13-.87,2.62,2.62,0,0,1,2,.78,3,3,0,0,1,.72,2.12ZM267,39.7c0-.86-.34-1.29-1-1.29a1,1,0,0,0-.77.37,1.65,1.65,0,0,0-.4.92Z"/><path d="M273.74,39a1.66,1.66,0,0,0-.78-.18,1.11,1.11,0,0,0-.95.44,2,2,0,0,0-.34,1.2v2.87h-1.85v-6h1.85v1.11h0a1.6,1.6,0,0,1,1.58-1.22,1.39,1.39,0,0,1,.46.07Z"/><path d="M57,108.57a3.8,3.8,0,0,1-.63,2.33,2.21,2.21,0,0,1-2.5.69v-1a1.31,1.31,0,0,0,.82.23c.88,0,1.33-.75,1.33-2.25v-5.41h1Z"/><path d="M63.34,111.59h-1v-.94h0a2,2,0,0,1-1.84,1.08,1.93,1.93,0,0,1-1.4-.48A1.62,1.62,0,0,1,58.6,110q0-1.68,2-1.95l1.8-.26c0-1-.41-1.53-1.24-1.53a3,3,0,0,0-2,.74v-1a3.68,3.68,0,0,1,2-.56c1.41,0,2.12.74,2.12,2.23Zm-1-3-1.45.2a2.35,2.35,0,0,0-1,.33,1,1,0,0,0-.34.84.93.93,0,0,0,.32.72,1.18,1.18,0,0,0,.83.28,1.55,1.55,0,0,0,1.18-.5,1.81,1.81,0,0,0,.47-1.27Zm.67,3c-.58.55-.88,1-.88,1.3a.36.36,0,0,0,.4.41.72.72,0,0,0,.33-.07v.62a1.26,1.26,0,0,1-.48.08,1.09,1.09,0,0,1-.72-.23.83.83,0,0,1-.27-.65,2,2,0,0,1,.92-1.46Z"/><path d="M70.27,111.59h-1v-1h0a2.42,2.42,0,0,1-3.87.35,3.26,3.26,0,0,1-.68-2.19,3.6,3.6,0,0,1,.75-2.39,2.47,2.47,0,0,1,2-.89,1.93,1.93,0,0,1,1.8,1h0V102.7h1Zm-1-2.72V108a1.7,1.7,0,0,0-.48-1.23,1.61,1.61,0,0,0-1.22-.51,1.64,1.64,0,0,0-1.38.65,2.79,2.79,0,0,0-.51,1.78,2.51,2.51,0,0,0,.49,1.64,1.57,1.57,0,0,0,1.29.6,1.68,1.68,0,0,0,1.31-.58A2.2,2.2,0,0,0,69.31,108.87Z"/><path d="M75.34,106.56a1.14,1.14,0,0,0-.72-.19,1.23,1.23,0,0,0-1,.58,2.62,2.62,0,0,0-.41,1.58v3.06h-1v-6h1v1.23h0a2.17,2.17,0,0,1,.63-1,1.44,1.44,0,0,1,.94-.35,1.65,1.65,0,0,1,.57.08Z"/><path d="M78.9,111.73a2.79,2.79,0,0,1-2.13-.84,3.12,3.12,0,0,1-.79-2.23,3.27,3.27,0,0,1,.82-2.37,3,3,0,0,1,2.24-.84,2.68,2.68,0,0,1,2.09.82,3.29,3.29,0,0,1,.75,2.29,3.21,3.21,0,0,1-.81,2.3A2.82,2.82,0,0,1,78.9,111.73Zm.07-5.48a1.84,1.84,0,0,0-1.47.63,2.59,2.59,0,0,0-.54,1.74,2.41,2.41,0,0,0,.55,1.68,1.85,1.85,0,0,0,1.46.62,1.74,1.74,0,0,0,1.43-.61,2.62,2.62,0,0,0,.5-1.71,2.71,2.71,0,0,0-.5-1.74A1.77,1.77,0,0,0,79,106.25Z"/><path d="M90.89,105.86l-3.55,4.91h3.51v.82H85.93v-.3l3.55-4.88H86.26v-.82h4.63Z"/><path d="M100.4,111.59h-1v-3.46c0-1.25-.47-1.88-1.4-1.88a1.51,1.51,0,0,0-1.18.55,2,2,0,0,0-.48,1.39v3.4h-1V102.7h1v3.88h0a2.17,2.17,0,0,1,2-1.13c1.35,0,2,.81,2,2.44Z"/><path d="M104.72,111.73a2.79,2.79,0,0,1-2.13-.84,3.12,3.12,0,0,1-.79-2.23,3.27,3.27,0,0,1,.83-2.37,3,3,0,0,1,2.23-.84,2.68,2.68,0,0,1,2.09.82,3.25,3.25,0,0,1,.76,2.29,3.18,3.18,0,0,1-.82,2.3A2.82,2.82,0,0,1,104.72,111.73Zm.07-5.48a1.84,1.84,0,0,0-1.47.63,2.59,2.59,0,0,0-.54,1.74,2.46,2.46,0,0,0,.55,1.68,1.85,1.85,0,0,0,1.46.62,1.73,1.73,0,0,0,1.43-.61,2.62,2.62,0,0,0,.5-1.71,2.71,2.71,0,0,0-.5-1.74A1.76,1.76,0,0,0,104.79,106.25Z"/><path d="M116.18,111.53a1.9,1.9,0,0,1-.89.18c-1.05,0-1.58-.58-1.58-1.75v-3.55h-2.65a3.68,3.68,0,0,0-.49,0,1.61,1.61,0,0,0-.37.12.73.73,0,0,0-.24.22.55.55,0,0,0-.09.32.8.8,0,0,0,.09.39.83.83,0,0,0,.25.28,1.67,1.67,0,0,0,.4.22l.53.22c.27.1.5.21.71.31a2,2,0,0,1,.54.37,1.35,1.35,0,0,1,.35.47,1.62,1.62,0,0,1-.08,1.39,1.82,1.82,0,0,1-.52.55,2.6,2.6,0,0,1-.76.32,3.82,3.82,0,0,1-.9.11,3.34,3.34,0,0,1-1.6-.36v-1a2.86,2.86,0,0,0,1.73.58c.84,0,1.26-.28,1.26-.85a.64.64,0,0,0-.11-.39,1,1,0,0,0-.29-.29,2.19,2.19,0,0,0-.43-.24c-.17-.08-.35-.15-.54-.22l-.7-.32a2,2,0,0,1-.5-.37,1.21,1.21,0,0,1-.31-.46,1.57,1.57,0,0,1-.1-.6,1.37,1.37,0,0,1,.18-.72,1.41,1.41,0,0,1,.47-.5,2,2,0,0,1,.66-.28,3.06,3.06,0,0,1,.74-.09h2.77v-1.47l1-.31v1.78h1.51v.82h-1.51v3.38a1.37,1.37,0,0,0,.21.86.81.81,0,0,0,.68.26,1,1,0,0,0,.62-.2Z"/><path d="M121.76,111.59h-1v-.94h0a2,2,0,0,1-1.85,1.08,2,2,0,0,1-1.4-.48A1.62,1.62,0,0,1,117,110q0-1.68,2-1.95l1.8-.26q0-1.53-1.23-1.53a3,3,0,0,0-2,.74v-1a3.68,3.68,0,0,1,2-.56c1.41,0,2.11.74,2.11,2.23Zm-1-3-1.45.2a2.25,2.25,0,0,0-1,.33,1,1,0,0,0-.34.84.92.92,0,0,0,.31.72,1.2,1.2,0,0,0,.84.28,1.56,1.56,0,0,0,1.18-.5,1.8,1.8,0,0,0,.46-1.27Z"/><path d="M283,72.34a3.74,3.74,0,0,1-.63,2.32,2,2,0,0,1-1.7.83,2.14,2.14,0,0,1-.81-.14v-1a1.43,1.43,0,0,0,.83.23c.88,0,1.33-.76,1.33-2.26V67h1Z"/><path d="M289.27,75.35h-1v-.94h0a2,2,0,0,1-1.84,1.08A2,2,0,0,1,285,75a1.65,1.65,0,0,1-.51-1.26c0-1.12.66-1.78,2-2l1.8-.25c0-1-.41-1.53-1.24-1.53a3,3,0,0,0-2,.74v-1a3.76,3.76,0,0,1,2-.56c1.41,0,2.12.75,2.12,2.24Zm-1-3-1.45.2a2.35,2.35,0,0,0-1,.33,1,1,0,0,0-.34.84.9.9,0,0,0,.32.71,1.18,1.18,0,0,0,.83.28,1.51,1.51,0,0,0,1.18-.5,1.78,1.78,0,0,0,.47-1.27Zm.67,3c-.58.55-.88,1-.88,1.31a.36.36,0,0,0,.4.41.73.73,0,0,0,.33-.08v.63a1.28,1.28,0,0,1-.48.07,1,1,0,0,1-.72-.23.81.81,0,0,1-.27-.64,2,2,0,0,1,.92-1.47Z"/><path d="M296.2,75.35h-1v-1h0a2.43,2.43,0,0,1-3.87.36,3.27,3.27,0,0,1-.68-2.2,3.57,3.57,0,0,1,.75-2.38,2.46,2.46,0,0,1,2-.9,1.93,1.93,0,0,1,1.8,1h0V66.47h1Zm-1-2.71v-.89a1.73,1.73,0,0,0-.48-1.23,1.78,1.78,0,0,0-2.6.14,2.81,2.81,0,0,0-.51,1.78,2.49,2.49,0,0,0,.49,1.64,1.57,1.57,0,0,0,1.29.6,1.65,1.65,0,0,0,1.31-.58A2.16,2.16,0,0,0,295.24,72.64Z"/><path d="M301.27,70.32a1.14,1.14,0,0,0-.72-.19,1.21,1.21,0,0,0-1,.58,2.64,2.64,0,0,0-.41,1.58v3.06h-1v-6h1v1.24h0a2.17,2.17,0,0,1,.63-1,1.39,1.39,0,0,1,.94-.35,1.44,1.44,0,0,1,.57.08Z"/><path d="M304.83,75.49a2.79,2.79,0,0,1-2.13-.84,3.1,3.1,0,0,1-.79-2.23,3.24,3.24,0,0,1,.82-2.36,3,3,0,0,1,2.24-.85,2.69,2.69,0,0,1,2.09.83,3.77,3.77,0,0,1-.06,4.59A2.85,2.85,0,0,1,304.83,75.49ZM304.9,70a1.84,1.84,0,0,0-1.47.63,2.59,2.59,0,0,0-.54,1.74,2.41,2.41,0,0,0,.55,1.68,1.85,1.85,0,0,0,1.46.61,1.77,1.77,0,0,0,1.43-.6,3.23,3.23,0,0,0,0-3.45A1.74,1.74,0,0,0,304.9,70Z"/><path d="M28.82,62.77a2.67,2.67,0,0,1-.11.75,2.1,2.1,0,0,1-.94,1.16,2.8,2.8,0,0,1-.86.31v0a1.93,1.93,0,0,1,.64.21,1.68,1.68,0,0,1,.45.38,1.65,1.65,0,0,1,.28.5,2,2,0,0,1,.09.6,2.58,2.58,0,0,1-.24,1.14,2.34,2.34,0,0,1-.66.83,3,3,0,0,1-1,.51,4.5,4.5,0,0,1-1.25.17H22.65L24.43,61h2.31a2.64,2.64,0,0,1,.89.14,1.69,1.69,0,0,1,.65.39,1.51,1.51,0,0,1,.4.57A1.89,1.89,0,0,1,28.82,62.77Zm-1.49,4a1.19,1.19,0,0,0-.43-1,2.05,2.05,0,0,0-1.31-.35H24.48l-.63,3h1.36a3.33,3.33,0,0,0,.95-.12,1.87,1.87,0,0,0,.66-.34,1.36,1.36,0,0,0,.38-.54A1.75,1.75,0,0,0,27.33,66.76ZM27.79,63a1.42,1.42,0,0,0-.07-.42,1,1,0,0,0-.63-.6,1.82,1.82,0,0,0-.61-.09H25.26l-.59,2.71h1.1a3.25,3.25,0,0,0,.88-.11,1.88,1.88,0,0,0,.63-.33,1.24,1.24,0,0,0,.37-.51,1.67,1.67,0,0,0,.12-.65Z"/><path d="M33.29,64.37h0a1.71,1.71,0,0,0-.3-.14,1.31,1.31,0,0,0-.38-.06,1.08,1.08,0,0,0-.65.22,2.25,2.25,0,0,0-.57.58,3.75,3.75,0,0,0-.44.82,5.24,5.24,0,0,0-.3.95l-.56,2.61h-1l.84-4c0-.17.07-.34.11-.52l.09-.54c0-.18.06-.35.08-.51s0-.32.06-.45h.95c0,.12,0,.24-.05.37s0,.26,0,.38,0,.24-.05.34a1.31,1.31,0,0,0,0,.23h0a5.63,5.63,0,0,1,.38-.6,2.31,2.31,0,0,1,.41-.46,1.61,1.61,0,0,1,.45-.3,1.27,1.27,0,0,1,.52-.1,1.84,1.84,0,0,1,.33,0l.29.06Z"/><path d="M38,67.43c0,.15-.06.32-.09.5s-.06.37-.08.55,0,.35-.05.51,0,.28,0,.36h-1c0-.08,0-.17,0-.28l0-.34c0-.12,0-.23,0-.35s0-.21.05-.29h0l-.36.54a3,3,0,0,1-.42.45,1.88,1.88,0,0,1-.51.31,2,2,0,0,1-1.38,0,1.65,1.65,0,0,1-.56-.42,1.86,1.86,0,0,1-.36-.7,3.5,3.5,0,0,1-.13-1,5.91,5.91,0,0,1,.07-.78,5,5,0,0,1,.24-.88,4.07,4.07,0,0,1,.45-.88,3,3,0,0,1,.69-.77,3.27,3.27,0,0,1,1-.55,3.74,3.74,0,0,1,1.3-.2,6.42,6.42,0,0,1,1,.07c.33,0,.66.1,1,.17Zm-.28-3.29a4,4,0,0,0-.48-.08l-.51,0a2.29,2.29,0,0,0-.9.16,2,2,0,0,0-.68.42,2.35,2.35,0,0,0-.48.6,4.26,4.26,0,0,0-.32.69,4.68,4.68,0,0,0-.16.7,3.62,3.62,0,0,0-.05.63,2.77,2.77,0,0,0,.06.6,1.47,1.47,0,0,0,.18.46,1,1,0,0,0,.32.29,1.12,1.12,0,0,0,.47.1,1.3,1.3,0,0,0,.55-.12,1.67,1.67,0,0,0,.47-.33,2.35,2.35,0,0,0,.41-.47,5.3,5.3,0,0,0,.33-.57c.09-.2.18-.41.25-.62s.12-.41.16-.61Z"/><path d="M41.8,66.12l2.12,3.23H42.81l-2-3.17h0l-.67,3.17h-1l1.9-8.88h1l-1.16,5.42h0l3-2.54h1.25Z"/><path d="M51.71,64.41a2.29,2.29,0,0,0-.59-.28,2.16,2.16,0,0,0-.66-.1,1.29,1.29,0,0,0-.85.25.83.83,0,0,0-.3.67.75.75,0,0,0,.22.57,1.31,1.31,0,0,0,.27.25l.39.25a3,3,0,0,1,.94.78,1.48,1.48,0,0,1,.29.91,1.92,1.92,0,0,1-.12.66,1.51,1.51,0,0,1-.4.57,2.16,2.16,0,0,1-.72.41,3.26,3.26,0,0,1-1.06.15l-.39,0a2,2,0,0,1-.42-.07l-.41-.11a1.34,1.34,0,0,1-.34-.16l.19-.91a1.3,1.3,0,0,0,.29.16,2,2,0,0,0,.37.15l.43.11a3.13,3.13,0,0,0,.43,0,1.36,1.36,0,0,0,.88-.24.79.79,0,0,0,.29-.65,1.26,1.26,0,0,0,0-.28,1.08,1.08,0,0,0-.16-.26A1.94,1.94,0,0,0,50,67l-.46-.29a3,3,0,0,1-.88-.76,1.51,1.51,0,0,1-.29-.9,1.81,1.81,0,0,1,.14-.69,1.67,1.67,0,0,1,.4-.59,1.93,1.93,0,0,1,.67-.4,2.69,2.69,0,0,1,.94-.15,3.39,3.39,0,0,1,.8.08,2.48,2.48,0,0,1,.65.21Z"/><path d="M53.94,70.35a7.33,7.33,0,0,1-.55.77,3.18,3.18,0,0,1-.58.58,2.35,2.35,0,0,1-.64.35,2.27,2.27,0,0,1-.75.12l-.31,0a1.2,1.2,0,0,1-.26,0l.18-.85a.9.9,0,0,0,.23.07,1.3,1.3,0,0,0,1-.19,2.31,2.31,0,0,0,.62-.68l.72-1.11-1.09-6h1L54.2,68a2.11,2.11,0,0,1,0,.25,1.15,1.15,0,0,1,0,.2h0l.09-.2a1.49,1.49,0,0,1,.14-.24l2.66-4.62H58.2Z"/><path d="M65.22,64.17H63.71L63,67.35c0,.12-.05.25-.07.39a2.47,2.47,0,0,0,0,.34.58.58,0,0,0,.13.43.57.57,0,0,0,.42.13l.18,0,.23-.06.23-.08.2-.08-.18.85-.46.15a2.27,2.27,0,0,1-.5.06,1.62,1.62,0,0,1-.57-.09,1,1,0,0,1-.38-.24,1,1,0,0,1-.22-.38,2,2,0,0,1-.07-.51,3.37,3.37,0,0,1,0-.4,3.73,3.73,0,0,1,.08-.41l.69-3.26H60.44a2.78,2.78,0,0,0-.51,0,1.52,1.52,0,0,0-.41.14.73.73,0,0,0-.28.24.59.59,0,0,0-.1.36,1,1,0,0,0,0,.31,1.11,1.11,0,0,0,.17.27,1.64,1.64,0,0,0,.27.24L60,66a5.74,5.74,0,0,1,.55.38,2.42,2.42,0,0,1,.39.4,1.35,1.35,0,0,1,.22.43,1.51,1.51,0,0,1,.07.48,1.84,1.84,0,0,1-.12.66,1.51,1.51,0,0,1-.4.57,2.26,2.26,0,0,1-.72.41A3.3,3.3,0,0,1,59,69.5l-.39,0a2,2,0,0,1-.42-.07l-.41-.11a1.34,1.34,0,0,1-.34-.16l.19-.91a1.3,1.3,0,0,0,.29.16,2,2,0,0,0,.37.15l.43.11a3.13,3.13,0,0,0,.43,0,1.42,1.42,0,0,0,.88-.23.82.82,0,0,0,.29-.66.87.87,0,0,0-.05-.28.83.83,0,0,0-.15-.25,1.6,1.6,0,0,0-.3-.26q-.18-.14-.45-.3a3,3,0,0,1-.89-.76,1.57,1.57,0,0,1-.28-.9,1.54,1.54,0,0,1,.58-1.2,2.25,2.25,0,0,1,.69-.36,3.14,3.14,0,0,1,1-.13h2.54l.31-1.46.09,0,.19-.06.24-.07.23-.07.19,0,.09,0-.37,1.77H65.4Z"/><path d="M70.37,64.76a1.79,1.79,0,0,1-.21.86,1.75,1.75,0,0,1-.7.67,4,4,0,0,1-1.28.43,10.79,10.79,0,0,1-2,.16.57.57,0,0,0,0,.13v.12a2,2,0,0,0,.09.6,1.13,1.13,0,0,0,.27.49,1.25,1.25,0,0,0,.47.33,1.67,1.67,0,0,0,.69.13,2.75,2.75,0,0,0,.89-.16,3.7,3.7,0,0,0,.92-.44l-.18,1a4.68,4.68,0,0,1-.77.33,3.38,3.38,0,0,1-1,.14,2.63,2.63,0,0,1-1.12-.21,1.94,1.94,0,0,1-.73-.54,2.08,2.08,0,0,1-.4-.8,3.19,3.19,0,0,1-.13-.94,4.17,4.17,0,0,1,.12-1,4.26,4.26,0,0,1,.33-.91,3.43,3.43,0,0,1,.51-.77,2.92,2.92,0,0,1,.67-.6,3.13,3.13,0,0,1,.78-.38,2.71,2.71,0,0,1,.86-.13,2.47,2.47,0,0,1,.81.12,1.55,1.55,0,0,1,1,.83A1.53,1.53,0,0,1,70.37,64.76Zm-1,0a.68.68,0,0,0-.27-.57,1.15,1.15,0,0,0-.73-.2,1.72,1.72,0,0,0-.69.15,2.26,2.26,0,0,0-.61.43,2.71,2.71,0,0,0-.49.65,3.08,3.08,0,0,0-.3.82A9.64,9.64,0,0,0,67.73,66a3.7,3.7,0,0,0,1-.25,1.23,1.23,0,0,0,.54-.4A.94.94,0,0,0,69.39,64.8Z"/><path d="M80,64.86a1.11,1.11,0,0,1,0,.23c0,.11,0,.22,0,.34l-.06.34c0,.12,0,.22-.06.29l-.71,3.29h-1l.73-3.51c0-.07,0-.14.05-.23s0-.16,0-.24a2.07,2.07,0,0,0,0-.22c0-.07,0-.12,0-.16a1.16,1.16,0,0,0-.2-.72.77.77,0,0,0-.62-.24,1.09,1.09,0,0,0-.46.1,2.08,2.08,0,0,0-.47.28,2.74,2.74,0,0,0-.43.41,3.14,3.14,0,0,0-.38.5,4.85,4.85,0,0,0-.3.54,3.2,3.2,0,0,0-.18.55l-.63,2.94h-1l.75-3.51c0-.07,0-.14,0-.23s0-.16,0-.24l0-.22a1,1,0,0,0,0-.16,1.16,1.16,0,0,0-.2-.72.78.78,0,0,0-.62-.24,1.17,1.17,0,0,0-.47.1,2.33,2.33,0,0,0-.47.28,3.39,3.39,0,0,0-.43.42,3.14,3.14,0,0,0-.38.5,3.64,3.64,0,0,0-.3.54,3.2,3.2,0,0,0-.18.55l-.62,2.93h-1l.93-4.28q0-.22.09-.48c0-.17.06-.33.09-.48s0-.3.07-.43,0-.24,0-.33h.94c0,.15,0,.31-.07.48s-.05.32-.07.46,0,.32-.08.48h0a5.11,5.11,0,0,1,.46-.63,3.4,3.4,0,0,1,.52-.49,2.61,2.61,0,0,1,.58-.33,1.62,1.62,0,0,1,.62-.11,1.56,1.56,0,0,1,.64.11,1.21,1.21,0,0,1,.45.31,1.29,1.29,0,0,1,.27.49,2.44,2.44,0,0,1,.11.64,4.92,4.92,0,0,1,.47-.61,3.54,3.54,0,0,1,.53-.5,2.37,2.37,0,0,1,.61-.32,1.85,1.85,0,0,1,.67-.12,1.41,1.41,0,0,1,1.13.43A1.82,1.82,0,0,1,80,64.86Z"/><path d="M85.74,67.65c0,.15-.07.31-.09.47s-.06.32-.09.48,0,.29-.07.42,0,.25,0,.33h-.93c0-.15,0-.31.06-.48s.05-.32.08-.46,0-.32.07-.48h0a4.64,4.64,0,0,1-.46.61,2.83,2.83,0,0,1-1.15.84,2,2,0,0,1-.68.12,1.74,1.74,0,0,1-.67-.12,1.23,1.23,0,0,1-.49-.34,1.46,1.46,0,0,1-.29-.52,2.38,2.38,0,0,1-.09-.68,1.11,1.11,0,0,1,0-.23c0-.1,0-.21,0-.33s0-.23.07-.35a2.15,2.15,0,0,0,.06-.29l.7-3.29h1L82,66.87c0,.06,0,.13,0,.21s0,.17,0,.25a2.23,2.23,0,0,0,0,.23c0,.06,0,.12,0,.16a1,1,0,0,0,.22.7.78.78,0,0,0,.64.26,1.34,1.34,0,0,0,.51-.11,2.06,2.06,0,0,0,.5-.28,2.61,2.61,0,0,0,.46-.42,3.81,3.81,0,0,0,.4-.5,5.86,5.86,0,0,0,.3-.55,3.42,3.42,0,0,0,.18-.54l.62-2.93h1Z"/><path d="M95.65,65.57a5,5,0,0,1-.22,1.51,3.8,3.8,0,0,1-.65,1.25,3.11,3.11,0,0,1-1,.85,2.94,2.94,0,0,1-1.37.32,2.45,2.45,0,0,1-.93-.17,1.8,1.8,0,0,1-.7-.47,1.92,1.92,0,0,1-.45-.74,3,3,0,0,1-.15-1,4.82,4.82,0,0,1,.23-1.54,3.84,3.84,0,0,1,.67-1.25,3.17,3.17,0,0,1,1-.83,2.92,2.92,0,0,1,1.33-.3,2.43,2.43,0,0,1,.92.16,2,2,0,0,1,.71.47,2.29,2.29,0,0,1,.45.74A2.86,2.86,0,0,1,95.65,65.57Zm-1,.05a2.38,2.38,0,0,0-.09-.68,1.83,1.83,0,0,0-.27-.5,1.27,1.27,0,0,0-.41-.31,1.33,1.33,0,0,0-.54-.1,1.68,1.68,0,0,0-.93.26,2.3,2.3,0,0,0-.7.69,3.49,3.49,0,0,0-.44,1,3.89,3.89,0,0,0-.16,1.12,2.19,2.19,0,0,0,.09.66,1.53,1.53,0,0,0,.26.51,1.17,1.17,0,0,0,.41.32,1.35,1.35,0,0,0,.55.11,1.74,1.74,0,0,0,.93-.26,2.46,2.46,0,0,0,.71-.69,3.43,3.43,0,0,0,.44-1A4.2,4.2,0,0,0,94.67,65.62Z"/><path d="M101.86,65.45a4.07,4.07,0,0,1-.1.9,4.61,4.61,0,0,1-.28.92,4.26,4.26,0,0,1-.49.85,3.27,3.27,0,0,1-.68.71,3.08,3.08,0,0,1-.89.49,3.21,3.21,0,0,1-1.1.18,3.08,3.08,0,0,1-.68-.07,3.36,3.36,0,0,1-.59-.15l-.6,2.85h-1l1.46-6.93c0-.13,0-.28.08-.45l.06-.53c0-.18,0-.35,0-.51s0-.27,0-.36h1c0,.07,0,.16,0,.27s0,.23,0,.36,0,.24,0,.35,0,.21,0,.28h0A3.29,3.29,0,0,1,99,63.55a2,2,0,0,1,1.13-.34,1.75,1.75,0,0,1,.74.14,1.36,1.36,0,0,1,.56.42,2,2,0,0,1,.35.7A3.23,3.23,0,0,1,101.86,65.45Zm-1,0a3.61,3.61,0,0,0-.05-.59,1.27,1.27,0,0,0-.19-.46.8.8,0,0,0-.33-.3.94.94,0,0,0-.49-.11,1.32,1.32,0,0,0-.57.12,2.1,2.1,0,0,0-.5.34,2.92,2.92,0,0,0-.42.49,6.48,6.48,0,0,0-.33.57,4.6,4.6,0,0,0-.25.61,3.35,3.35,0,0,0-.15.56l-.37,1.74.25.09.3.06.33,0,.3,0a2,2,0,0,0,.75-.14,2.18,2.18,0,0,0,.61-.36,2.83,2.83,0,0,0,.48-.55,3.28,3.28,0,0,0,.35-.67,3.06,3.06,0,0,0,.21-.73A3.78,3.78,0,0,0,100.87,65.49Z"/><path d="M107.63,64.76a1.79,1.79,0,0,1-.21.86,1.81,1.81,0,0,1-.7.67,4,4,0,0,1-1.28.43,10.87,10.87,0,0,1-2,.16.57.57,0,0,0,0,.13v.12a2,2,0,0,0,.08.6,1.31,1.31,0,0,0,.75.82,1.6,1.6,0,0,0,.69.13,2.8,2.8,0,0,0,.89-.16,3.7,3.7,0,0,0,.92-.44l-.18,1a4.68,4.68,0,0,1-.77.33,3.45,3.45,0,0,1-1,.14,2.62,2.62,0,0,1-1.11-.21,1.94,1.94,0,0,1-.73-.54,2.25,2.25,0,0,1-.41-.8,3.56,3.56,0,0,1-.12-.94,4.17,4.17,0,0,1,.12-1,4.26,4.26,0,0,1,.33-.91,3.43,3.43,0,0,1,.51-.77,3.09,3.09,0,0,1,.66-.6,3.51,3.51,0,0,1,.78-.38,2.8,2.8,0,0,1,.86-.13,2.53,2.53,0,0,1,.82.12,1.48,1.48,0,0,1,.59.34,1.33,1.33,0,0,1,.36.49A1.38,1.38,0,0,1,107.63,64.76Zm-1,0a.68.68,0,0,0-.27-.57,1.19,1.19,0,0,0-.73-.2,1.65,1.65,0,0,0-.69.15,2.12,2.12,0,0,0-.61.43,2.71,2.71,0,0,0-.49.65,2.77,2.77,0,0,0-.3.82A9.49,9.49,0,0,0,105,66a3.78,3.78,0,0,0,1-.25,1.23,1.23,0,0,0,.54-.4A.94.94,0,0,0,106.65,64.8Z"/><path d="M112,64.37h0a1.86,1.86,0,0,0-.31-.14,1.19,1.19,0,0,0-.37-.06,1.06,1.06,0,0,0-.65.22,2.25,2.25,0,0,0-.57.58,4.25,4.25,0,0,0-.45.82,6.14,6.14,0,0,0-.29.95l-.56,2.61h-1l.85-4c0-.17.07-.34.1-.52s.07-.36.1-.54.06-.35.08-.51,0-.32,0-.45h1c0,.12,0,.24,0,.37s0,.26,0,.38,0,.24,0,.34,0,.18,0,.23h0a5.63,5.63,0,0,1,.38-.6,2.64,2.64,0,0,1,.4-.46,1.81,1.81,0,0,1,.46-.3,1.27,1.27,0,0,1,.52-.1,1.66,1.66,0,0,1,.32,0l.29.06Z"/><path d="M116.74,67.43c0,.15-.06.32-.09.5s-.06.37-.08.55,0,.35,0,.51a2.64,2.64,0,0,0,0,.36h-1c0-.08,0-.17,0-.28l0-.34c0-.12,0-.23,0-.35a1.92,1.92,0,0,1,0-.29h0c-.12.19-.24.37-.37.54a2.52,2.52,0,0,1-.41.45,2.25,2.25,0,0,1-.51.31,1.92,1.92,0,0,1-.67.11,1.8,1.8,0,0,1-.71-.14,1.56,1.56,0,0,1-.56-.42,1.86,1.86,0,0,1-.36-.7,3.16,3.16,0,0,1-.13-1,4.59,4.59,0,0,1,.07-.78,5,5,0,0,1,.24-.88,4.52,4.52,0,0,1,.44-.88,3.2,3.2,0,0,1,.7-.77,3.27,3.27,0,0,1,1-.55,3.74,3.74,0,0,1,1.3-.2,6.52,6.52,0,0,1,1,.07c.33,0,.66.1,1,.17Zm-.28-3.29a4.79,4.79,0,0,0-.48-.08l-.51,0a2.29,2.29,0,0,0-.9.16,2,2,0,0,0-.68.42,2.35,2.35,0,0,0-.48.6,3.55,3.55,0,0,0-.32.69,3.7,3.7,0,0,0-.16.7,3.81,3.81,0,0,0,0,1.23,1.27,1.27,0,0,0,.19.46.89.89,0,0,0,.32.29,1.12,1.12,0,0,0,.47.1,1.25,1.25,0,0,0,.54-.12,1.87,1.87,0,0,0,.48-.33,2.35,2.35,0,0,0,.41-.47,4,4,0,0,0,.32-.57,3.66,3.66,0,0,0,.25-.62,5.1,5.1,0,0,0,.17-.61Z"/><path d="M122.7,64.54a2.28,2.28,0,0,0-.59-.37,2.15,2.15,0,0,0-.77-.14,1.7,1.7,0,0,0-.73.14,1.85,1.85,0,0,0-.58.37,2.49,2.49,0,0,0-.43.54,2.6,2.6,0,0,0-.3.63,4,4,0,0,0-.18.66,4.41,4.41,0,0,0-.05.6,1.87,1.87,0,0,0,.37,1.27,1.24,1.24,0,0,0,1,.44,2.43,2.43,0,0,0,.81-.16,3.91,3.91,0,0,0,.78-.42l-.2,1a3.75,3.75,0,0,1-.76.32,2.63,2.63,0,0,1-.8.12,2.19,2.19,0,0,1-1-.19,1.85,1.85,0,0,1-.68-.52,2.09,2.09,0,0,1-.4-.77,3.35,3.35,0,0,1-.13-1,5.23,5.23,0,0,1,.09-1,4.32,4.32,0,0,1,.3-.9,3.7,3.7,0,0,1,.48-.79,3.92,3.92,0,0,1,.66-.63,3.38,3.38,0,0,1,.83-.41,3.2,3.2,0,0,1,1-.14,3.64,3.64,0,0,1,.48,0,2.38,2.38,0,0,1,.42.09l.33.13a1.29,1.29,0,0,1,.24.13Z"/><path d="M124.72,70.35a7.33,7.33,0,0,1-.54.77,4,4,0,0,1-.58.58,2.41,2.41,0,0,1-.65.35,2.23,2.23,0,0,1-.75.12l-.3,0a1.46,1.46,0,0,1-.27,0l.18-.85a1,1,0,0,0,.23.07l.28,0a1.26,1.26,0,0,0,.73-.22,2.29,2.29,0,0,0,.61-.68l.72-1.11-1.09-6h1L125,68a1.06,1.06,0,0,1,0,.25,1.32,1.32,0,0,1,0,.2h0l.09-.2c0-.08.09-.16.14-.24l2.66-4.62H129Z"/><path d="M129.4,69.08a5.16,5.16,0,0,1-1,2.32,2.25,2.25,0,0,1-1.75.77h-.22l-.23,0-.22-.05-.19-.08.17-.9.16.1.2.08a.83.83,0,0,0,.21.06l.2,0a1.24,1.24,0,0,0,1-.53,3.73,3.73,0,0,0,.64-1.57l1.26-5.91h1Zm1.8-7.87a.61.61,0,0,1-.18.45.58.58,0,0,1-.44.19.64.64,0,0,1-.45-.18.62.62,0,0,1-.19-.46.56.56,0,0,1,.19-.44.68.68,0,0,1,.45-.17.6.6,0,0,1,.44.18A.57.57,0,0,1,131.2,61.21Z"/><path d="M136.79,64.85c0,.06,0,.14,0,.24s0,.21-.05.33-.05.23-.07.35,0,.21-.06.29l-.7,3.29h-1l.73-3.51c0-.07,0-.14,0-.22s0-.16,0-.25l0-.22a1,1,0,0,0,0-.16,1.11,1.11,0,0,0-.21-.71.8.8,0,0,0-.64-.25,1.51,1.51,0,0,0-.77.22,3.78,3.78,0,0,0-.7.58,4.23,4.23,0,0,0-.55.78,3,3,0,0,0-.32.81L132,69.35h-1l.93-4.28q0-.22.09-.48t.09-.48c0-.15.05-.3.07-.43s0-.24.05-.33h.94c0,.15,0,.31-.07.48s-.06.32-.07.46-.05.32-.08.48h0a4.64,4.64,0,0,1,.46-.61,2.79,2.79,0,0,1,.54-.49,2.16,2.16,0,0,1,.61-.34,2,2,0,0,1,.68-.12,1.78,1.78,0,0,1,.69.12,1.37,1.37,0,0,1,.48.33,1.53,1.53,0,0,1,.28.52A2.41,2.41,0,0,1,136.79,64.85Z"/><path d="M142.72,64.76a1.79,1.79,0,0,1-.21.86,1.81,1.81,0,0,1-.7.67,4.07,4.07,0,0,1-1.28.43,10.87,10.87,0,0,1-2,.16.57.57,0,0,0,0,.13v.12a2,2,0,0,0,.08.6,1.31,1.31,0,0,0,.75.82,1.6,1.6,0,0,0,.69.13,2.8,2.8,0,0,0,.89-.16,3.7,3.7,0,0,0,.92-.44l-.18,1a4.68,4.68,0,0,1-.77.33,3.45,3.45,0,0,1-1,.14,2.62,2.62,0,0,1-1.11-.21,1.94,1.94,0,0,1-.73-.54,2.25,2.25,0,0,1-.41-.8,3.56,3.56,0,0,1-.12-.94,4.17,4.17,0,0,1,.12-1,4.26,4.26,0,0,1,.33-.91,3.43,3.43,0,0,1,.51-.77,3.09,3.09,0,0,1,.66-.6,3.51,3.51,0,0,1,.78-.38,2.8,2.8,0,0,1,.86-.13,2.53,2.53,0,0,1,.82.12,1.48,1.48,0,0,1,.59.34,1.33,1.33,0,0,1,.36.49A1.38,1.38,0,0,1,142.72,64.76Zm-1,0a.68.68,0,0,0-.27-.57,1.19,1.19,0,0,0-.73-.2,1.65,1.65,0,0,0-.69.15,2.12,2.12,0,0,0-.61.43,2.71,2.71,0,0,0-.49.65,2.77,2.77,0,0,0-.3.82,9.49,9.49,0,0,0,1.42-.09,3.78,3.78,0,0,0,1-.25,1.23,1.23,0,0,0,.54-.4A.94.94,0,0,0,141.74,64.8Z"/><path d="M147.63,68.92a7.92,7.92,0,0,1-.39,1.3,3.38,3.38,0,0,1-.64,1,2.74,2.74,0,0,1-1,.68,3.71,3.71,0,0,1-1.41.24,3.28,3.28,0,0,1-1-.13,4.25,4.25,0,0,1-.78-.33l.18-.89a5.19,5.19,0,0,0,.79.37,2.6,2.6,0,0,0,.89.15,2.52,2.52,0,0,0,.91-.15,1.69,1.69,0,0,0,.66-.45,2.28,2.28,0,0,0,.46-.72,4.91,4.91,0,0,0,.31-1l.21-.94h0a4.75,4.75,0,0,1-.43.62,2.65,2.65,0,0,1-.45.44,1.8,1.8,0,0,1-1.06.34,1.7,1.7,0,0,1-.73-.15,1.36,1.36,0,0,1-.56-.42,1.86,1.86,0,0,1-.36-.7,3.58,3.58,0,0,1-.13-1,4.38,4.38,0,0,1,.12-1,3.89,3.89,0,0,1,.33-1,4,4,0,0,1,.53-.83,3.37,3.37,0,0,1,.71-.65,3.43,3.43,0,0,1,.88-.43,3.35,3.35,0,0,1,1-.15,8,8,0,0,1,1.09.07c.36,0,.7.1,1,.15Zm0-4.78a4,4,0,0,0-.48-.08,5.79,5.79,0,0,0-.61,0,2,2,0,0,0-1,.25,2.48,2.48,0,0,0-.79.69,3.5,3.5,0,0,0-.52,1,4.09,4.09,0,0,0-.18,1.22,3.61,3.61,0,0,0,0,.59,1.47,1.47,0,0,0,.18.46.92.92,0,0,0,.31.31,1,1,0,0,0,.47.11,1.31,1.31,0,0,0,.59-.14,2.15,2.15,0,0,0,.5-.35,3,3,0,0,0,.41-.51,5.45,5.45,0,0,0,.31-.58,5.63,5.63,0,0,0,.24-.59,5.31,5.31,0,0,0,.14-.53Z"/><path d="M154.81,65.57a5,5,0,0,1-.22,1.51,3.8,3.8,0,0,1-.65,1.25,3.11,3.11,0,0,1-1,.85,2.94,2.94,0,0,1-1.37.32,2.49,2.49,0,0,1-.93-.17,1.8,1.8,0,0,1-.7-.47,1.92,1.92,0,0,1-.45-.74,3,3,0,0,1-.15-1,5.12,5.12,0,0,1,.23-1.54,3.84,3.84,0,0,1,.67-1.25,3.17,3.17,0,0,1,1-.83,3,3,0,0,1,1.33-.3,2.43,2.43,0,0,1,.92.16,2,2,0,0,1,.71.47,2.13,2.13,0,0,1,.45.74A2.86,2.86,0,0,1,154.81,65.57Zm-1,.05a2.38,2.38,0,0,0-.09-.68,1.6,1.6,0,0,0-.27-.5,1.27,1.27,0,0,0-.41-.31,1.33,1.33,0,0,0-.54-.1,1.68,1.68,0,0,0-.93.26,2.3,2.3,0,0,0-.7.69,3.49,3.49,0,0,0-.44,1,3.89,3.89,0,0,0-.16,1.12,2.19,2.19,0,0,0,.09.66,1.53,1.53,0,0,0,.26.51,1.17,1.17,0,0,0,.41.32,1.35,1.35,0,0,0,.55.11,1.74,1.74,0,0,0,.93-.26,2.46,2.46,0,0,0,.71-.69,3.43,3.43,0,0,0,.44-1A4.2,4.2,0,0,0,153.83,65.62Z"/><path d="M67,80.52l2.12,3.23H68l-2-3.17h0l-.67,3.17h-1l1.9-8.88h1l-1.16,5.42h0l3-2.54h1.25Z"/><path d="M75.32,80a5,5,0,0,1-.23,1.51,3.62,3.62,0,0,1-.65,1.25A3,3,0,0,1,72,83.9a2.43,2.43,0,0,1-.92-.17,1.92,1.92,0,0,1-.71-.47,2,2,0,0,1-.44-.74,2.78,2.78,0,0,1-.16-1A4.78,4.78,0,0,1,70.05,80a3.84,3.84,0,0,1,.67-1.25,3,3,0,0,1,2.36-1.14,2.47,2.47,0,0,1,.92.17,2,2,0,0,1,.7.47,2.15,2.15,0,0,1,.46.74A2.82,2.82,0,0,1,75.32,80Zm-1,0a2.32,2.32,0,0,0-.1-.68,1.48,1.48,0,0,0-.26-.5,1.39,1.39,0,0,0-.41-.31,1.33,1.33,0,0,0-.54-.11,1.66,1.66,0,0,0-.93.27,2.45,2.45,0,0,0-.71.69,3.8,3.8,0,0,0-.44,1,4.26,4.26,0,0,0-.15,1.12,2.19,2.19,0,0,0,.09.66,1.37,1.37,0,0,0,.26.51,1.09,1.09,0,0,0,.41.32,1.33,1.33,0,0,0,.54.11,1.77,1.77,0,0,0,.94-.26,2.42,2.42,0,0,0,.7-.69,3.18,3.18,0,0,0,.44-1A4.21,4.21,0,0,0,74.34,80Z"/><path d="M81.61,79.25a1.29,1.29,0,0,1,0,.24c0,.1,0,.21,0,.33l-.06.35c0,.11,0,.21-.06.29l-.7,3.29h-1l.73-3.51a2.25,2.25,0,0,1,0-.22,2.17,2.17,0,0,1,0-.25l0-.22c0-.07,0-.13,0-.16a1,1,0,0,0-.22-.71.77.77,0,0,0-.63-.26,1.49,1.49,0,0,0-.77.23,3.48,3.48,0,0,0-.7.58,4.28,4.28,0,0,0-.56.78,2.92,2.92,0,0,0-.31.81l-.63,2.93h-1l.93-4.28q0-.23.09-.48t.09-.48c0-.15,0-.3.07-.43s0-.24.05-.33H78c0,.15,0,.31-.07.48s-.05.32-.07.46,0,.32-.07.48h0a5.65,5.65,0,0,1,.45-.61,4.21,4.21,0,0,1,.54-.5,2.65,2.65,0,0,1,.62-.33,1.91,1.91,0,0,1,.68-.13,1.81,1.81,0,0,1,.69.13,1.25,1.25,0,0,1,.47.33,1.38,1.38,0,0,1,.28.52A2.09,2.09,0,0,1,81.61,79.25Z"/><path d="M86,78.57H84.45l-.67,3.18a3.91,3.91,0,0,0-.07.39,1.61,1.61,0,0,0,0,.34.63.63,0,0,0,.13.43.57.57,0,0,0,.42.13l.19,0,.22-.06.24-.08.2-.08-.18.85a4.41,4.41,0,0,1-.47.14,1.77,1.77,0,0,1-.5.07,1.53,1.53,0,0,1-.56-.09,1.08,1.08,0,0,1-.39-.24.92.92,0,0,1-.21-.39,1.55,1.55,0,0,1-.07-.5,3,3,0,0,1,0-.4,3.73,3.73,0,0,1,.08-.41l.69-3.26h-1l.18-.82h1L84,76.29l.18-.06.34-.1.34-.1L85,76l-.37,1.77h1.52Z"/><path d="M91.12,79.16a1.67,1.67,0,0,1-.9,1.53,4.14,4.14,0,0,1-1.29.43,11.67,11.67,0,0,1-2,.16s0,.09,0,.13v.12a2,2,0,0,0,.09.6,1.37,1.37,0,0,0,.27.49,1.28,1.28,0,0,0,.48.33,1.6,1.6,0,0,0,.69.13,2.7,2.7,0,0,0,.88-.16,3.76,3.76,0,0,0,.93-.44l-.19,1a4.55,4.55,0,0,1-.76.33,3.45,3.45,0,0,1-1,.14,2.62,2.62,0,0,1-1.11-.21,1.89,1.89,0,0,1-.74-.55,2.11,2.11,0,0,1-.4-.79,3.61,3.61,0,0,1-.12-.94,4.17,4.17,0,0,1,.12-1,3.4,3.4,0,0,1,.33-.91,3.75,3.75,0,0,1,.51-.78,3.33,3.33,0,0,1,.66-.59,3.13,3.13,0,0,1,.78-.38,2.82,2.82,0,0,1,.86-.14,2.56,2.56,0,0,1,.82.13,1.68,1.68,0,0,1,.59.33,1.45,1.45,0,0,1,.36.5A1.53,1.53,0,0,1,91.12,79.16Zm-1,0a.67.67,0,0,0-.28-.57,1.14,1.14,0,0,0-.72-.21,1.66,1.66,0,0,0-.69.16,2.31,2.31,0,0,0-.62.43,2.67,2.67,0,0,0-.48.65,2.77,2.77,0,0,0-.3.82,9.49,9.49,0,0,0,1.42-.09,3.9,3.9,0,0,0,1-.25,1.36,1.36,0,0,0,.54-.4A.94.94,0,0,0,90.15,79.2Z"/><path d="M97.18,79.25a1.15,1.15,0,0,1,0,.24c0,.1,0,.21,0,.33s0,.23-.07.35,0,.21-.06.29l-.69,3.29h-1l.74-3.51c0-.07,0-.14,0-.22a2.17,2.17,0,0,0,0-.25,1.92,1.92,0,0,0,0-.22,1.1,1.1,0,0,0,0-.16,1.09,1.09,0,0,0-.21-.71.78.78,0,0,0-.64-.26,1.49,1.49,0,0,0-.76.23,3.54,3.54,0,0,0-.71.58,4.23,4.23,0,0,0-.55.78,2.92,2.92,0,0,0-.31.81l-.63,2.93h-1l.92-4.28c0-.15.07-.31.1-.48s.06-.33.08-.48a3.83,3.83,0,0,0,.07-.43c0-.13,0-.24,0-.33h.94c0,.15,0,.31-.07.48s0,.32-.07.46,0,.32-.08.48h0a3.84,3.84,0,0,1,.45-.61,4.21,4.21,0,0,1,.54-.5,2.59,2.59,0,0,1,.61-.33,2,2,0,0,1,.69-.13,1.75,1.75,0,0,1,.68.13,1.25,1.25,0,0,1,.76.85A2.41,2.41,0,0,1,97.18,79.25Z"/><path d="M103.11,79.16a1.79,1.79,0,0,1-.21.86,1.75,1.75,0,0,1-.7.67,4,4,0,0,1-1.28.43,11.77,11.77,0,0,1-2,.16.57.57,0,0,0,0,.13v.12a2,2,0,0,0,.09.6,1.37,1.37,0,0,0,.27.49,1.25,1.25,0,0,0,.47.33,1.67,1.67,0,0,0,.69.13,2.75,2.75,0,0,0,.89-.16,3.7,3.7,0,0,0,.92-.44l-.18,1a4.34,4.34,0,0,1-.77.33,3.38,3.38,0,0,1-1,.14,2.67,2.67,0,0,1-1.12-.21,1.86,1.86,0,0,1-.73-.55,2,2,0,0,1-.4-.79,3.62,3.62,0,0,1-.13-.94,4.17,4.17,0,0,1,.12-1,4,4,0,0,1,.85-1.69,3.07,3.07,0,0,1,.66-.59,3.13,3.13,0,0,1,.78-.38,2.72,2.72,0,0,1,.86-.14,2.56,2.56,0,0,1,.82.13,1.77,1.77,0,0,1,.59.33,1.45,1.45,0,0,1,.36.5A1.53,1.53,0,0,1,103.11,79.16Zm-1,0a.68.68,0,0,0-.27-.57,1.14,1.14,0,0,0-.72-.21,1.74,1.74,0,0,0-.7.16,2.26,2.26,0,0,0-.61.43,2.71,2.71,0,0,0-.49.65,3.47,3.47,0,0,0-.3.82,9.64,9.64,0,0,0,1.43-.09,3.7,3.7,0,0,0,1-.25,1.23,1.23,0,0,0,.54-.4A.87.87,0,0,0,102.13,79.2Z"/><path d="M107.53,78.77h0a1.71,1.71,0,0,0-.3-.14,1.31,1.31,0,0,0-.38-.06,1.06,1.06,0,0,0-.65.22,2.25,2.25,0,0,0-.57.58,3.75,3.75,0,0,0-.44.82,5.24,5.24,0,0,0-.3,1l-.56,2.61h-1l.84-4c0-.17.07-.34.11-.52l.09-.54c0-.18.06-.35.08-.51s0-.32.06-.45h.94c0,.12,0,.24,0,.37s0,.26,0,.38,0,.24,0,.34,0,.17,0,.23h0a5.63,5.63,0,0,1,.38-.6,2.31,2.31,0,0,1,.41-.46,1.61,1.61,0,0,1,.45-.3,1.27,1.27,0,0,1,.52-.11,1.86,1.86,0,0,1,.33,0l.29.06Z"/><path d="M112.22,81.83c0,.15-.06.31-.09.5s-.06.37-.08.55,0,.35,0,.51,0,.28,0,.36h-1c0-.08,0-.17,0-.28l0-.34c0-.12,0-.23,0-.35s0-.21.05-.29h0q-.18.29-.36.54a3,3,0,0,1-.42.45,1.88,1.88,0,0,1-.51.31,2,2,0,0,1-1.38,0,1.65,1.65,0,0,1-.56-.42,1.86,1.86,0,0,1-.36-.7,3.5,3.5,0,0,1-.13-1,5.91,5.91,0,0,1,.07-.78,5,5,0,0,1,.24-.88,4.07,4.07,0,0,1,.45-.88,3.17,3.17,0,0,1,.69-.78,3.48,3.48,0,0,1,1-.54,3.73,3.73,0,0,1,1.3-.21,6.45,6.45,0,0,1,1,.08c.33,0,.66.1,1,.17Zm-.28-3.29a4,4,0,0,0-.48-.08,4.75,4.75,0,0,0-.51,0,2.29,2.29,0,0,0-.9.17,2,2,0,0,0-.68.42,2.35,2.35,0,0,0-.48.6,3.9,3.9,0,0,0-.32.69,4.68,4.68,0,0,0-.16.7,3.62,3.62,0,0,0,0,.63,2.77,2.77,0,0,0,.06.6,1.32,1.32,0,0,0,.18.45.8.8,0,0,0,.32.29,1,1,0,0,0,.47.11,1.3,1.3,0,0,0,.55-.12,1.67,1.67,0,0,0,.47-.33,2.35,2.35,0,0,0,.41-.47,5.3,5.3,0,0,0,.33-.57c.09-.21.18-.41.25-.62s.12-.41.16-.61Z"/></g></svg>