<svg xmlns="http://www.w3.org/2000/svg" viewBox="0 0 251 280"><defs><style>.cls-1{fill:#fff;}.cls-2{fill:#75b9d1;}.cls-3{fill:#0072c6;opacity:0.5;}.cls-10,.cls-3,.cls-8{isolation:isolate;}.cls-4{fill:#198ab3;}.cls-5{fill:#5bcbe4;}.cls-6{fill:#32bedd;}.cls-7{fill:#e3e3e4;}.cls-8{fill:#3c3c41;}.cls-10,.cls-8{opacity:0.25;}.cls-9{fill:#c8c8ca;}.cls-10,.cls-11{fill:#ebebeb;}.cls-12{fill:none;stroke:#cec9c9;stroke-width:0.5px;}.cls-13{fill:#f9f9f9;}.cls-14{fill:#fcfcfc;}</style></defs><title>OJ104601291</title><g id="source"><g id="text_shapes" data-name="text+shapes"><g id="Shapes"><rect id="Rectangle-path" class="cls-1" x="0.13" width="250.12" height="279.74"/><g id="Group"><polygon id="Shape" class="cls-2" points="250.13 218.02 140.62 279.74 140.62 252.36 250.13 190.64 250.13 218.02"/><polygon class="cls-3" points="250.13 218.02 140.62 279.74 140.62 252.36 250.13 190.64 250.13 218.02"/></g><polygon class="cls-4" points="140.62 279.74 0.13 198.62 0.13 171.24 140.62 252.36 140.62 279.74"/><polygon class="cls-3" points="140.62 279.74 0.13 198.62 0.13 171.24 140.62 252.36 140.62 279.74"/><polygon class="cls-2" points="250.13 190.64 140.62 252.36 140.62 224.98 250.13 163.26 250.13 190.64"/><polygon class="cls-5" points="250.13 190.64 140.62 252.36 140.62 224.98 250.13 163.26 250.13 190.64"/><polygon class="cls-4" points="140.62 252.36 0.13 171.24 0.13 143.87 140.62 224.98 140.62 252.36"/><polygon class="cls-6" points="140.62 252.36 0.13 171.24 0.13 143.87 140.62 224.98 140.62 252.36"/><polygon class="cls-7" points="250.13 163.26 140.62 224.98 140.62 197.6 250.13 135.88 250.13 163.26"/><polygon class="cls-8" points="250.13 163.26 140.62 224.98 140.62 197.6 250.13 135.88 250.13 163.26"/><polygon class="cls-9" points="140.62 224.98 0.13 143.87 0.13 116.49 140.62 197.61 140.62 224.98"/><polygon class="cls-8" points="140.62 224.98 0.13 143.87 0.13 116.49 140.62 197.61 140.62 224.98"/><polygon class="cls-7" points="250.13 135.88 140.62 197.6 140.62 170.22 250.13 108.5 250.13 135.88"/><polygon class="cls-8" points="250.13 135.88 140.62 197.6 140.62 170.22 250.13 108.5 250.13 135.88"/><polygon class="cls-9" points="140.62 197.6 0.13 116.48 0.13 89.11 140.62 170.22 140.62 197.6"/><polygon class="cls-8" points="140.62 197.6 0.13 116.48 0.13 89.11 140.62 170.22 140.62 197.6"/><polygon class="cls-7" points="250.13 108.49 140.62 170.22 140.62 142.84 250.13 81.12 250.13 108.49"/><polygon class="cls-10" points="250.13 108.49 140.62 170.22 140.62 142.84 250.13 81.12 250.13 108.49"/><polygon class="cls-9" points="140.62 170.22 0.13 89.1 0.13 61.72 140.62 142.84 140.62 170.22"/><polygon class="cls-10" points="140.62 170.22 0.13 89.1 0.13 61.72 140.62 142.84 140.62 170.22"/><polygon class="cls-11" points="140.62 142.84 0.13 61.73 109.63 0 250.13 81.12 140.62 142.84"/><polyline class="cls-12" points="0.13 115.95 140.62 197.1 250.13 135.38"/></g></g></g><g id="text"><path d="M17.3,88.83l.12-1.56a5.55,5.55,0,0,0,.75,1A4.34,4.34,0,0,0,19,89a2.18,2.18,0,0,0,.45.21.82.82,0,0,0,.33,0,.31.31,0,0,0,.21-.11.47.47,0,0,0,.09-.25,1,1,0,0,0-.08-.42,2.34,2.34,0,0,0-.25-.46,4.16,4.16,0,0,0-.4-.5l-.49-.56a5.83,5.83,0,0,1-1-1.45,3,3,0,0,1-.26-1.39,1.51,1.51,0,0,1,.27-.83.85.85,0,0,1,.56-.34,1.7,1.7,0,0,1,.79.06,4.35,4.35,0,0,1,.92.42,8.54,8.54,0,0,1,.83.55,6.37,6.37,0,0,1,.66.6L21.55,86c-.1-.14-.2-.27-.32-.41a3.06,3.06,0,0,0-.36-.36,2.64,2.64,0,0,0-.37-.31,2.19,2.19,0,0,0-.35-.24,2.29,2.29,0,0,0-.43-.2.82.82,0,0,0-.33,0,.41.41,0,0,0-.22.1.44.44,0,0,0-.09.25.9.9,0,0,0,.05.36,2.21,2.21,0,0,0,.21.4c.1.14.21.29.34.45s.29.34.46.52.44.51.62.76a5,5,0,0,1,.47.73,3.76,3.76,0,0,1,.27.75,2.72,2.72,0,0,1,.05.81,1.6,1.6,0,0,1-.27.87.85.85,0,0,1-.57.34,1.77,1.77,0,0,1-.79-.1,4.73,4.73,0,0,1-.93-.43,7.49,7.49,0,0,1-.94-.65A5.26,5.26,0,0,1,17.3,88.83Z"/><path d="M26.54,89.29l-2.16,4.37c-.52,1-1.21,1.32-2.06.83a3.63,3.63,0,0,1-.78-.6l.09-1.22a2,2,0,0,0,.56.51c.35.21.6.16.76-.14l.28-.48-1.38-6,1.48.86.57,3.5a5.32,5.32,0,0,1,.07.74h0a3.25,3.25,0,0,1,.19-.58l1-2.57Z"/><path d="M26.43,94.3l.09-1.25a5.93,5.93,0,0,0,.63.73,3.86,3.86,0,0,0,.61.47,1.38,1.38,0,0,0,.57.21c.14,0,.22-.07.23-.22a.49.49,0,0,0-.08-.3,1.79,1.79,0,0,0-.22-.31L28,93.31,27.63,93c-.17-.18-.31-.34-.44-.5a5.41,5.41,0,0,1-.31-.47,2.27,2.27,0,0,1-.17-.5,2.49,2.49,0,0,1,0-.56,1,1,0,0,1,.21-.61.68.68,0,0,1,.46-.23,1.42,1.42,0,0,1,.62.09,4.53,4.53,0,0,1,.72.33l1.9,1.12.08-1.08,1.37.34-.12,1.51,1,.57-.09,1.13-1-.56-.15,2a1.05,1.05,0,0,0,.48,1.09.71.71,0,0,0,.44.11l-.08,1.14a1.9,1.9,0,0,1-.91-.33,2.49,2.49,0,0,1-1.28-2.52l.18-2.28-1.86-1.08-.24-.14-.21-.09a.19.19,0,0,0-.15,0,.18.18,0,0,0-.06.13.53.53,0,0,0,.06.24,1.48,1.48,0,0,0,.19.27l.26.28a3.83,3.83,0,0,1,.29.28,6.83,6.83,0,0,1,.46.51,2.79,2.79,0,0,1,.35.52,2.09,2.09,0,0,1,.21.54,2.25,2.25,0,0,1,0,.59,1.05,1.05,0,0,1-.23.66.71.71,0,0,1-.48.25,1.61,1.61,0,0,1-.66-.08,4.16,4.16,0,0,1-.75-.35A6.1,6.1,0,0,1,26.43,94.3Z"/><path d="M37.3,98.63,34.48,97a1.94,1.94,0,0,0,1.1,1.77,2.06,2.06,0,0,0,1.29.34l-.09,1.11a3.05,3.05,0,0,1-1.58-.53,4.1,4.1,0,0,1-1.58-1.62,4,4,0,0,1-.43-2.2A1.83,1.83,0,0,1,34,94.25a1.59,1.59,0,0,1,1.59.17A3.51,3.51,0,0,1,37,95.92,3.91,3.91,0,0,1,37.35,98ZM36.13,97a1.44,1.44,0,0,0-.66-1.5.51.51,0,0,0-.58,0,.89.89,0,0,0-.35.6Z"/><path d="M44.79,105.15l-1.33-.78.22-2.84a1.44,1.44,0,0,0-.61-1.49.45.45,0,0,0-.56,0,1.06,1.06,0,0,0-.27.7L42,103.54l-1.33-.78.22-2.87a1.43,1.43,0,0,0-.6-1.46.46.46,0,0,0-.57,0,1,1,0,0,0-.27.72l-.21,2.77-1.34-.77.38-5,1.34.78-.06.78h0a.87.87,0,0,1,.63-.31,1.38,1.38,0,0,1,.84.22,2.51,2.51,0,0,1,1.18,1.66c.38-.43.88-.45,1.52-.08A2.74,2.74,0,0,1,45,102.05Z"/><path d="M49.62,107.36h0l-.22,2.87-1.33-.77.55-7.28,1.33.77-.06.75h0a1.1,1.1,0,0,1,1.46-.06,3,3,0,0,1,1.24,1.42,4.33,4.33,0,0,1,.32,2.08,2.24,2.24,0,0,1-.68,1.69,1.27,1.27,0,0,1-1.48-.07A2.67,2.67,0,0,1,49.62,107.36Zm.12-2.07,0,.4a1.92,1.92,0,0,0,.17,1,1.46,1.46,0,0,0,.6.69.58.58,0,0,0,.74,0,1.55,1.55,0,0,0,.33-1,1.77,1.77,0,0,0-.78-1.83.6.6,0,0,0-.7,0A1,1,0,0,0,49.74,105.29Z"/><path d="M54.92,111.06l-1.33-.78.56-7.38,1.33.78Z"/><path d="M57.37,112.49,56,111.71l.38-5,1.33.78Zm-.21-6.16a1.43,1.43,0,0,1-.54-.55,1.23,1.23,0,0,1-.17-.7.47.47,0,0,1,.26-.44.67.67,0,0,1,.57.11,1.45,1.45,0,0,1,.53.54A1.18,1.18,0,0,1,58,106a.47.47,0,0,1-.25.45A.63.63,0,0,1,57.16,106.33Z"/><path d="M62.82,115.67l-1.6-.94L60,111.46h0l-.19,2.47-1.33-.78.56-7.38,1.33.78-.36,4.7h0l1.46-1.56,1.58.93-1.72,1.44Z"/><path d="M65.25,117.21a4.16,4.16,0,0,1-1.64-1.69,4,4,0,0,1-.48-2.25c.07-.83.33-1.35.79-1.57a2,2,0,0,1,1.79.32,4.24,4.24,0,0,1,1.63,1.68,4,4,0,0,1,.47,2.2,1.79,1.79,0,0,1-.78,1.6A1.86,1.86,0,0,1,65.25,117.21Zm.34-4c-.31-.18-.57-.2-.76-.05a1.21,1.21,0,0,0-.34.91,2,2,0,0,0,.89,2c.64.37,1,.06,1.07-.92A1.89,1.89,0,0,0,65.59,113.18Zm1.69-2.58-1.44.8-1-.56,1.22-.94Z"/><path d="M75.11,117.63l-1.62,4.26-1.4-.82-.42-3.29a5.1,5.1,0,0,1,0-.68h0a3,3,0,0,1-.14.56l-.9,2.55-1.39-.81-.84-5.7,1.36.8.35,3.59a5.44,5.44,0,0,1,0,.6h0a2.63,2.63,0,0,1,.12-.53l1-2.8,1.27.74.42,3.64c0,.09,0,.29,0,.6l0,0a4.52,4.52,0,0,1,.11-.53l.81-2.92Z"/><path d="M82.08,126.9l-1.6-.93-1.19-3.28h0l-.19,2.47-1.33-.78.56-7.38,1.33.78-.35,4.7h0l1.46-1.55,1.59.92-1.73,1.44Z"/><path d="M84.5,128.44a4.23,4.23,0,0,1-1.64-1.69,4,4,0,0,1-.47-2.25q.09-1.25.78-1.56a1.92,1.92,0,0,1,1.79.31,4.18,4.18,0,0,1,1.63,1.68,4,4,0,0,1,.48,2.21,1.82,1.82,0,0,1-.78,1.59A1.85,1.85,0,0,1,84.5,128.44Zm.35-4c-.32-.18-.57-.2-.77,0a1.27,1.27,0,0,0-.34.91,2,2,0,0,0,.9,2c.63.37,1,.07,1.07-.92A1.91,1.91,0,0,0,84.85,124.41Z"/><path d="M91.91,132.63l-1.33-.77.21-2.77a1.53,1.53,0,0,0-.63-1.58.51.51,0,0,0-.59,0,.82.82,0,0,0-.29.65L89.07,131l-1.34-.78.38-5,1.34.77-.06.79h0c.37-.42.85-.45,1.46-.1a2.8,2.8,0,0,1,1.28,2.89Z"/><path d="M95.58,134.71a1.9,1.9,0,0,1-.91-.33,2.49,2.49,0,0,1-1.28-2.52l.18-2.28-.7-.41L93,128l.7.41.08-1.08,1.37.34L95,129.22l1,.57-.09,1.13-1-.56-.15,2a1,1,0,0,0,.48,1.09.79.79,0,0,0,.44.12Z"/><path d="M100.33,135.4l-2.82-1.64a1.94,1.94,0,0,0,1.1,1.77,2.11,2.11,0,0,0,1.28.35L99.81,137a3.24,3.24,0,0,1-1.59-.54,4.07,4.07,0,0,1-1.57-1.62,4,4,0,0,1-.44-2.2A1.87,1.87,0,0,1,97,131a1.59,1.59,0,0,1,1.59.17,3.51,3.51,0,0,1,1.41,1.5,3.9,3.9,0,0,1,.38,2.06Zm-1.17-1.67a1.44,1.44,0,0,0-.67-1.5.51.51,0,0,0-.58,0,.88.88,0,0,0-.34.6Z"/><path d="M105.13,140.35l-1.33-.77.22-2.77a1.55,1.55,0,0,0-.63-1.58.53.53,0,0,0-.6,0,.85.85,0,0,0-.28.65l-.22,2.84-1.33-.77.38-5,1.33.78-.06.79h0a1,1,0,0,1,1.46-.1,2.81,2.81,0,0,1,1.28,2.89Z"/><path d="M110.22,141.18l-2.81-1.65a1.94,1.94,0,0,0,1.1,1.78,2,2,0,0,0,1.28.34l-.08,1.11a3.14,3.14,0,0,1-1.59-.54,3.92,3.92,0,0,1-1.57-1.61,4,4,0,0,1-.44-2.21,1.84,1.84,0,0,1,.78-1.6,1.57,1.57,0,0,1,1.59.17,3.51,3.51,0,0,1,1.41,1.5,3.88,3.88,0,0,1,.38,2.06Zm-1.16-1.67a1.47,1.47,0,0,0-.67-1.51.53.53,0,0,0-.58,0,.93.93,0,0,0-.34.6Z"/><path d="M114,141.74a1.69,1.69,0,0,0-.55-.48.59.59,0,0,0-.71,0,1.26,1.26,0,0,0-.32.86l-.18,2.38-1.33-.78.38-5,1.33.77-.07.93h0a.75.75,0,0,1,1.21-.35,1.35,1.35,0,0,1,.33.25Z"/><path d="M117.89,147.79l-1.26-.73.05-.72h0c-.33.39-.79.42-1.35.09a2.46,2.46,0,0,1-1.24-2.3c.08-1,.61-1.23,1.62-.8l1.18.5a1.25,1.25,0,0,0-.7-1.26,2.18,2.18,0,0,0-1.51-.33l.09-1.16a2.88,2.88,0,0,1,.78.15,4.87,4.87,0,0,1,.89.39,3.18,3.18,0,0,1,1.69,3.2Zm-1.1-2.75,0-.34-.8-.34c-.43-.19-.67-.09-.7.3a.92.92,0,0,0,.13.52,1,1,0,0,0,.41.42.59.59,0,0,0,.64.06A.75.75,0,0,0,116.79,145Z"/><path d="M160.65,151.29l-4.87,2.85-.05-.91,2.85-6.62-2.88,1.69-.06-1.29,4.63-2.71,0,.88-2.78,6.61,3-1.78Z"/><path d="M170.81,145.34l-1.32.78-.15-2.85c0-.72-.29-1-.75-.68a1.31,1.31,0,0,0-.52.64,2,2,0,0,0-.16.93l.14,2.8-1.33.78-.15-2.88c0-.7-.28-.93-.73-.66a1.24,1.24,0,0,0-.53.63,2,2,0,0,0-.16,1l.14,2.77-1.33.78-.26-5,1.33-.78,0,.78h0a3.43,3.43,0,0,1,.54-1,2.77,2.77,0,0,1,.81-.73c.6-.36,1-.29,1.3.2a3.22,3.22,0,0,1,1.4-1.78c.94-.55,1.44-.15,1.51,1.19Z"/><path d="M174,143.6a1.84,1.84,0,0,1-1.74.29,1.69,1.69,0,0,1-.71-1.54,4,4,0,0,1,.54-2.31,4.5,4.5,0,0,1,1.69-1.72,1.8,1.8,0,0,1,1.72-.28,1.61,1.61,0,0,1,.71,1.49,4.28,4.28,0,0,1-.52,2.33A4.48,4.48,0,0,1,174,143.6Zm-.18-4.08a1.76,1.76,0,0,0-.72.8,2.54,2.54,0,0,0-.2,1.22c.05,1,.41,1.24,1.08.85a2,2,0,0,0,.88-2C174.83,139.42,174.48,139.14,173.84,139.52Z"/><path d="M180.74,139.54l-3.88,2.27,0-.64,2-4.49-2,1.14-.06-1.13,3.65-2.13,0,.76-1.89,4.29,2.07-1.21Zm-2.13-4.72a.51.51,0,0,1-.47.08.39.39,0,0,1-.21-.37,1,1,0,0,1,.16-.58,1.29,1.29,0,0,1,.45-.45.55.55,0,0,1,.47-.09.39.39,0,0,1,.21.37,1,1,0,0,1-.16.58A1.17,1.17,0,0,1,178.61,134.82Z"/><path d="M182.87,138.29l-1.33.78-.39-7.39,1.33-.78Z"/><path d="M184.45,131.41a.62.62,0,0,1-.57.09.46.46,0,0,1-.24-.44,1.27,1.27,0,0,1,.18-.69,1.67,1.67,0,0,1,.54-.55.66.66,0,0,1,.57-.1.44.44,0,0,1,.24.44,1.13,1.13,0,0,1-.18.7A1.43,1.43,0,0,1,184.45,131.41Zm1,5.4-1.33.78-.26-5,1.33-.78Z"/><path d="M192.61,127.45l-1,5.72-1.4.82-.79-2.55a3.12,3.12,0,0,1-.1-.6l0,0a4,4,0,0,1-.05.66l-.53,3.35-1.38.81-1.48-4.28,1.36-.8.76,2.91a4,4,0,0,1,.1.52h0a3.61,3.61,0,0,1,.05-.62l.57-3.67L190,129l.84,2.87a4.09,4.09,0,0,1,.08.53l0,0c0-.19,0-.39,0-.6l.39-3.59Z"/><path d="M195.61,131a1.81,1.81,0,0,1-1.74.29c-.43-.22-.67-.74-.71-1.54a4.07,4.07,0,0,1,.54-2.31,4.41,4.41,0,0,1,1.69-1.71,1.78,1.78,0,0,1,1.72-.29,1.65,1.65,0,0,1,.71,1.49,4.25,4.25,0,0,1-.53,2.34A4.43,4.43,0,0,1,195.61,131Zm-.18-4.08a1.78,1.78,0,0,0-.72.81,2.47,2.47,0,0,0-.2,1.21c.05,1,.41,1.24,1.08.85a2,2,0,0,0,.88-2C196.42,126.79,196.07,126.52,195.43,126.89Z"/><path d="M198.62,129l-.07-1.25a2.23,2.23,0,0,0,.68,0,2.6,2.6,0,0,0,.62-.25,2.16,2.16,0,0,0,.55-.44.68.68,0,0,0,.19-.46c0-.1,0-.16-.11-.19a.44.44,0,0,0-.24,0,1.39,1.39,0,0,0-.33,0l-.34.06a2,2,0,0,1-.47,0,.76.76,0,0,1-.34-.11.58.58,0,0,1-.22-.28,1.24,1.24,0,0,1-.1-.49,2,2,0,0,1,.12-.81,2.8,2.8,0,0,1,.4-.74,3.9,3.9,0,0,1,.58-.64,4.81,4.81,0,0,1,.71-.5,4.48,4.48,0,0,1,.58-.29,3.37,3.37,0,0,1,.59-.19l.06,1.19a1.33,1.33,0,0,0-.55.06,2.06,2.06,0,0,0-.57.25,1.38,1.38,0,0,0-.25.17,1.21,1.21,0,0,0-.2.19.71.71,0,0,0-.13.22.39.39,0,0,0,0,.21.23.23,0,0,0,.08.19.46.46,0,0,0,.21,0l.28,0,.3-.06a3.13,3.13,0,0,1,.5,0,.92.92,0,0,1,.38.08.68.68,0,0,1,.26.27,1.22,1.22,0,0,1,.11.49,2.25,2.25,0,0,1-.13.86,3.16,3.16,0,0,1-.41.77,3.92,3.92,0,0,1-.63.66,4.76,4.76,0,0,1-.74.53A3.93,3.93,0,0,1,198.62,129Zm2.68-9-1.23,2.34-1,.57,1-2.22Z"/><path d="M206.05,124.55a4.38,4.38,0,0,1-1.28,1.06,1.71,1.71,0,0,1-1.65.25,1.57,1.57,0,0,1-.71-1.44A4.42,4.42,0,0,1,203,122a4.6,4.6,0,0,1,1.73-1.77,2.11,2.11,0,0,1,1.12-.41l.07,1.3a1.29,1.29,0,0,0-1,.19,2.38,2.38,0,0,0-1.16,2.18,1,1,0,0,0,.37.86.92.92,0,0,0,.9-.14,3.21,3.21,0,0,0,1-.93Z"/><path d="M207.39,118a.6.6,0,0,1-.56.09.45.45,0,0,1-.25-.44,1.21,1.21,0,0,1,.19-.69,1.4,1.4,0,0,1,.54-.54.62.62,0,0,1,.56-.11.46.46,0,0,1,.25.44,1.22,1.22,0,0,1-.19.7A1.43,1.43,0,0,1,207.39,118Zm1,5.4-1.33.78-.26-5,1.33-.77Z"/><path d="M213.15,120.58l-1.26.74,0-.72h0a2.89,2.89,0,0,1-1.24,1.59,1.07,1.07,0,0,1-1,.17,1,1,0,0,1-.41-.89,2.93,2.93,0,0,1,1.4-2.55l1.16-.86c0-.55-.3-.67-.81-.37a4.7,4.7,0,0,0-1.44,1.39l-.06-1.17a7.35,7.35,0,0,1,.74-.73,5.81,5.81,0,0,1,.88-.64c1.23-.72,1.88-.37,2,1Zm-1.36-1.29V119l-.78.57a1.27,1.27,0,0,0-.62,1.06.34.34,0,0,0,.19.34.49.49,0,0,0,.43-.08,1.61,1.61,0,0,0,.6-.66A1.77,1.77,0,0,0,211.79,119.29Zm.83,3.61-.24.21a1.87,1.87,0,0,1-.29.2.68.68,0,0,1-.58.12c-.15-.06-.24-.23-.25-.51a1,1,0,0,1,0-.34,1.64,1.64,0,0,1,.12-.4,3.26,3.26,0,0,1,.2-.43,3.61,3.61,0,0,1,.29-.43l.65-.38a4.75,4.75,0,0,0-.46.82,1.49,1.49,0,0,0-.13.57.22.22,0,0,0,.08.2.23.23,0,0,0,.2,0l.17-.11a1.14,1.14,0,0,0,.17-.15Z"/><path d="M220.18,116.47l-3.88,2.27,0-.64,2-4.49-2,1.15-.06-1.14,3.64-2.13,0,.76-1.89,4.3,2.07-1.21Z"/><path d="M224.57,113.9l-1.26.74,0-.72h0a2.86,2.86,0,0,1-1.25,1.59,1,1,0,0,1-1,.17,1,1,0,0,1-.41-.89,2.93,2.93,0,0,1,1.4-2.55l1.16-.86c0-.55-.3-.67-.81-.37a4.59,4.59,0,0,0-1.44,1.39l-.06-1.16a6.41,6.41,0,0,1,.74-.74,5.81,5.81,0,0,1,.88-.64c1.23-.72,1.88-.37,2,1Zm-1.36-1.29v-.34l-.78.58a1.24,1.24,0,0,0-.62,1.05.34.34,0,0,0,.19.34.46.46,0,0,0,.43-.08,1.61,1.61,0,0,0,.6-.66A1.77,1.77,0,0,0,223.21,112.61Z"/><path d="M227,111.87h0l.15,2.87-1.33.78-.38-7.29,1.33-.78,0,.76h0a3.13,3.13,0,0,1,1.34-1.69c.56-.32,1-.36,1.33-.09a2,2,0,0,1,.55,1.54,4.74,4.74,0,0,1-.43,2.32,3.49,3.49,0,0,1-1.38,1.59C227.73,112.18,227.33,112.18,227,111.87Zm-.15-2,0,.4a.91.91,0,0,0,.29.71.55.55,0,0,0,.63,0,1.66,1.66,0,0,0,.69-.82,3.1,3.1,0,0,0,.19-1.3c0-.88-.37-1.14-1-.8a1.67,1.67,0,0,0-.65.75A2.28,2.28,0,0,0,226.88,109.84Z"/><path d="M231.52,103.88a.6.6,0,0,1-.56.09.47.47,0,0,1-.25-.44,1.21,1.21,0,0,1,.19-.69,1.43,1.43,0,0,1,.54-.55.64.64,0,0,1,.56-.1.46.46,0,0,1,.25.44,1.24,1.24,0,0,1-.19.7A1.5,1.5,0,0,1,231.52,103.88Zm1,5.4-1.33.78-.26-5,1.33-.78Z"/><path d="M233.4,108.6l-.07-1.24a1.94,1.94,0,0,0,.68,0,2,2,0,0,0,.62-.25,2,2,0,0,0,.55-.43.63.63,0,0,0,.19-.46.18.18,0,0,0-.1-.19.62.62,0,0,0-.25,0l-.33.06a2,2,0,0,1-.34.06,1.85,1.85,0,0,1-.46,0,.76.76,0,0,1-.35-.1.63.63,0,0,1-.22-.28,1.5,1.5,0,0,1-.1-.49,2.21,2.21,0,0,1,.12-.81,3.19,3.19,0,0,1,.4-.75,3.5,3.5,0,0,1,.59-.63,4.25,4.25,0,0,1,.7-.5,3.49,3.49,0,0,1,.58-.29,3.66,3.66,0,0,1,.59-.19l.06,1.19a1.33,1.33,0,0,0-.55.06,2,2,0,0,0-.57.24,2.2,2.2,0,0,0-.25.17c-.07.07-.14.13-.2.2a.8.8,0,0,0-.13.21.45.45,0,0,0,0,.22.21.21,0,0,0,.09.19.39.39,0,0,0,.2,0l.28,0,.31-.06a2.2,2.2,0,0,1,.49,0,.89.89,0,0,1,.38.08.59.59,0,0,1,.26.26,1.28,1.28,0,0,1,.11.5,2.1,2.1,0,0,1-.13.86,3,3,0,0,1-.41.77,4.29,4.29,0,0,1-.62.66,5.38,5.38,0,0,1-.75.53A3.89,3.89,0,0,1,233.4,108.6Z"/><path d="M241.68,103.9l-1.33.78,0-.76h0a3.11,3.11,0,0,1-1.28,1.65c-1,.59-1.53.18-1.61-1.22l-.15-3,1.32-.78.15,2.88q.06,1,.78.63a1.38,1.38,0,0,0,.56-.63,1.84,1.84,0,0,0,.18-.91l-.15-2.86,1.32-.77Z"/><path d="M57.63,139.08a5.29,5.29,0,0,1-2.06-2.2,5.65,5.65,0,0,1-.65-3,2.61,2.61,0,0,1,1-2.2,2.21,2.21,0,0,1,2.29.25,5.11,5.11,0,0,1,2,2.18,5.67,5.67,0,0,1,.62,3,2.52,2.52,0,0,1-1,2.17A2.15,2.15,0,0,1,57.63,139.08Zm.46-5.84a1,1,0,0,0-1.18,0,2,2,0,0,0-.54,1.41,3.89,3.89,0,0,0,.31,1.88,2.58,2.58,0,0,0,1.07,1.24,1,1,0,0,0,1.16.06,1.88,1.88,0,0,0,.53-1.39,4.06,4.06,0,0,0-.29-1.92A2.51,2.51,0,0,0,58.09,133.24Z"/><path d="M62.91,141.38h0l0,.58-1.33-.77L62,133.8l1.33.76-.21,3.15h0q.56-.58,1.47-.06a2.94,2.94,0,0,1,1.25,1.4,4.39,4.39,0,0,1,.33,2.07,2.25,2.25,0,0,1-.67,1.7,1.26,1.26,0,0,1-1.47-.05A2.69,2.69,0,0,1,62.91,141.38Zm.11-2.13,0,.51a1.81,1.81,0,0,0,.19.94,1.41,1.41,0,0,0,.6.67c.3.18.55.18.73,0a1.47,1.47,0,0,0,.33-1,2.28,2.28,0,0,0-.16-1.1,1.51,1.51,0,0,0-.63-.73.64.64,0,0,0-.7,0A.92.92,0,0,0,63,139.25Z"/><path d="M70,142.29a1.91,1.91,0,0,0-.55-.47.59.59,0,0,0-.71,0,1.23,1.23,0,0,0-.31.86L68.23,145l-1.34-.77.35-5,1.34.77-.07.92h0a.75.75,0,0,1,1.21-.35,1.29,1.29,0,0,1,.33.25Z"/><path d="M74,148.32l-1.26-.73,0-.71h0q-.5.58-1.35.09a2.47,2.47,0,0,1-1-1,2.38,2.38,0,0,1-.28-1.3c.07-1,.6-1.24,1.61-.82l1.19.5a1.28,1.28,0,0,0-.72-1.27,2.22,2.22,0,0,0-1.51-.31l.08-1.16a2.87,2.87,0,0,1,.79.15,3.79,3.79,0,0,1,.89.38,3.16,3.16,0,0,1,1.71,3.19Zm-1.12-2.75,0-.33-.8-.34c-.44-.18-.67-.08-.7.3a1,1,0,0,0,.13.53,1.1,1.1,0,0,0,.42.41.57.57,0,0,0,.63.05A.71.71,0,0,0,72.83,145.57Z"/><path d="M78.44,150.9l-3.89-2.23,0-.64,2.4-2-2-1.12.07-1.14,3.66,2.1,0,.76-2.28,1.91,2.08,1.2Z"/><path d="M59.11,167.29a5.23,5.23,0,0,1-2.06-2.2,5.51,5.51,0,0,1-.64-3,2.54,2.54,0,0,1,1-2.2,2.16,2.16,0,0,1,2.28.24,5.2,5.2,0,0,1,2,2.19,5.74,5.74,0,0,1,.63,3,2.57,2.57,0,0,1-1,2.18A2.18,2.18,0,0,1,59.11,167.29Zm.47-5.84a1,1,0,0,0-1.19,0,1.92,1.92,0,0,0-.54,1.4,3.87,3.87,0,0,0,.31,1.88,2.59,2.59,0,0,0,1.07,1.24,1,1,0,0,0,1.16.06,1.82,1.82,0,0,0,.53-1.39,4,4,0,0,0-.29-1.92A2.54,2.54,0,0,0,59.58,161.45Z"/><path d="M64.39,169.59h0l0,.58L63,169.39l.51-7.38,1.34.77-.22,3.14h0q.55-.59,1.47-.06a3,3,0,0,1,1.24,1.41,4.35,4.35,0,0,1,.33,2.07,2.27,2.27,0,0,1-.67,1.7,1.25,1.25,0,0,1-1.47-.06A2.66,2.66,0,0,1,64.39,169.59Zm.11-2.12,0,.51a1.85,1.85,0,0,0,.19.94,1.51,1.51,0,0,0,.6.67.58.58,0,0,0,.73,0,1.55,1.55,0,0,0,.34-1,2.43,2.43,0,0,0-.17-1.1,1.56,1.56,0,0,0-.63-.73.62.62,0,0,0-.69,0A.89.89,0,0,0,64.5,167.47Z"/><path d="M71.45,170.51a1.94,1.94,0,0,0-.55-.48.6.6,0,0,0-.71,0,1.21,1.21,0,0,0-.31.86l-.17,2.38-1.34-.77.35-5,1.34.77-.07.93h0a.75.75,0,0,1,1.21-.36,1.14,1.14,0,0,1,.33.25Z"/><path d="M75.43,176.54l-1.26-.73,0-.72h0c-.33.39-.78.43-1.35.1a2.44,2.44,0,0,1-1-1,2.33,2.33,0,0,1-.29-1.31c.07-1,.6-1.24,1.61-.82l1.19.5a1.26,1.26,0,0,0-.71-1.26,2.24,2.24,0,0,0-1.51-.32l.08-1.16A2.88,2.88,0,0,1,73,170a4.26,4.26,0,0,1,.89.38,3.16,3.16,0,0,1,1.71,3.19Zm-1.11-2.75,0-.34-.8-.33c-.44-.19-.67-.09-.7.3a1,1,0,0,0,.13.52,1.1,1.1,0,0,0,.42.41.59.59,0,0,0,.64.06A.78.78,0,0,0,74.32,173.79Z"/><path d="M79.93,179.11,76,176.88l0-.64,2.4-2-2-1.13L76.6,172l3.65,2.1,0,.76-2.27,1.91L80,178Z"/><path d="M32,180.15a5.21,5.21,0,0,1-2-2.2,5.54,5.54,0,0,1-.65-3,2.62,2.62,0,0,1,1-2.2,2.19,2.19,0,0,1,2.28.25,5.16,5.16,0,0,1,2,2.19,5.73,5.73,0,0,1,.62,3,2.54,2.54,0,0,1-1,2.18A2.18,2.18,0,0,1,32,180.15Zm.47-5.84a1,1,0,0,0-1.19,0,1.88,1.88,0,0,0-.53,1.4,3.76,3.76,0,0,0,.31,1.88,2.57,2.57,0,0,0,1.06,1.24,1,1,0,0,0,1.17.06,1.84,1.84,0,0,0,.52-1.39,4.1,4.1,0,0,0-.28-1.92A2.51,2.51,0,0,0,32.46,174.31Z"/><path d="M37.28,182.45h0l0,.58-1.34-.77.51-7.38,1.34.77-.22,3.14h0q.55-.58,1.47-.06a3,3,0,0,1,1.25,1.4,4.29,4.29,0,0,1,.32,2.08,2.26,2.26,0,0,1-.66,1.7,1.25,1.25,0,0,1-1.47-.06A2.66,2.66,0,0,1,37.28,182.45Zm.1-2.12,0,.51a1.85,1.85,0,0,0,.19.94,1.49,1.49,0,0,0,.59.67.59.59,0,0,0,.74,0,1.5,1.5,0,0,0,.33-1,2.43,2.43,0,0,0-.16-1.1,1.52,1.52,0,0,0-.64-.73.62.62,0,0,0-.69,0A1,1,0,0,0,37.38,180.33Z"/><path d="M44.34,183.37a1.84,1.84,0,0,0-.56-.48.57.57,0,0,0-.7,0,1.21,1.21,0,0,0-.32.86l-.16,2.38-1.34-.77.34-5,1.34.77-.06.93h0a.75.75,0,0,1,1.21-.36,1.29,1.29,0,0,1,.33.25Z"/><path d="M48.32,189.39l-1.27-.72.05-.72h0c-.32.39-.77.43-1.34.1a2.45,2.45,0,0,1-1.26-2.29c.07-1,.61-1.24,1.62-.82l1.19.5a1.29,1.29,0,0,0-.72-1.26,2.24,2.24,0,0,0-1.51-.32l.08-1.16a2.94,2.94,0,0,1,.79.15,4.77,4.77,0,0,1,.89.38,3.17,3.17,0,0,1,1.7,3.19Zm-1.12-2.74,0-.34-.79-.34c-.44-.18-.67-.08-.7.31a.92.92,0,0,0,.13.52,1.1,1.1,0,0,0,.42.41.57.57,0,0,0,.63.06A.75.75,0,0,0,47.2,186.65Z"/><path d="M52.81,192l-3.89-2.23,0-.64,2.4-2-2-1.13.08-1.13,3.66,2.1,0,.76-2.28,1.91,2.08,1.19Z"/><path d="M57.32,194h0l-.2,2.87-1.34-.77.51-7.28,1.34.77-.06.75h0a1.09,1.09,0,0,1,1.46-.07,2.92,2.92,0,0,1,1.25,1.41,4.27,4.27,0,0,1,.34,2.07,2.25,2.25,0,0,1-.68,1.7,1.26,1.26,0,0,1-1.48-.06A2.64,2.64,0,0,1,57.32,194Zm.1-2.07,0,.4a2.06,2.06,0,0,0,.18,1,1.49,1.49,0,0,0,.6.68c.31.18.55.18.74,0a1.47,1.47,0,0,0,.33-1,1.76,1.76,0,0,0-.8-1.83.6.6,0,0,0-.69,0A1.05,1.05,0,0,0,57.42,191.89Z"/><path d="M63.36,198.16a4.32,4.32,0,0,1-1.66-1.68,4.11,4.11,0,0,1-.49-2.25c.06-.83.32-1.35.78-1.57a1.94,1.94,0,0,1,1.79.3,4.21,4.21,0,0,1,1.65,1.67,4.07,4.07,0,0,1,.48,2.2,1.79,1.79,0,0,1-.77,1.6A1.85,1.85,0,0,1,63.36,198.16Zm.31-4a.65.65,0,0,0-.76,0,1.25,1.25,0,0,0-.34.91,2,2,0,0,0,.91,2c.64.37,1,.06,1.07-.92A1.91,1.91,0,0,0,63.67,194.12Z"/><path d="M70.85,202.33l-1.34-.77,0-.69h0c-.34.37-.81.38-1.4,0a3.11,3.11,0,0,1-1.26-1.41,4.14,4.14,0,0,1-.37-2.13,2.16,2.16,0,0,1,.68-1.67,1.32,1.32,0,0,1,1.49.08,2.39,2.39,0,0,1,1.12,1.36h0l.21-3,1.34.76Zm-1.15-3.18,0-.38a1.89,1.89,0,0,0-.19-1,1.58,1.58,0,0,0-.62-.68q-.45-.25-.72,0a1.39,1.39,0,0,0-.33,1,2.47,2.47,0,0,0,.17,1.15,1.53,1.53,0,0,0,.65.74.57.57,0,0,0,.69,0A1.22,1.22,0,0,0,69.7,199.15Z"/><path d="M71.7,202.68l.08-1.25a4.7,4.7,0,0,0,.64.73,3.75,3.75,0,0,0,.61.46,1.25,1.25,0,0,0,.57.21c.14,0,.22-.07.23-.22a.49.49,0,0,0-.08-.3,1.45,1.45,0,0,0-.23-.31,3,3,0,0,0-.31-.31l-.32-.32c-.16-.18-.31-.34-.44-.5a2.54,2.54,0,0,1-.31-.47,2.22,2.22,0,0,1-.18-.49,2.09,2.09,0,0,1,0-.57,1,1,0,0,1,.21-.61.66.66,0,0,1,.45-.23,1.48,1.48,0,0,1,.63.09,3.39,3.39,0,0,1,.71.32l1.91,1.1.08-1.07,1.36.32-.1,1.52,1,.56-.08,1.13-1-.56-.14,2a1.07,1.07,0,0,0,.48,1.09.81.81,0,0,0,.45.11l-.08,1.14a2,2,0,0,1-.9-.34,2.45,2.45,0,0,1-1.3-2.5l.16-2.28-1.86-1.07-.25-.14-.21-.09h-.14a.17.17,0,0,0-.07.13.5.5,0,0,0,.07.25,1.31,1.31,0,0,0,.19.26,3.2,3.2,0,0,0,.26.28,3.83,3.83,0,0,1,.29.28c.17.17.33.34.47.51a3.87,3.87,0,0,1,.35.51,2.52,2.52,0,0,1,.21.54,1.89,1.89,0,0,1,0,.59,1.05,1.05,0,0,1-.22.66.72.72,0,0,1-.48.26,1.61,1.61,0,0,1-.66-.08,4.87,4.87,0,0,1-.75-.34A5.91,5.91,0,0,1,71.7,202.68Z"/><path d="M82.17,208.83l-1.27-.73,0-.71h0q-.5.59-1.35.09a2.35,2.35,0,0,1-1-1,2.39,2.39,0,0,1-.29-1.3c.07-1,.61-1.24,1.62-.82l1.19.49a1.29,1.29,0,0,0-.72-1.26,2.23,2.23,0,0,0-1.51-.31l.08-1.16a2.79,2.79,0,0,1,.79.14,4.79,4.79,0,0,1,.89.39,3.19,3.19,0,0,1,1.71,3.19Zm-1.12-2.75,0-.33-.79-.34c-.44-.18-.67-.08-.7.3a1,1,0,0,0,.13.53,1.1,1.1,0,0,0,.42.41.59.59,0,0,0,.63,0A.74.74,0,0,0,81.05,206.08Z"/><path d="M89.85,208.06l-1.59,4.27-1.41-.81-.43-3.29a3.83,3.83,0,0,1,0-.68h0a3.51,3.51,0,0,1-.13.57l-.89,2.54L84,209.86l-.88-5.69,1.36.78.37,3.59a5.21,5.21,0,0,1,0,.6h0a2.63,2.63,0,0,1,.12-.53l1-2.81,1.27.74.45,3.63c0,.1,0,.29,0,.6l0,0a4.51,4.51,0,0,1,.1-.53l.79-2.93Z"/><path d="M92.16,214.69A4.19,4.19,0,0,1,90.5,213a4.09,4.09,0,0,1-.49-2.25c.06-.82.32-1.35.78-1.57a2,2,0,0,1,1.79.31,4.06,4.06,0,0,1,1.64,1.67,4,4,0,0,1,.49,2.2,1.79,1.79,0,0,1-.77,1.6A1.85,1.85,0,0,1,92.16,214.69Zm.31-4c-.31-.18-.57-.2-.76,0a1.27,1.27,0,0,0-.34.91,2,2,0,0,0,.91,2c.64.37,1,.06,1.07-.93A1.89,1.89,0,0,0,92.47,210.66Z"/><path d="M102,215l-1.6,4.28-1.4-.81-.44-3.29a3.83,3.83,0,0,1,0-.68h0a3.13,3.13,0,0,1-.13.56l-.89,2.55-1.39-.79-.88-5.69,1.37.78.37,3.6c0,.16,0,.36,0,.59h0a3.71,3.71,0,0,1,.11-.53l1-2.81,1.28.74.44,3.63c0,.09,0,.29,0,.6l0,0a4.52,4.52,0,0,1,.11-.53l.79-2.93Z"/><path d="M106.79,217.78l-2.13,4.38c-.52,1.05-1.2,1.33-2,.84a3.44,3.44,0,0,1-.79-.58l.08-1.23a1.94,1.94,0,0,0,.57.51c.34.2.6.15.76-.15l.27-.48-1.42-6,1.48.85.6,3.5a5,5,0,0,1,.07.73h0a3.87,3.87,0,0,1,.19-.58l1-2.57Z"/><path d="M167.2,173.47l-.37-7,2.15-1.25c2.14-1.25,3.27-.75,3.4,1.53a5.79,5.79,0,0,1-.75,3.12,6.06,6.06,0,0,1-2.29,2.34Zm1.06-6.51.24,4.43.67-.39a3.53,3.53,0,0,0,1.36-1.43,3.76,3.76,0,0,0,.41-2,1.42,1.42,0,0,0-.58-1.28,1.52,1.52,0,0,0-1.43.25Z"/><path d="M175.58,168.69a1.79,1.79,0,0,1-1.73.29,1.72,1.72,0,0,1-.72-1.54,4.24,4.24,0,0,1,.54-2.31,4.5,4.5,0,0,1,1.7-1.71,1.78,1.78,0,0,1,1.72-.29,1.65,1.65,0,0,1,.71,1.49,4.34,4.34,0,0,1-.53,2.34A4.39,4.39,0,0,1,175.58,168.69Zm-.17-4.08a1.73,1.73,0,0,0-.72.81,2.47,2.47,0,0,0-.2,1.21c0,1,.41,1.25,1.07.85a2,2,0,0,0,.88-2C176.39,164.51,176.05,164.24,175.41,164.61Z"/><path d="M183.11,164.16l-1.33.78,0-.69h0a3,3,0,0,1-1.29,1.6,1.21,1.21,0,0,1-1.34.1,2,2,0,0,1-.59-1.56,4.78,4.78,0,0,1,.44-2.3,3.49,3.49,0,0,1,1.39-1.58c.55-.33.95-.32,1.2,0h0l-.15-3,1.33-.78Zm-1.44-1.66,0-.38a.79.79,0,0,0-.28-.66.58.58,0,0,0-.66,0,1.68,1.68,0,0,0-.67.8,3,3,0,0,0-.19,1.25,1.23,1.23,0,0,0,.3.88c.17.14.4.13.68,0a1.58,1.58,0,0,0,.64-.76A2.3,2.3,0,0,0,181.67,162.5Z"/><path d="M187.91,161.36l-1.26.73,0-.71h0a2.88,2.88,0,0,1-1.24,1.59,1,1,0,0,1-1,.16,1,1,0,0,1-.42-.89,2.94,2.94,0,0,1,1.4-2.54l1.16-.87c0-.55-.29-.67-.81-.37a4.68,4.68,0,0,0-1.43,1.39l-.07-1.16a6.6,6.6,0,0,1,.75-.74,7.29,7.29,0,0,1,.87-.64c1.23-.72,1.88-.37,2,1.05Zm-1.36-1.3,0-.34-.78.58a1.24,1.24,0,0,0-.61,1.06c0,.17.07.29.18.33a.45.45,0,0,0,.44-.08,1.44,1.44,0,0,0,.59-.65A1.82,1.82,0,0,0,186.55,160.06Z"/><path d="M190.38,159.82a4.39,4.39,0,0,1-.38,2.05,3.29,3.29,0,0,1-1.31,1.45,1.79,1.79,0,0,1-.65.22l-.06-1.21a.82.82,0,0,0,.5-.1,1.51,1.51,0,0,0,.57-1.51l-.26-5,1.33-.78Zm-1-5.31a.62.62,0,0,1-.57.09.45.45,0,0,1-.24-.44,1.27,1.27,0,0,1,.18-.69,1.55,1.55,0,0,1,.54-.54.64.64,0,0,1,.57-.11.45.45,0,0,1,.24.44,1.21,1.21,0,0,1-.18.7A1.36,1.36,0,0,1,189.42,154.51Z"/><path d="M197.64,155.66l-1.26.74,0-.72h0a2.85,2.85,0,0,1-1.24,1.59,1,1,0,0,1-1,.17,1,1,0,0,1-.42-.89,3,3,0,0,1,1.4-2.55l1.16-.86c0-.55-.3-.67-.81-.37a4.81,4.81,0,0,0-1.44,1.39l-.06-1.17a6.62,6.62,0,0,1,.75-.73,5.16,5.16,0,0,1,.87-.64c1.23-.72,1.88-.37,2,1.05Zm-1.35-1.29,0-.34-.78.57a1.24,1.24,0,0,0-.61,1.06.35.35,0,0,0,.18.34.51.51,0,0,0,.44-.08,1.59,1.59,0,0,0,.59-.66A1.78,1.78,0,0,0,196.29,154.37Z"/><path d="M200.1,153.63h0l.15,2.88-1.33.78-.39-7.29,1.33-.78,0,.75h0a3.23,3.23,0,0,1,1.34-1.68c.56-.33,1-.36,1.33-.09a2,2,0,0,1,.56,1.54,4.91,4.91,0,0,1-.43,2.32,3.42,3.42,0,0,1-1.38,1.58C200.81,153.94,200.4,153.93,200.1,153.63Zm-.14-2,0,.4a.92.92,0,0,0,.28.71.56.56,0,0,0,.64,0,1.64,1.64,0,0,0,.68-.82,3,3,0,0,0,.19-1.3c-.05-.88-.36-1.15-1-.8a1.61,1.61,0,0,0-.65.75A2.28,2.28,0,0,0,200,151.6Z"/><path d="M205.56,151l-1.34.78-.38-7.39,1.33-.78Z"/><path d="M207.13,144.15a.6.6,0,0,1-.56.09.46.46,0,0,1-.24-.44,1.19,1.19,0,0,1,.18-.69,1.55,1.55,0,0,1,.54-.54.64.64,0,0,1,.57-.11.44.44,0,0,1,.24.44,1.29,1.29,0,0,1-.18.7A1.53,1.53,0,0,1,207.13,144.15Zm1,5.4-1.34.78-.26-5,1.33-.77Z"/><path d="M213.63,146.31l-1.6.94-1.51-1.67h0l.13,2.47-1.33.78-.38-7.39,1.33-.78.24,4.71h0l1.16-3.06,1.59-.93-1.43,3.25Z"/><path d="M217.81,143.87l-1.26.74,0-.72h0a2.85,2.85,0,0,1-1.24,1.59,1,1,0,0,1-1,.17,1,1,0,0,1-.42-.89,3,3,0,0,1,1.4-2.55l1.16-.87c0-.54-.29-.67-.81-.37a5.07,5.07,0,0,0-1.44,1.39l-.06-1.16a5.86,5.86,0,0,1,.75-.73,6.49,6.49,0,0,1,.87-.65c1.23-.72,1.89-.37,2,1.06Zm-1.36-1.3,0-.33-.78.57a1.24,1.24,0,0,0-.61,1.06.35.35,0,0,0,.18.34.51.51,0,0,0,.44-.08,1.59,1.59,0,0,0,.59-.66A1.79,1.79,0,0,0,216.45,142.57Z"/><path d="M222.21,141.11a4.31,4.31,0,0,1-1.29,1.06,1.71,1.71,0,0,1-1.65.25,1.56,1.56,0,0,1-.7-1.44,4.33,4.33,0,0,1,.55-2.39,4.57,4.57,0,0,1,1.72-1.77,2.24,2.24,0,0,1,1.12-.41l.07,1.31a1.22,1.22,0,0,0-.95.18,2.32,2.32,0,0,0-.89.92,2.38,2.38,0,0,0-.28,1.26c0,.45.15.73.38.86s.52.08.9-.14a3.08,3.08,0,0,0,.95-.93Z"/><path d="M224.5,139.86a4.26,4.26,0,0,1-.37,2,3.25,3.25,0,0,1-1.32,1.45,1.68,1.68,0,0,1-.64.22l-.06-1.21a.82.82,0,0,0,.5-.1,1.51,1.51,0,0,0,.57-1.51l-.27-5,1.34-.78Zm-.95-5.31a.62.62,0,0,1-.57.09.46.46,0,0,1-.24-.44,1.27,1.27,0,0,1,.18-.69,1.55,1.55,0,0,1,.54-.54.64.64,0,0,1,.57-.11.45.45,0,0,1,.24.44,1.29,1.29,0,0,1-.18.7A1.5,1.5,0,0,1,223.55,134.55Z"/><path d="M229.49,134.92l-2.82,1.64c.08.7.5.83,1.24.4a4,4,0,0,0,1.23-1.12l.06,1.11a5.45,5.45,0,0,1-1.53,1.28,1.37,1.37,0,0,1-2.34-1.25,4.42,4.42,0,0,1,.52-2.34,3.94,3.94,0,0,1,1.5-1.62c.63-.37,1.13-.44,1.49-.21a1.72,1.72,0,0,1,.61,1.46Zm-1.29-.23q-.06-1.06-.81-.63a1.47,1.47,0,0,0-.53.63,2.39,2.39,0,0,0-.25.93Zm.46,4.84a1.79,1.79,0,0,1-.24.21,1.73,1.73,0,0,1-.28.19.7.7,0,0,1-.59.12c-.15-.06-.23-.23-.25-.5a2.26,2.26,0,0,1,0-.35c0-.12.07-.26.12-.4a2.74,2.74,0,0,1,.21-.42,3.59,3.59,0,0,1,.28-.44l.65-.38a4.1,4.1,0,0,0-.45.83,1.5,1.5,0,0,0-.14.56c0,.11,0,.17.09.2s.11,0,.2,0l.16-.12.17-.14Z"/><path d="M158.07,206.7l-.36-7,2.14-1.25q3.22-1.89,3.4,1.52a5.68,5.68,0,0,1-.75,3.12,6,6,0,0,1-2.29,2.35Zm1.07-6.51.23,4.44.67-.4a3.51,3.51,0,0,0,1.36-1.42,3.81,3.81,0,0,0,.41-2,1.41,1.41,0,0,0-.58-1.28,1.46,1.46,0,0,0-1.43.25Z"/><path d="M166.46,201.92a1.85,1.85,0,0,1-1.74.3,1.69,1.69,0,0,1-.71-1.54,4.16,4.16,0,0,1,.53-2.32,4.65,4.65,0,0,1,1.7-1.71,1.77,1.77,0,0,1,1.72-.28,1.62,1.62,0,0,1,.71,1.49,4.44,4.44,0,0,1-2.21,4.06Zm-.18-4.07a1.7,1.7,0,0,0-.72.8,2.51,2.51,0,0,0-.2,1.22c0,1,.41,1.24,1.08.85a2,2,0,0,0,.88-2C167.27,197.75,166.92,197.47,166.28,197.85Z"/><path d="M174,197.4l-1.33.78,0-.69h0a3,3,0,0,1-1.3,1.59,1.17,1.17,0,0,1-1.34.1,2,2,0,0,1-.58-1.56,4.71,4.71,0,0,1,.43-2.3,3.54,3.54,0,0,1,1.39-1.58c.56-.32,1-.32,1.2,0h0l-.16-3,1.33-.77Zm-1.43-1.67,0-.37a.83.83,0,0,0-.29-.67.58.58,0,0,0-.65.05,1.56,1.56,0,0,0-.67.81,2.64,2.64,0,0,0-.19,1.25,1.19,1.19,0,0,0,.29.87c.17.15.4.13.68,0a1.57,1.57,0,0,0,.64-.76A2.44,2.44,0,0,0,172.55,195.73Z"/><path d="M178.78,194.59l-1.26.74,0-.72h0a2.85,2.85,0,0,1-1.24,1.59,1,1,0,0,1-1,.17,1,1,0,0,1-.42-.89,3,3,0,0,1,1.4-2.55l1.17-.86c0-.55-.3-.67-.81-.37a4.59,4.59,0,0,0-1.44,1.39l-.06-1.17a6.42,6.42,0,0,1,.74-.73,5.59,5.59,0,0,1,.87-.64c1.23-.72,1.89-.37,2,1.05Zm-1.36-1.29,0-.34-.77.57a1.27,1.27,0,0,0-.62,1.06.35.35,0,0,0,.18.34.51.51,0,0,0,.44-.08,1.52,1.52,0,0,0,.59-.66A1.68,1.68,0,0,0,177.42,193.3Z"/><path d="M181.25,193.06a4.21,4.21,0,0,1-.38,2,3.13,3.13,0,0,1-1.31,1.45,1.8,1.8,0,0,1-.65.23l-.06-1.21a.83.83,0,0,0,.5-.11c.42-.24.61-.75.57-1.51l-.26-5,1.33-.78Zm-1-5.31a.6.6,0,0,1-.56.09.45.45,0,0,1-.25-.44,1.21,1.21,0,0,1,.19-.69,1.36,1.36,0,0,1,.54-.55.61.61,0,0,1,.56-.1.46.46,0,0,1,.25.44,1.24,1.24,0,0,1-.19.7A1.5,1.5,0,0,1,180.29,187.75Z"/><path d="M184.64,191l-.07-1.25a2,2,0,0,0,.68,0,2.37,2.37,0,0,0,.62-.25,2.12,2.12,0,0,0,.55-.44.66.66,0,0,0,.19-.46c0-.1,0-.16-.11-.19a.48.48,0,0,0-.25,0l-.32,0-.34.07a2.6,2.6,0,0,1-.47,0,.63.63,0,0,1-.34-.11.54.54,0,0,1-.22-.27,1.33,1.33,0,0,1-.1-.49,1.93,1.93,0,0,1,.12-.82,2.77,2.77,0,0,1,.39-.74,3.9,3.9,0,0,1,.59-.63,4.41,4.41,0,0,1,1.29-.8,4.49,4.49,0,0,1,.59-.19l.06,1.19a1.78,1.78,0,0,0-.55.06,2.67,2.67,0,0,0-.58.25,2.07,2.07,0,0,0-.24.17,1,1,0,0,0-.2.2,1.28,1.28,0,0,0-.14.21.52.52,0,0,0,0,.21.25.25,0,0,0,.09.19.29.29,0,0,0,.21.05l.28,0,.3-.06a3,3,0,0,1,.49,0,.8.8,0,0,1,.39.08.53.53,0,0,1,.25.26,1.11,1.11,0,0,1,.12.5,2.23,2.23,0,0,1-.13.85,2.89,2.89,0,0,1-.42.77,3.5,3.5,0,0,1-.62.66,4.76,4.76,0,0,1-.74.53A4,4,0,0,1,184.64,191Z"/><path d="M192.58,184.4l-2.82,1.65c.09.69.5.83,1.25.39a4.21,4.21,0,0,0,1.23-1.12l.06,1.11a5.5,5.5,0,0,1-1.54,1.28,1.71,1.71,0,0,1-1.66.28c-.41-.22-.63-.73-.67-1.53a4.33,4.33,0,0,1,.52-2.34,4,4,0,0,1,1.49-1.62q.94-.56,1.5-.21a1.75,1.75,0,0,1,.61,1.46Zm-1.29-.22c0-.72-.3-.93-.8-.64a1.55,1.55,0,0,0-.54.63,2.37,2.37,0,0,0-.24.93Z"/><path d="M196.19,180.69a1.24,1.24,0,0,0-.57.18,1.57,1.57,0,0,0-.66.77,2.61,2.61,0,0,0-.19,1.14l.13,2.38-1.33.78-.27-5,1.34-.78,0,.93h0a2.43,2.43,0,0,1,1.09-1.68,1,1,0,0,1,.33-.14Z"/><path d="M203.37,175.06l-1,5.72-1.4.82-.79-2.55a2.5,2.5,0,0,1-.1-.6h0a5.6,5.6,0,0,1,0,.67l-.53,3.35-1.38.81L196.63,179l1.36-.8.76,2.91a2.91,2.91,0,0,1,.09.52h0a5.23,5.23,0,0,1,0-.62l.58-3.68,1.26-.74.84,2.87c0,.07,0,.25.09.53l0,0c0-.19,0-.39,0-.6l.39-3.59Z"/><path d="M208.08,175.33,205.26,177c.09.7.5.83,1.25.4a4.25,4.25,0,0,0,1.23-1.13l.06,1.12a5.86,5.86,0,0,1-1.54,1.28c-.7.4-1.25.5-1.66.27s-.63-.73-.67-1.53a4.28,4.28,0,0,1,.52-2.33,4.09,4.09,0,0,1,1.49-1.63,1.43,1.43,0,0,1,1.5-.2,1.73,1.73,0,0,1,.61,1.46Zm-1.29-.22c0-.71-.3-.93-.8-.63a1.43,1.43,0,0,0-.54.63,2.29,2.29,0,0,0-.24.93Z"/><path d="M211.69,171.63a1.1,1.1,0,0,0-.57.17,1.62,1.62,0,0,0-.66.77,2.49,2.49,0,0,0-.19,1.14l.13,2.39-1.33.78-.27-5,1.34-.77,0,.92h0a2.43,2.43,0,0,1,1.09-1.68,1,1,0,0,1,.33-.13Z"/><path d="M220.62,170.12l-1.37.8L216.53,168a5.05,5.05,0,0,1-.34-.41h0q0,.36.09,1.11l.2,3.85-1.28.75-.37-7,1.47-.86,2.62,2.85a4.12,4.12,0,0,1,.33.4h0a9.13,9.13,0,0,1-.09-.94l-.2-3.87,1.29-.75Z"/><path d="M226.16,166.29a4.59,4.59,0,0,1-.58,2.56,5.17,5.17,0,0,1-2,1.94,3.08,3.08,0,0,1-1.4.52l-.07-1.29a2.39,2.39,0,0,0,1.37-.34,2.77,2.77,0,0,0,1-1,2.44,2.44,0,0,0,.32-1.34l0-.4h0a3.07,3.07,0,0,1-1.3,1.63,1.17,1.17,0,0,1-1.35.09,1.94,1.94,0,0,1-.58-1.52,4.9,4.9,0,0,1,.43-2.33,3.54,3.54,0,0,1,1.39-1.58c.52-.3.93-.3,1.21,0h0l0-.58,1.33-.78Zm-1.41-1.06,0-.39a.83.83,0,0,0-.28-.67.55.55,0,0,0-.65,0,1.57,1.57,0,0,0-.67.8,2.88,2.88,0,0,0-.2,1.28,1.17,1.17,0,0,0,.29.84c.18.15.4.14.68,0a1.59,1.59,0,0,0,.65-.76A2.33,2.33,0,0,0,224.75,165.23Z"/><path d="M227.76,160a.6.6,0,0,1-.56.09.48.48,0,0,1-.25-.44,1.21,1.21,0,0,1,.19-.69,1.47,1.47,0,0,1,.54-.54.64.64,0,0,1,.57-.11.45.45,0,0,1,.24.44,1.29,1.29,0,0,1-.18.7A1.45,1.45,0,0,1,227.76,160Zm1,5.4-1.33.78-.26-5,1.33-.78Z"/><path d="M234.1,162.24l-1.33.77-.14-2.77c0-.77-.3-1-.78-.74a1.3,1.3,0,0,0-.55.64,1.91,1.91,0,0,0-.19.91l.15,2.85-1.33.77-.26-5,1.33-.78,0,.79h0A3.16,3.16,0,0,1,232.4,158c.95-.56,1.47-.15,1.54,1.22Z"/><path d="M239.15,154.14l-1.3,3.25,1.55,1.75-1.53.89-.7-1a3.44,3.44,0,0,1-.2-.34h0a3.53,3.53,0,0,1-.15.55l-.56,1.72-1.53.9,1.33-3.34-1.5-1.71,1.54-.9.69,1a2,2,0,0,1,.2.37h0a5.69,5.69,0,0,1,.15-.59l.56-1.75Z"/><path d="M151.6,233.74a4.67,4.67,0,0,1-2.37,4.63q-2.46,1.44-2.62-1.63l-.21-4,1.36-.8L148,236c.06,1.13.48,1.47,1.24,1a2.27,2.27,0,0,0,1-2.29l-.22-4.12,1.37-.8Z"/><path d="M155.34,234.62a3.59,3.59,0,0,1-.88.7q-1.41.83-1.5-.87l-.12-2.29-.7.41-.06-1.14.7-.4-.06-1.08,1.31-1.22.08,1.52,1-.57.06,1.14-1,.56.1,2c0,.52.22.68.58.47a1.56,1.56,0,0,0,.43-.4Z"/><path d="M161.86,225.71l-1,5.72-1.4.82-.79-2.55a3.12,3.12,0,0,1-.1-.6l0,0a4.27,4.27,0,0,1-.05.67l-.53,3.34-1.38.81-1.48-4.28,1.36-.8.76,2.91a2.91,2.91,0,0,1,.09.52h0a3.61,3.61,0,0,1,0-.62L158,228l1.27-.75.83,2.87c0,.07,0,.25.09.53h0c0-.2,0-.4,0-.61l.39-3.58Z"/><path d="M164.56,229.41a1.82,1.82,0,0,1-1.73.29,1.68,1.68,0,0,1-.72-1.54,4.2,4.2,0,0,1,.54-2.31,4.53,4.53,0,0,1,1.7-1.72,1.77,1.77,0,0,1,1.72-.28,1.64,1.64,0,0,1,.71,1.49,4.34,4.34,0,0,1-.53,2.34A4.46,4.46,0,0,1,164.56,229.41Zm1.07-8.34-1.23,2.35-1,.56,1-2.22Zm-1.25,4.26a1.74,1.74,0,0,0-.71.8,2.66,2.66,0,0,0-.21,1.22c0,1,.41,1.24,1.08.85a2,2,0,0,0,.88-2C165.37,225.23,165,225,164.38,225.33Z"/><path d="M170.18,222.28a1,1,0,0,0-.57.18,1.58,1.58,0,0,0-.65.76,2.51,2.51,0,0,0-.2,1.15l.13,2.38-1.33.78-.27-5,1.34-.78,0,.92h0a2.46,2.46,0,0,1,1.09-1.68,1,1,0,0,1,.33-.13Z"/><path d="M174.37,223.55l-3.88,2.26,0-.64,2-4.48-2,1.14-.06-1.14,3.64-2.13,0,.76-1.89,4.3,2.07-1.21Z"/><path d="M180.45,220l-3.87,2.26,0-.63,2-4.49-1.95,1.14-.06-1.14,3.64-2.13,0,.77-1.89,4.29,2.07-1.21Z"/><path d="M182.83,218.46l-.07-1.25a2.26,2.26,0,0,0,1.85-.73.64.64,0,0,0,.19-.46.21.21,0,0,0-.11-.19.44.44,0,0,0-.24,0l-.33.06-.34.06a1.85,1.85,0,0,1-.46,0,.76.76,0,0,1-.35-.1.69.69,0,0,1-.22-.28,1.28,1.28,0,0,1-.1-.49,2.3,2.3,0,0,1,.12-.82,2.8,2.8,0,0,1,.4-.74,3.44,3.44,0,0,1,.58-.63,4.88,4.88,0,0,1,.71-.51,4.41,4.41,0,0,1,.58-.28,3.42,3.42,0,0,1,.59-.2l.06,1.19a1.78,1.78,0,0,0-.55.06,2.41,2.41,0,0,0-.57.25,2.2,2.2,0,0,0-.25.17,1.26,1.26,0,0,0-.2.2.8.8,0,0,0-.13.21.43.43,0,0,0,0,.21.23.23,0,0,0,.08.2.46.46,0,0,0,.21.05,1,1,0,0,0,.28,0l.3-.06a3,3,0,0,1,.5,0,.92.92,0,0,1,.38.08.55.55,0,0,1,.26.26,1.28,1.28,0,0,1,.11.5,2.31,2.31,0,0,1-.13.86,3.36,3.36,0,0,1-.41.77,3.92,3.92,0,0,1-.63.66,4.7,4.7,0,0,1-.74.52A3.93,3.93,0,0,1,182.83,218.46Z"/><path d="M190.55,208.94l-1.47,6.42a4.53,4.53,0,0,1-1.81,3.06,2.55,2.55,0,0,1-.8.33l-.06-1.22a1,1,0,0,0,.58-.16,1.47,1.47,0,0,0,.69-1l.2-.75-2-4,1.47-.86,1,2.56a3.27,3.27,0,0,1,.15.6h0c0-.2.05-.45.1-.74l.66-3.52Z"/><path d="M190.84,213.78l-.07-1.25a1.94,1.94,0,0,0,.68,0,2.6,2.6,0,0,0,.62-.25,2.23,2.23,0,0,0,.56-.44.64.64,0,0,0,.18-.46c0-.1,0-.16-.11-.19a.44.44,0,0,0-.24,0,1.39,1.39,0,0,0-.33,0l-.34.06a1.9,1.9,0,0,1-.46,0,.65.65,0,0,1-.35-.09.6.6,0,0,1-.22-.25,1.44,1.44,0,0,1-.1-.48,2,2,0,0,1,.13-.81,2.6,2.6,0,0,1,.39-.71,3.84,3.84,0,0,1,.59-.62,5.51,5.51,0,0,1,.7-.49l1.91-1.11-.06-1.08,1.31-1.22.08,1.52,1-.57.06,1.14-1,.57.11,2c0,.52.22.67.58.46a1.5,1.5,0,0,0,.42-.39l.06,1.14a3.21,3.21,0,0,1-.88.7c-.93.55-1.43.26-1.49-.87l-.12-2.29-1.85,1.09-.25.14-.2.15a.67.67,0,0,0-.14.16.43.43,0,0,0,0,.19.16.16,0,0,0,.09.16.56.56,0,0,0,.2,0,1.45,1.45,0,0,0,.28,0l.3-.06a3.13,3.13,0,0,1,.5-.05.92.92,0,0,1,.38.08.62.62,0,0,1,.26.27,1.27,1.27,0,0,1,.11.49,2.25,2.25,0,0,1-.13.86,3.16,3.16,0,0,1-.41.77,4.29,4.29,0,0,1-.62.66,5.38,5.38,0,0,1-.75.53A4,4,0,0,1,190.84,213.78Z"/><path d="M201.24,205.71l-2.81,1.65c.08.69.49.82,1.24.39a4.21,4.21,0,0,0,1.23-1.12l.06,1.11a5.5,5.5,0,0,1-1.54,1.28,1.71,1.71,0,0,1-1.66.28c-.41-.22-.63-.73-.67-1.53a4.33,4.33,0,0,1,.52-2.34,4,4,0,0,1,1.49-1.62q.94-.56,1.5-.21a1.75,1.75,0,0,1,.61,1.46Zm-1.28-.23q-.06-1.06-.81-.63a1.55,1.55,0,0,0-.54.63,2.37,2.37,0,0,0-.24.93Z"/><path d="M208.78,203.42l-1.33.78-.15-2.85c0-.72-.29-.95-.75-.68a1.2,1.2,0,0,0-.51.64,2,2,0,0,0-.17.93L206,205l-1.33.77-.15-2.87c0-.71-.29-.93-.74-.66a1.29,1.29,0,0,0-.53.63,2.18,2.18,0,0,0-.16,1l.15,2.77-1.33.78-.27-5,1.34-.78,0,.78h0a3.72,3.72,0,0,1,.55-1,2.73,2.73,0,0,1,.8-.73c.61-.36,1-.29,1.3.2a3.23,3.23,0,0,1,1.4-1.78c.94-.55,1.45-.15,1.52,1.18Z"/><path d="M213.72,200.53l-1.33.78,0-.76h0a3.09,3.09,0,0,1-1.27,1.65c-1,.59-1.54.18-1.61-1.22l-.16-3,1.33-.78.15,2.88q0,1,.78.63a1.39,1.39,0,0,0,.55-.62,1.79,1.79,0,0,0,.18-.92l-.15-2.85,1.33-.78Z"/><path d="M221.69,192.75a4.67,4.67,0,0,1-2.37,4.63c-1.65,1-2.52.42-2.63-1.63l-.21-4,1.37-.8.21,4.06q.09,1.69,1.23,1a2.26,2.26,0,0,0,1-2.29l-.21-4.12,1.36-.79Z"/><path d="M224.13,193.84h0l0,.58-1.33.78-.39-7.39,1.33-.78.16,3.15h0a3.2,3.2,0,0,1,1.36-1.69q.84-.5,1.32-.09a2.1,2.1,0,0,1,.55,1.55,4.84,4.84,0,0,1-.43,2.31,3.38,3.38,0,0,1-1.36,1.58C224.84,194.15,224.43,194.15,224.13,193.84Zm-.14-2.08,0,.51a.82.82,0,0,0,.28.66.58.58,0,0,0,.64,0,1.64,1.64,0,0,0,.68-.82,3,3,0,0,0,.19-1.3,1.16,1.16,0,0,0-.28-.84c-.16-.14-.39-.13-.67,0a1.67,1.67,0,0,0-.65.73A2.17,2.17,0,0,0,224,191.76Z"/><path d="M232.05,189.81l-1.32.77,0-.76,0,0a3.11,3.11,0,0,1-1.28,1.65c-1,.59-1.54.18-1.61-1.22l-.16-3,1.33-.77.15,2.87c0,.71.3.92.78.64a1.38,1.38,0,0,0,.56-.63,1.85,1.85,0,0,0,.17-.91l-.15-2.86,1.33-.77Z"/><path d="M237.13,186.84l-1.33.78-.15-2.78c0-.77-.3-1-.77-.74a1.48,1.48,0,0,0-.56.64,2.06,2.06,0,0,0-.18.91l.15,2.85-1.33.78-.26-5,1.33-.78,0,.79h0a3.1,3.1,0,0,1,1.34-1.73c.95-.56,1.47-.15,1.54,1.22Z"/><path d="M240.57,184.77a3.21,3.21,0,0,1-.88.7c-.94.55-1.44.26-1.49-.87l-.12-2.29-.7.41-.06-1.14.7-.4L238,180.1l1.3-1.22.08,1.52,1-.57.06,1.14-1,.56.11,2c0,.52.22.68.57.47a1.4,1.4,0,0,0,.43-.39Z"/><path d="M245.21,182.11l-1.33.78,0-.76h0a3.16,3.16,0,0,1-1.27,1.66c-1,.58-1.54.17-1.61-1.23l-.16-3,1.33-.78.15,2.88c0,.7.3.92.78.63a1.47,1.47,0,0,0,.56-.62,1.87,1.87,0,0,0,.17-.92l-.15-2.85,1.33-.78Z"/><path class="cls-13" d="M190.3,239.86a5,5,0,0,1-.45,2.48,4,4,0,0,1-1.59,1.7,2.35,2.35,0,0,1-.89.32l-.08-1.47a1.05,1.05,0,0,0,.8-.16,2.11,2.11,0,0,0,.85-2.14l-.22-4.15,1.36-.8Z"/><path class="cls-13" d="M195.23,239.84l-1.26.73,0-.71h0a2.93,2.93,0,0,1-1.24,1.59,1,1,0,0,1-1,.16,1,1,0,0,1-.42-.89,2.92,2.92,0,0,1,1.4-2.54l1.16-.87c0-.55-.3-.67-.81-.37a4.81,4.81,0,0,0-1.44,1.39l-.06-1.16a5.86,5.86,0,0,1,.75-.74,6,6,0,0,1,.87-.64c1.23-.72,1.88-.37,2,1Zm-1.36-1.3v-.34l-.78.58a1.28,1.28,0,0,0-.62,1.06c0,.17.07.29.19.33s.25,0,.43-.08a1.52,1.52,0,0,0,.6-.65A1.73,1.73,0,0,0,193.87,238.54Zm.83,3.62-.24.21a2.9,2.9,0,0,1-.29.19.68.68,0,0,1-.58.12c-.15-.06-.24-.23-.25-.51a1,1,0,0,1,0-.34,2.53,2.53,0,0,1,.12-.4,3.26,3.26,0,0,1,.2-.43,3.61,3.61,0,0,1,.29-.43l.65-.38a4.79,4.79,0,0,0-.46.83,1.42,1.42,0,0,0-.13.56c0,.11,0,.17.08.2a.25.25,0,0,0,.2,0l.17-.12.17-.14Z"/><path class="cls-13" d="M200.6,236.7l-1.34.78,0-.69h0a3,3,0,0,1-1.29,1.59,1.17,1.17,0,0,1-1.34.1,2,2,0,0,1-.59-1.56,4.71,4.71,0,0,1,.44-2.3,3.54,3.54,0,0,1,1.39-1.58c.55-.32,1-.32,1.2,0h0l-.15-3,1.33-.77ZM199.16,235l0-.37a.8.8,0,0,0-.28-.67.6.6,0,0,0-.66,0,1.65,1.65,0,0,0-.67.81,2.91,2.91,0,0,0-.19,1.25,1.19,1.19,0,0,0,.29.87.56.56,0,0,0,.69,0,1.63,1.63,0,0,0,.64-.76A2.43,2.43,0,0,0,199.16,235Z"/><path class="cls-13" d="M204.43,230.74a1.08,1.08,0,0,0-.57.18,1.57,1.57,0,0,0-.66.77,2.47,2.47,0,0,0-.19,1.14l.13,2.38-1.34.78-.26-5,1.33-.78,0,.93h0a2.42,2.42,0,0,1,1.08-1.68,1,1,0,0,1,.34-.14Z"/><path class="cls-13" d="M207.36,232.87a1.85,1.85,0,0,1-1.74.3,1.69,1.69,0,0,1-.71-1.54,4.16,4.16,0,0,1,.53-2.32,4.65,4.65,0,0,1,1.7-1.71,1.81,1.81,0,0,1,1.72-.29,1.65,1.65,0,0,1,.71,1.5,4.3,4.3,0,0,1-.53,2.33A4.36,4.36,0,0,1,207.36,232.87Zm-.18-4.08a1.78,1.78,0,0,0-.72.81,2.49,2.49,0,0,0-.2,1.21c.05,1,.41,1.25,1.07.86a2,2,0,0,0,.88-2C208.17,228.7,207.82,228.42,207.18,228.79Z"/><path class="cls-14" d="M8.34,195.09l.1-1.55a6,6,0,0,0,.77,1,4,4,0,0,0,.86.68,1.88,1.88,0,0,0,.46.2.82.82,0,0,0,.33,0,.32.32,0,0,0,.21-.12.36.36,0,0,0,.08-.24.9.9,0,0,0-.08-.42,2,2,0,0,0-.26-.46,5.14,5.14,0,0,0-.4-.5c-.15-.18-.32-.36-.5-.56a5.47,5.47,0,0,1-1-1.43,2.88,2.88,0,0,1-.27-1.39,1.46,1.46,0,0,1,.25-.83.86.86,0,0,1,.56-.35,1.84,1.84,0,0,1,.79.06,4.76,4.76,0,0,1,.92.4,6.44,6.44,0,0,1,.84.55,6.22,6.22,0,0,1,.66.58l-.09,1.46a4,4,0,0,0-.32-.4l-.36-.37c-.13-.11-.25-.21-.38-.3l-.35-.24a2.19,2.19,0,0,0-.43-.19,1.05,1.05,0,0,0-.33,0,.38.38,0,0,0-.22.11.44.44,0,0,0-.09.25.76.76,0,0,0,.06.36,2.54,2.54,0,0,0,.21.39,4,4,0,0,0,.35.45c.13.16.29.33.46.52a8.09,8.09,0,0,1,.63.75,4.91,4.91,0,0,1,.47.72,3.27,3.27,0,0,1,.28.75,2.72,2.72,0,0,1,.06.81,1.61,1.61,0,0,1-.25.87.91.91,0,0,1-.57.35,1.75,1.75,0,0,1-.79-.09,4.47,4.47,0,0,1-.94-.42,6.76,6.76,0,0,1-.94-.64A4.94,4.94,0,0,1,8.34,195.09Z"/><path class="cls-14" d="M17.59,195.46l-2.11,4.38c-.51,1.06-1.19,1.34-2.05.86a3.69,3.69,0,0,1-.79-.59l.08-1.22a1.94,1.94,0,0,0,.57.51c.34.19.6.14.76-.15l.26-.49-1.44-6,1.49.85.61,3.5a4.93,4.93,0,0,1,.08.73h0a3.53,3.53,0,0,1,.19-.58l1-2.58Z"/><path class="cls-14" d="M17.53,200.46l.08-1.25a5.17,5.17,0,0,0,.64.72,3.9,3.9,0,0,0,.62.47,1.55,1.55,0,0,0,.57.21c.14,0,.21-.07.22-.23a.55.55,0,0,0-.07-.3,2,2,0,0,0-.23-.3c-.1-.11-.2-.21-.32-.32s-.22-.21-.32-.32-.31-.34-.44-.49a3.34,3.34,0,0,1-.32-.48,1.68,1.68,0,0,1-.17-.49,2,2,0,0,1,0-.56,1.11,1.11,0,0,1,.2-.62.69.69,0,0,1,.46-.22,1.41,1.41,0,0,1,.62.08,4.43,4.43,0,0,1,.72.32l1.92,1.1.07-1.08,1.36.32L23,198.54l1,.55-.07,1.14-1-.56-.13,2a1,1,0,0,0,.49,1.08.78.78,0,0,0,.44.11L23.66,204a1.93,1.93,0,0,1-.91-.33,2.45,2.45,0,0,1-1.3-2.49l.14-2.29-1.86-1.06-.25-.14a.8.8,0,0,0-.21-.08.17.17,0,0,0-.14,0s-.06.06-.06.13a.37.37,0,0,0,.06.24,1.88,1.88,0,0,0,.19.26l.27.28.29.28c.17.17.33.34.47.51a3.31,3.31,0,0,1,.35.51,1.83,1.83,0,0,1,.21.53A1.94,1.94,0,0,1,21,201a1.09,1.09,0,0,1-.22.67.76.76,0,0,1-.48.26,1.61,1.61,0,0,1-.66-.08,4.15,4.15,0,0,1-.76-.34A6,6,0,0,1,17.53,200.46Z"/><path class="cls-14" d="M28.45,204.67l-2.83-1.61a2,2,0,0,0,1.12,1.77,2,2,0,0,0,1.28.32L28,206.26a3.08,3.08,0,0,1-1.59-.52A3.94,3.94,0,0,1,24.31,202a1.83,1.83,0,0,1,.76-1.62,1.58,1.58,0,0,1,1.59.16A3.52,3.52,0,0,1,28.09,202a3.89,3.89,0,0,1,.4,2.06ZM27.27,203a1.45,1.45,0,0,0-.69-1.5.51.51,0,0,0-.58,0,.89.89,0,0,0-.33.6Z"/><path class="cls-14" d="M36,211.11l-1.34-.76.19-2.85a1.45,1.45,0,0,0-.63-1.48.43.43,0,0,0-.56,0,1,1,0,0,0-.26.7l-.18,2.79-1.34-.77.18-2.87a1.41,1.41,0,0,0-.61-1.45.46.46,0,0,0-.57,0,1,1,0,0,0-.26.73L30.46,208l-1.34-.77.32-5,1.34.77-.05.78h0a.84.84,0,0,1,.62-.32,1.44,1.44,0,0,1,.84.21,2.52,2.52,0,0,1,1.2,1.65c.37-.43.88-.46,1.52-.1A2.73,2.73,0,0,1,36.22,208Z"/><path class="cls-14" d="M40.87,213.27h0l-.19,2.87-1.34-.76.47-7.28,1.34.76,0,.75h0a1.08,1.08,0,0,1,1.45-.08,3,3,0,0,1,1.27,1.41,4.39,4.39,0,0,1,.34,2.07,2.27,2.27,0,0,1-.67,1.7,1.26,1.26,0,0,1-1.48-.06A2.68,2.68,0,0,1,40.87,213.27Zm.1-2.07,0,.4a2.06,2.06,0,0,0,.18,1,1.51,1.51,0,0,0,.61.68.58.58,0,0,0,.73,0,1.5,1.5,0,0,0,.33-1,1.78,1.78,0,0,0-.8-1.83.62.62,0,0,0-.7,0A1,1,0,0,0,41,211.2Z"/><path class="cls-14" d="M46.21,216.9l-1.34-.76.48-7.39,1.34.77Z"/><path class="cls-14" d="M48.68,218.31l-1.34-.77.32-5,1.34.76Zm-.29-6.16a1.55,1.55,0,0,1-.54-.54,1.33,1.33,0,0,1-.18-.7.48.48,0,0,1,.25-.44.68.68,0,0,1,.58.1,1.47,1.47,0,0,1,.54.54,1.22,1.22,0,0,1,.18.68.49.49,0,0,1-.26.46A.66.66,0,0,1,48.39,212.15Z"/><path class="cls-14" d="M54.16,221.43l-1.61-.92-1.22-3.26h0l-.16,2.47L49.81,219l.48-7.39,1.34.77-.31,4.7h0l1.45-1.57,1.59.9-1.71,1.46Z"/><path class="cls-14" d="M56.61,222.94a4.26,4.26,0,0,1-1.67-1.67,4,4,0,0,1-.49-2.25c0-.82.31-1.35.77-1.57a2,2,0,0,1,1.79.29,4.21,4.21,0,0,1,1.65,1.67,4,4,0,0,1,.5,2.2,1.79,1.79,0,0,1-.77,1.6A1.85,1.85,0,0,1,56.61,222.94Zm.3-4c-.32-.18-.58-.2-.77,0a1.26,1.26,0,0,0-.33.92,1.94,1.94,0,0,0,.92,2c.64.36,1,.05,1.06-.93A1.91,1.91,0,0,0,56.91,218.91Zm1.66-2.6-1.43.82-1-.56,1.2-.94Z"/><path class="cls-14" d="M66.47,223.25l-1.57,4.28-1.41-.8L63,223.44a3.79,3.79,0,0,1,0-.68h0a3.67,3.67,0,0,1-.12.57L62,225.87l-1.4-.79-.9-5.69,1.37.78.39,3.59c0,.17,0,.37,0,.6h0a3.43,3.43,0,0,1,.11-.53l1-2.81,1.28.72.46,3.64c0,.09,0,.29,0,.6l0,0c0-.18.06-.36.1-.53l.78-2.93Z"/><path class="cls-14" d="M72.25,228a1.91,1.91,0,0,0-.55-.47c-.29-.17-.53-.18-.71,0a1.21,1.21,0,0,0-.31.86l-.15,2.38L69.18,230l.33-5,1.34.76-.06.93h0a.75.75,0,0,1,1.21-.37,2,2,0,0,1,.33.25Z"/><path class="cls-14" d="M74.67,233.22A4.26,4.26,0,0,1,73,231.54a4.09,4.09,0,0,1-.5-2.25c.06-.82.31-1.35.77-1.57a1.94,1.94,0,0,1,1.79.3,4.21,4.21,0,0,1,1.66,1.66,4.06,4.06,0,0,1,.49,2.2,1.78,1.78,0,0,1-.76,1.6A1.88,1.88,0,0,1,74.67,233.22Zm.3-4c-.32-.18-.57-.19-.76,0a1.23,1.23,0,0,0-.33.91,1.94,1.94,0,0,0,.91,2c.65.37,1,.06,1.06-.93A1.89,1.89,0,0,0,75,229.18Z"/><path class="cls-14" d="M81.37,236.89l-3.9-2.21,0-.64,2.39-2-2-1.11.08-1.14,3.66,2.09,0,.76-2.26,1.91,2.08,1.19Z"/><path class="cls-14" d="M85.16,235.32a2,2,0,0,0-.56-.48c-.29-.16-.52-.17-.7,0a1.24,1.24,0,0,0-.32.87l-.15,2.38-1.34-.76.32-5,1.34.76-.06.92h0a.76.76,0,0,1,1.21-.36,1.57,1.57,0,0,1,.33.25Z"/><path class="cls-14" d="M89.7,241.63l-1.33-.75,0-.77h0a1,1,0,0,1-1.38.13,2.88,2.88,0,0,1-1.38-3l.2-3,1.34.76L87,237.89a1.43,1.43,0,0,0,.66,1.48.53.53,0,0,0,.6,0,.85.85,0,0,0,.26-.66l.19-2.85,1.34.76Z"/><path class="cls-14" d="M94.14,244a2.54,2.54,0,0,1-1.33-.44,4,4,0,0,1-1.58-1.62,3.89,3.89,0,0,1-.5-2.15,1.79,1.79,0,0,1,.79-1.63,2,2,0,0,1,1.83.28,3.71,3.71,0,0,1,1.09.86l-.08,1.31a2.81,2.81,0,0,0-.92-.9,1,1,0,0,0-.94-.13c-.24.13-.37.42-.4.88a2.2,2.2,0,0,0,.25,1.22,2.23,2.23,0,0,0,.86.89,1.48,1.48,0,0,0,1,.19Z"/><path class="cls-14" d="M99.18,247l-1.34-.76.18-2.83a1.47,1.47,0,0,0-.62-1.5.53.53,0,0,0-.6,0,.85.85,0,0,0-.27.66l-.18,2.84L95,244.65l.48-7.39,1.35.77-.21,3.13h0a1,1,0,0,1,1.39-.1A2.82,2.82,0,0,1,99.38,244Z"/><path class="cls-14" d="M102.3,248.92a4.17,4.17,0,0,1-1.66-1.67,4,4,0,0,1-.5-2.25c0-.82.31-1.35.77-1.57a1.94,1.94,0,0,1,1.79.3,4.18,4.18,0,0,1,1.65,1.66,4,4,0,0,1,.5,2.2,1.8,1.8,0,0,1-.76,1.6A1.86,1.86,0,0,1,102.3,248.92Zm.3-4c-.32-.18-.57-.19-.76,0a1.19,1.19,0,0,0-.34.91,2,2,0,0,0,.92,2c.64.37,1,.06,1.06-.93A1.89,1.89,0,0,0,102.6,244.89Z"/><path class="cls-14" d="M112.17,249.24l-1.58,4.27-1.4-.8-.46-3.28a3.83,3.83,0,0,1,0-.68l0,0a3.51,3.51,0,0,1-.13.57l-.88,2.55-1.39-.79-.9-5.68,1.37.77.38,3.6a5,5,0,0,1,0,.59h0a2.13,2.13,0,0,1,.11-.53l1-2.81,1.28.73.45,3.63a5.65,5.65,0,0,1,0,.6l0,0a4.51,4.51,0,0,1,.1-.53l.78-2.93Z"/><path class="cls-14" d="M117,252l-2.12,4.39c-.51,1.05-1.19,1.34-2,.85a3.94,3.94,0,0,1-.79-.58l.08-1.23a1.94,1.94,0,0,0,.57.51c.35.2.6.15.76-.15l.27-.49-1.44-6,1.48.84.61,3.5a5.09,5.09,0,0,1,.08.73h0a3.33,3.33,0,0,1,.18-.57l1-2.58Z"/><path class="cls-14" d="M120.38,258.89a2.57,2.57,0,0,1-1.33-.44,4.11,4.11,0,0,1-1.58-1.62,3.89,3.89,0,0,1-.5-2.15,1.79,1.79,0,0,1,.8-1.63,2,2,0,0,1,1.82.28,3.63,3.63,0,0,1,1.1.87l-.09,1.3a2.65,2.65,0,0,0-.91-.89,1,1,0,0,0-.94-.14,1,1,0,0,0-.41.88,2.26,2.26,0,0,0,.26,1.23,2.08,2.08,0,0,0,.86.88,1.52,1.52,0,0,0,1,.2Z"/><path class="cls-14" d="M125.42,262l-1.34-.76.19-2.84a1.43,1.43,0,0,0-.63-1.49.48.48,0,0,0-.59,0,.83.83,0,0,0-.28.65l-.18,2.85-1.34-.77.48-7.38,1.34.76-.2,3.14h0a1,1,0,0,1,1.4-.11,2.82,2.82,0,0,1,1.34,2.89Z"/></g></svg>