<svg xmlns="http://www.w3.org/2000/svg" viewBox="0 0 407 205"><defs><style>.cls-1{fill:#fff;}.cls-10,.cls-2{fill:#3c3c41;}.cls-2{opacity:0.1;}.cls-15,.cls-2,.cls-3,.cls-5,.cls-6,.cls-7,.cls-8{isolation:isolate;}.cls-11,.cls-3,.cls-7{fill:#50e6ff;}.cls-3{opacity:0.05;}.cls-16,.cls-4,.cls-9{fill:none;}.cls-4{stroke:#0072c6;}.cls-16,.cls-4{stroke-width:0.5px;}.cls-15,.cls-5{fill:#75757a;}.cls-5{opacity:0.15;}.cls-6,.cls-8{fill:#0072c6;}.cls-6{opacity:0.35;}.cls-7{opacity:0.7;}.cls-8{opacity:0.45;}.cls-9{stroke:#3c3c41;}.cls-12{fill:#0072c5;}.cls-13{fill:#3bcaf4;}.cls-14{fill:#0078d4;}.cls-15{opacity:0.5;}.cls-16{stroke:#231f20;}</style></defs><title>OJ104601277</title><g id="source"><g id="text_shapes" data-name="text+shapes"><g id="Shapes"><g id="Group"><rect id="Rectangle-path" class="cls-1" width="406.25" height="205"/><rect class="cls-2" width="406.25" height="205"/></g><rect class="cls-1" x="5.63" y="24.4" width="395" height="175.71"/><rect class="cls-3" x="5.63" y="24.4" width="395" height="175.71"/><rect class="cls-4" x="5.63" y="24.4" width="395" height="175.71"/><rect class="cls-1" x="16.25" y="55" width="145" height="135"/><rect class="cls-5" x="16.25" y="55" width="145" height="135"/><rect class="cls-1" x="26.25" y="145" width="125" height="35"/><rect class="cls-6" x="26.25" y="145" width="125" height="35"/><rect class="cls-1" x="26.25" y="86" width="125" height="35"/><rect class="cls-7" x="26.25" y="86" width="125" height="35"/><rect class="cls-1" x="231.25" y="55" width="125" height="35"/><rect class="cls-8" x="231.25" y="55" width="125" height="35"/><path id="Shape" class="cls-9" d="M151.25,165h35a5,5,0,0,0,5-5V78.5a5,5,0,0,1,5-5h29.62"/><polygon class="cls-10" points="224.77 77.24 231.25 73.5 224.77 69.76 224.77 77.24"/><path class="cls-9" d="M260.28,95.38v19.24"/><polygon class="cls-10" points="256.54 96.48 260.28 90 264.02 96.48 256.54 96.48"/><polygon class="cls-10" points="256.54 113.52 260.28 120 264.02 113.52 256.54 113.52"/><path class="cls-9" d="M88.75,126.38v13.24"/><polygon class="cls-10" points="85.01 127.48 88.75 121 92.49 127.48 85.01 127.48"/><polygon class="cls-10" points="85.01 138.52 88.75 145 92.49 138.52 85.01 138.52"/><path class="cls-9" d="M330.21,95.38v19.24"/><polygon class="cls-10" points="326.47 96.48 330.21 90 333.95 96.48 326.47 96.48"/><polygon class="cls-10" points="326.47 113.52 330.21 120 333.95 113.52 326.47 113.52"/><path class="cls-11" d="M249.32,125v21c0,2.16,4.87,4,10.9,4V125Z"/><path class="cls-12" d="M260.1,150h.18c6,0,10.9-1.76,10.9-4V125H260.1Z"/><path class="cls-13" d="M260,150h.17c6.09,0,11.07-1.76,11.07-4V124.93H260Z"/><path class="cls-1" d="M271.17,125c0,2.17-4.86,4-10.89,4s-10.9-1.76-10.9-4,4.86-4,10.9-4S271.17,122.82,271.17,125Z"/><path class="cls-14" d="M269,124.75c0,1.46-3.87,2.63-8.67,2.63s-8.67-1.17-8.67-2.63,3.86-2.64,8.67-2.64S269,123.28,269,124.75Z"/><path class="cls-13" d="M267.13,126.33c1.12-.47,1.82-1,1.82-1.58,0-1.47-3.87-2.64-8.67-2.64s-8.67,1.17-8.67,2.64c0,.58.7,1.17,1.81,1.58a20,20,0,0,1,6.86-1A21,21,0,0,1,267.13,126.33Z"/><rect class="cls-1" x="313.92" y="129.52" width="32.59" height="5.93"/><rect class="cls-15" x="313.92" y="129.52" width="32.59" height="5.93"/><rect class="cls-16" x="313.92" y="129.52" width="32.59" height="5.93"/><rect class="cls-1" x="313.92" y="123.5" width="32.59" height="5.93"/><rect class="cls-15" x="313.92" y="123.5" width="32.59" height="5.93"/><rect class="cls-16" x="313.92" y="123.5" width="32.59" height="5.93"/><rect class="cls-1" x="313.92" y="141.57" width="32.59" height="5.93"/><rect class="cls-15" x="313.92" y="141.57" width="32.59" height="5.93"/><rect class="cls-16" x="313.92" y="141.57" width="32.59" height="5.93"/><rect class="cls-1" x="313.92" y="135.55" width="32.59" height="5.93"/><rect class="cls-15" x="313.92" y="135.55" width="32.59" height="5.93"/><rect class="cls-16" x="313.92" y="135.55" width="32.59" height="5.93"/></g></g></g><g id="text"><path d="M135.14,16.16V14.28a3.45,3.45,0,0,0,1.11.64,3.35,3.35,0,0,0,1.2.22,2.38,2.38,0,0,0,.63-.07,1.62,1.62,0,0,0,.44-.17.87.87,0,0,0,.27-.27.69.69,0,0,0,.09-.34.77.77,0,0,0-.14-.44,1.7,1.7,0,0,0-.39-.36,3.44,3.44,0,0,0-.58-.31c-.22-.11-.46-.21-.72-.31a3.7,3.7,0,0,1-1.46-1,2.14,2.14,0,0,1-.49-1.43,2.21,2.21,0,0,1,.27-1.12,2.13,2.13,0,0,1,.71-.78,3.5,3.5,0,0,1,1.06-.45,5.66,5.66,0,0,1,1.26-.14,6.67,6.67,0,0,1,1.16.08,4.46,4.46,0,0,1,.94.24V10a2.9,2.9,0,0,0-.46-.26,5.17,5.17,0,0,0-.51-.18,3.33,3.33,0,0,0-.53-.11l-.49,0a2.68,2.68,0,0,0-.59.06,1.62,1.62,0,0,0-.44.17.76.76,0,0,0-.29.27.68.68,0,0,0-.09.35.6.6,0,0,0,.11.37,1.33,1.33,0,0,0,.31.32,3.3,3.3,0,0,0,.5.29l.66.3a7,7,0,0,1,.91.45,3.15,3.15,0,0,1,.69.53,2.26,2.26,0,0,1,.44.69,2.4,2.4,0,0,1,.15.89,2.37,2.37,0,0,1-.27,1.18,2.13,2.13,0,0,1-.72.77,3.2,3.2,0,0,1-1.07.43,6.53,6.53,0,0,1-1.28.13,6.94,6.94,0,0,1-1.31-.12A4.15,4.15,0,0,1,135.14,16.16Z"/><path d="M147.48,10.48,145.05,17c-.59,1.56-1.47,2.34-2.65,2.34a3.46,3.46,0,0,1-1.11-.15V17.67a1.6,1.6,0,0,0,.8.22,1,1,0,0,0,1-.68l.32-.74-2.44-6H143l1.12,3.65a5.13,5.13,0,0,1,.16.8h0a5.52,5.52,0,0,1,.19-.79l1.13-3.66Z"/><path d="M147.84,16.32v-1.5a3.54,3.54,0,0,0,.91.42,3.38,3.38,0,0,0,.85.13,2,2,0,0,0,.78-.13.45.45,0,0,0,.29-.42.41.41,0,0,0-.13-.29,1.33,1.33,0,0,0-.33-.21c-.14-.05-.29-.11-.45-.15L149.3,14c-.23-.09-.44-.19-.63-.28a2,2,0,0,1-.46-.34,1.48,1.48,0,0,1-.28-.45,2,2,0,0,1-.09-.63,1.51,1.51,0,0,1,.22-.85,1.67,1.67,0,0,1,.58-.57,2.71,2.71,0,0,1,.84-.31,4.46,4.46,0,0,1,1-.1h2.65V9.19L155,8.66v1.82h1.35v1.37H155v2.42c0,.63.25.94.75.94a1.27,1.27,0,0,0,.6-.17v1.37a2.75,2.75,0,0,1-1.23.22c-1.31,0-2-.68-2-2V11.85h-2.92l-.28,0a.42.42,0,0,0-.19.09.25.25,0,0,0-.07.19.3.3,0,0,0,.1.24.85.85,0,0,0,.28.18,3.17,3.17,0,0,0,.37.15l.42.13a7.13,7.13,0,0,1,.67.28,1.94,1.94,0,0,1,.51.36,1.58,1.58,0,0,1,.33.48,1.9,1.9,0,0,1,.11.66,1.73,1.73,0,0,1-.23.91,1.81,1.81,0,0,1-.62.61,2.66,2.66,0,0,1-.88.35,5,5,0,0,1-1,.11A5.13,5.13,0,0,1,147.84,16.32Z"/><path d="M162.74,14h-3.92c.06.87.61,1.3,1.65,1.3a3.23,3.23,0,0,0,1.74-.46v1.33a4.56,4.56,0,0,1-2.16.45,3,3,0,0,1-2.26-.81,3.06,3.06,0,0,1-.8-2.25,3.23,3.23,0,0,1,.86-2.36,2.91,2.91,0,0,1,2.14-.88,2.63,2.63,0,0,1,2,.78,3,3,0,0,1,.72,2.12ZM161,12.87c0-.86-.35-1.29-1-1.29a1,1,0,0,0-.77.37,1.68,1.68,0,0,0-.4.92Z"/><path d="M173.36,16.48h-1.84V13.06c0-.87-.32-1.31-1-1.31a.9.9,0,0,0-.75.39,1.64,1.64,0,0,0-.28,1v3.36h-1.85V13c0-.84-.32-1.27-1-1.27a.92.92,0,0,0-.76.38,1.65,1.65,0,0,0-.28,1v3.33h-1.85v-6h1.85v.94h0a2.17,2.17,0,0,1,.81-.78,2.11,2.11,0,0,1,1.13-.31,1.73,1.73,0,0,1,1.74,1.12,2.24,2.24,0,0,1,2-1.12c1.3,0,2,.81,2,2.42Z"/><path d="M181,16.63a3.23,3.23,0,0,1-2.36-.84,3.08,3.08,0,0,1-.86-2.29,3.08,3.08,0,0,1,.89-2.33,3.38,3.38,0,0,1,2.41-.84,3.2,3.2,0,0,1,2.35.84,3,3,0,0,1,.84,2.23,3.19,3.19,0,0,1-.87,2.36A3.26,3.26,0,0,1,181,16.63Zm.05-4.88a1.23,1.23,0,0,0-1,.45,2,2,0,0,0-.37,1.28c0,1.15.47,1.73,1.4,1.73s1.33-.59,1.33-1.78S181.94,11.75,181.05,11.75Z"/><path d="M187.35,15.78h0v3.46h-1.85V10.48h1.85v.9h0a2.36,2.36,0,0,1,3.73-.25,3.45,3.45,0,0,1,.64,2.18,3.73,3.73,0,0,1-.74,2.41,2.46,2.46,0,0,1-2,.91A1.86,1.86,0,0,1,187.35,15.78Zm0-2.46v.48a1.54,1.54,0,0,0,.33,1,1.06,1.06,0,0,0,.86.39,1.12,1.12,0,0,0,1-.49,2.4,2.4,0,0,0,.35-1.39c0-1.05-.41-1.58-1.23-1.58a1.18,1.18,0,0,0-.93.43A1.73,1.73,0,0,0,187.3,13.32Z"/><path d="M198.31,14h-3.92c.07.87.62,1.3,1.65,1.3a3.23,3.23,0,0,0,1.74-.46v1.33a4.5,4.5,0,0,1-2.16.45,3,3,0,0,1-2.26-.81,3.06,3.06,0,0,1-.8-2.25,3.19,3.19,0,0,1,.87-2.36,2.91,2.91,0,0,1,2.13-.88,2.62,2.62,0,0,1,2,.78,3,3,0,0,1,.72,2.12Zm-1.72-1.14c0-.86-.35-1.29-1-1.29a1,1,0,0,0-.77.37,1.68,1.68,0,0,0-.4.92Z"/><path d="M203.32,12.15a1.61,1.61,0,0,0-.78-.18,1.14,1.14,0,0,0-.94.44,1.93,1.93,0,0,0-.34,1.21v2.86h-1.85v-6h1.85v1.11h0a1.6,1.6,0,0,1,1.59-1.21,1.12,1.12,0,0,1,.45.07Z"/><path d="M209.18,16.48h-1.76v-.86h0a2,2,0,0,1-1.79,1,1.86,1.86,0,0,1-1.37-.5,1.79,1.79,0,0,1-.5-1.32c0-1.16.69-1.84,2.07-2l1.63-.21c0-.66-.36-1-1.07-1a3.72,3.72,0,0,0-2,.64V10.84a4.67,4.67,0,0,1,1.06-.35,5.12,5.12,0,0,1,1.22-.16,2.27,2.27,0,0,1,2.57,2.56ZM207.44,14v-.4l-1.09.14c-.6.08-.91.35-.91.81a.69.69,0,0,0,.22.52.84.84,0,0,0,.6.2,1.1,1.1,0,0,0,.85-.36A1.29,1.29,0,0,0,207.44,14Z"/><path d="M215.19,16.26a3.57,3.57,0,0,1-1.81.37,3.06,3.06,0,0,1-2.24-.84,2.9,2.9,0,0,1-.86-2.16,3.18,3.18,0,0,1,.92-2.41,3.38,3.38,0,0,1,2.45-.89,3.13,3.13,0,0,1,1.54.29v1.57a2.13,2.13,0,0,0-1.3-.44,1.71,1.71,0,0,0-1.26.47,1.73,1.73,0,0,0-.46,1.28,1.67,1.67,0,0,0,.44,1.25,1.62,1.62,0,0,0,1.22.46,2.51,2.51,0,0,0,1.36-.43Z"/><path d="M222.11,10.48,219.68,17c-.59,1.56-1.47,2.34-2.65,2.34a3.46,3.46,0,0,1-1.11-.15V17.67a1.6,1.6,0,0,0,.8.22,1,1,0,0,0,1-.68l.32-.74-2.44-6h2.05l1.12,3.65a5.13,5.13,0,0,1,.16.8h0a5.52,5.52,0,0,1,.19-.79l1.13-3.66Z"/><path d="M224.71,16.38a3.27,3.27,0,0,1-.65,2.12,2.29,2.29,0,0,1-1.88.8,2.56,2.56,0,0,1-.88-.18V17.67a1.52,1.52,0,0,0,.69.22c.58,0,.87-.46.87-1.37v-6h1.85Zm-.91-6.85a1.06,1.06,0,0,1-.77-.28.88.88,0,0,1-.3-.68.87.87,0,0,1,.3-.68,1.09,1.09,0,0,1,.77-.26,1.11,1.11,0,0,1,.77.26.89.89,0,0,1,.29.68.91.91,0,0,1-.29.69A1.11,1.11,0,0,1,223.8,9.53Z"/><path d="M232.06,16.48h-1.84V13.15c0-.93-.33-1.4-1-1.4a1,1,0,0,0-.79.37,1.4,1.4,0,0,0-.31.94v3.42h-1.85v-6h1.85v.95h0a2.13,2.13,0,0,1,1.93-1.1c1.33,0,2,.83,2,2.48Z"/><path d="M239.24,10.48,236.8,17c-.58,1.56-1.47,2.34-2.64,2.34a3.46,3.46,0,0,1-1.11-.15V17.67a1.58,1.58,0,0,0,.8.22,1,1,0,0,0,1-.68l.31-.74-2.43-6h2.05l1.12,3.65a5.13,5.13,0,0,1,.16.8h0a5.71,5.71,0,0,1,.2-.79l1.13-3.66Z"/><path d="M249.06,16.48h-1.85V13.07q0-1.32-1-1.32a1,1,0,0,0-.8.37,1.45,1.45,0,0,0-.3.94v3.42H243.3V7.6h1.85v3.77h0a2.11,2.11,0,0,1,1.85-1q2,0,2,2.46Z"/><path d="M253.38,16.63a3.23,3.23,0,0,1-2.36-.84,3.08,3.08,0,0,1-.86-2.29,3.08,3.08,0,0,1,.89-2.33,3.38,3.38,0,0,1,2.41-.84,3.2,3.2,0,0,1,2.35.84,3,3,0,0,1,.85,2.23,3.2,3.2,0,0,1-.88,2.36A3.24,3.24,0,0,1,253.38,16.63Zm.05-4.88a1.23,1.23,0,0,0-1,.45,2,2,0,0,0-.37,1.28c0,1.15.47,1.73,1.4,1.73s1.33-.59,1.33-1.78S254.32,11.75,253.43,11.75Z"/><path d="M257.46,16.32v-1.5a3.76,3.76,0,0,0,.92.42,3.32,3.32,0,0,0,.85.13,2,2,0,0,0,.78-.13.44.44,0,0,0,.28-.42.4.4,0,0,0-.12-.29,1.23,1.23,0,0,0-.34-.21,3.76,3.76,0,0,0-.44-.15l-.46-.16c-.24-.09-.44-.19-.63-.28a1.83,1.83,0,0,1-.46-.34,1.48,1.48,0,0,1-.28-.45,2,2,0,0,1-.1-.63,1.6,1.6,0,0,1,.22-.85,1.79,1.79,0,0,1,.59-.57,2.62,2.62,0,0,1,.84-.31,4.46,4.46,0,0,1,1-.1h2.65V9.19l1.84-.53v1.82h1.35v1.37h-1.35v2.42c0,.63.25.94.75.94a1.31,1.31,0,0,0,.6-.17v1.37a2.77,2.77,0,0,1-1.24.22q-1.95,0-1.95-2V11.85h-2.92l-.28,0a.53.53,0,0,0-.2.09.29.29,0,0,0-.07.19.3.3,0,0,0,.11.24.85.85,0,0,0,.28.18,2.59,2.59,0,0,0,.37.15l.42.13a6,6,0,0,1,.66.28,2.18,2.18,0,0,1,.52.36A1.58,1.58,0,0,1,262,14a1.9,1.9,0,0,1,.11.66,1.73,1.73,0,0,1-.23.91,1.9,1.9,0,0,1-.62.61,2.66,2.66,0,0,1-.88.35,5.1,5.1,0,0,1-1,.11A5.19,5.19,0,0,1,257.46,16.32Z"/><path d="M272,16.48h-1.76v-.86h0a2,2,0,0,1-1.79,1,1.86,1.86,0,0,1-1.37-.5,1.79,1.79,0,0,1-.5-1.32c0-1.16.69-1.84,2.07-2l1.63-.21c0-.66-.36-1-1.07-1a3.67,3.67,0,0,0-2,.64V10.84a4.67,4.67,0,0,1,1.06-.35,5.12,5.12,0,0,1,1.22-.16A2.27,2.27,0,0,1,272,12.89ZM270.23,14v-.4l-1.09.14c-.61.08-.91.35-.91.81a.69.69,0,0,0,.22.52.84.84,0,0,0,.6.2,1.1,1.1,0,0,0,.85-.36A1.29,1.29,0,0,0,270.23,14Z"/><path d="M133.61,43.37V41.49a3.68,3.68,0,0,0,1.11.65,3.63,3.63,0,0,0,1.21.21,2.9,2.9,0,0,0,.62-.06,1.67,1.67,0,0,0,.44-.18.87.87,0,0,0,.27-.27.69.69,0,0,0,.09-.34.77.77,0,0,0-.14-.44,1.52,1.52,0,0,0-.39-.36,3.74,3.74,0,0,0-.57-.31l-.72-.31a3.66,3.66,0,0,1-1.47-1,2.18,2.18,0,0,1-.48-1.42,2.22,2.22,0,0,1,.26-1.13,2.16,2.16,0,0,1,.72-.78,3.33,3.33,0,0,1,1.05-.45,5.72,5.72,0,0,1,1.26-.14,8.06,8.06,0,0,1,1.17.08,4.22,4.22,0,0,1,.93.24v1.75a2.87,2.87,0,0,0-.46-.25,2.82,2.82,0,0,0-.51-.19c-.18-.05-.35-.08-.52-.11l-.5,0a2.74,2.74,0,0,0-.59.06,1.62,1.62,0,0,0-.44.17.81.81,0,0,0-.28.27.67.67,0,0,0,0,.72,1.08,1.08,0,0,0,.32.32,2.76,2.76,0,0,0,.49.29c.2.1.42.2.67.3a7.55,7.55,0,0,1,.9.45,3.49,3.49,0,0,1,.69.53,2.08,2.08,0,0,1,.44.69,2.4,2.4,0,0,1,.15.89,2.37,2.37,0,0,1-.27,1.18,2,2,0,0,1-.72.77,3.15,3.15,0,0,1-1.06.43,5.91,5.91,0,0,1-1.28.13,7,7,0,0,1-1.32-.12A4,4,0,0,1,133.61,43.37Z"/><path d="M145.93,41.22H142c.06.87.61,1.31,1.65,1.31a3.24,3.24,0,0,0,1.74-.47v1.33a4.57,4.57,0,0,1-2.17.45,2.79,2.79,0,0,1-3.05-3.05,3.2,3.2,0,0,1,.86-2.37,2.9,2.9,0,0,1,2.14-.87,2.66,2.66,0,0,1,2,.77,3.05,3.05,0,0,1,.71,2.12Zm-1.71-1.14q0-1.29-1.05-1.29a1,1,0,0,0-.77.37,1.71,1.71,0,0,0-.39.92Z"/><path d="M151,39.36a1.61,1.61,0,0,0-.78-.18,1.12,1.12,0,0,0-.94.44,1.93,1.93,0,0,0-.34,1.21v2.86H147v-6h1.86v1.12h0a1.59,1.59,0,0,1,1.58-1.22,1.14,1.14,0,0,1,.46.07Z"/><path d="M160.91,37.69l-1.73,6h-1.94l-.89-3.51a3.68,3.68,0,0,1-.1-.77h0a5,5,0,0,1-.12.74l-.95,3.54h-1.92l-1.7-6h1.89l.83,3.92a4.8,4.8,0,0,1,.09.66h0a3.84,3.84,0,0,1,.11-.69l1-3.89h1.76l.93,3.92a6.6,6.6,0,0,1,.08.68h0c0-.23.05-.46.09-.68l.78-3.92Z"/><path d="M167.12,41.22h-3.91c.06.87.61,1.31,1.64,1.31a3.24,3.24,0,0,0,1.74-.47v1.33a4.5,4.5,0,0,1-2.16.45,2.81,2.81,0,0,1-3.06-3.05,3.2,3.2,0,0,1,.87-2.37,2.9,2.9,0,0,1,2.13-.87,2.65,2.65,0,0,1,2,.77,3,3,0,0,1,.72,2.12Zm-1.72-1.14c0-.86-.34-1.29-1-1.29a1,1,0,0,0-.77.37,1.72,1.72,0,0,0-.4.92Z"/><path d="M172.14,39.36a1.66,1.66,0,0,0-.78-.18,1.14,1.14,0,0,0-1,.44,2,2,0,0,0-.34,1.21v2.86h-1.85v-6h1.85v1.12h0a1.59,1.59,0,0,1,1.58-1.22,1.17,1.17,0,0,1,.46.07Z"/><path d="M178.18,43h0v3.46h-1.85V37.69h1.85v.9h0a2.19,2.19,0,0,1,1.93-1,2.14,2.14,0,0,1,1.8.8,3.34,3.34,0,0,1,.64,2.17,3.73,3.73,0,0,1-.74,2.41,2.41,2.41,0,0,1-2,.91A1.86,1.86,0,0,1,178.18,43Zm-.05-2.46V41a1.53,1.53,0,0,0,.33,1,1.06,1.06,0,0,0,.86.39,1.12,1.12,0,0,0,1-.49,2.39,2.39,0,0,0,.35-1.38q0-1.59-1.23-1.59a1.18,1.18,0,0,0-.93.43A1.73,1.73,0,0,0,178.13,40.53Z"/><path d="M185.6,43.69h-1.85V34.81h1.85Z"/><path d="M192.15,43.69H190.4v-.86h0a2,2,0,0,1-1.79,1,1.86,1.86,0,0,1-1.37-.5,1.76,1.76,0,0,1-.51-1.32q0-1.74,2.07-2l1.63-.22c0-.66-.35-1-1.06-1a3.65,3.65,0,0,0-2,.63V38.05a4.57,4.57,0,0,1,1.05-.35,5.71,5.71,0,0,1,1.23-.15,2.26,2.26,0,0,1,2.56,2.56Zm-1.74-2.44v-.4l-1.09.14c-.6.08-.9.35-.9.82a.64.64,0,0,0,.22.51.82.82,0,0,0,.59.21,1.1,1.1,0,0,0,.85-.36A1.31,1.31,0,0,0,190.41,41.25Z"/><path d="M197.24,43.62a2.62,2.62,0,0,1-1.23.22,1.76,1.76,0,0,1-2-2V39.06h-1V37.69h1V36.4l1.85-.53v1.82h1.34v1.37H195.9v2.42c0,.63.24.94.74.94a1.24,1.24,0,0,0,.6-.17Z"/><path d="M202.2,36.23a1.76,1.76,0,0,0-.68-.14q-.9,0-.9,1v.64H202v1.37h-1.38v4.63h-1.84V39.06h-1V37.69h1V37a2.12,2.12,0,0,1,.67-1.65,2.52,2.52,0,0,1,1.81-.63,3.11,3.11,0,0,1,.94.12Z"/><path d="M205.75,43.84a3.23,3.23,0,0,1-2.36-.84,3,3,0,0,1-.86-2.28,3.05,3.05,0,0,1,.89-2.33,3.37,3.37,0,0,1,2.41-.84,3.18,3.18,0,0,1,2.34.84,3,3,0,0,1,.85,2.22,3.18,3.18,0,0,1-.87,2.36A3.27,3.27,0,0,1,205.75,43.84Zm0-4.88a1.26,1.26,0,0,0-1,.45,2,2,0,0,0-.36,1.28c0,1.15.47,1.73,1.39,1.73s1.33-.59,1.33-1.77S206.69,39,205.79,39Z"/><path d="M214.14,39.36a1.66,1.66,0,0,0-.78-.18,1.15,1.15,0,0,0-1,.44,2,2,0,0,0-.34,1.21v2.86h-1.85v-6h1.85v1.12h0a1.59,1.59,0,0,1,1.58-1.22,1.14,1.14,0,0,1,.46.07Z"/><path d="M224.56,43.69h-1.85V40.27c0-.87-.32-1.31-1-1.31a.87.87,0,0,0-.74.4,1.6,1.6,0,0,0-.29,1v3.36h-1.85V40.23c0-.84-.31-1.27-.94-1.27a.91.91,0,0,0-.76.38,1.65,1.65,0,0,0-.29,1v3.33H215v-6h1.85v.94h0a2.22,2.22,0,0,1,.8-.78,2.26,2.26,0,0,1,1.14-.3,1.72,1.72,0,0,1,1.74,1.11,2.21,2.21,0,0,1,2-1.11c1.31,0,2,.8,2,2.41Z"/><path d="M231.74,37.69l-2.44,6.48c-.59,1.56-1.47,2.34-2.65,2.34a3.46,3.46,0,0,1-1.11-.15V44.88a1.54,1.54,0,0,0,.81.22,1,1,0,0,0,1-.68l.32-.74-2.44-6h2.05l1.12,3.65a5,5,0,0,1,.17.81h0a6.91,6.91,0,0,1,.19-.8l1.13-3.66Z"/><path d="M236,43.69v-8.4h3c3,0,4.48,1.36,4.48,4.1a4.16,4.16,0,0,1-1.22,3.13A4.52,4.52,0,0,1,239,43.69Zm1.9-6.86v5.33h.93a2.55,2.55,0,0,0,1.94-.74,2.82,2.82,0,0,0,.7-2,2.56,2.56,0,0,0-.7-1.89,2.64,2.64,0,0,0-2-.69Z"/><path d="M247.5,43.84a3.23,3.23,0,0,1-2.36-.84,3.47,3.47,0,0,1,0-4.61,3.38,3.38,0,0,1,2.41-.84,3.2,3.2,0,0,1,2.35.84,3,3,0,0,1,.85,2.22A3.18,3.18,0,0,1,249.9,43,3.24,3.24,0,0,1,247.5,43.84Zm.05-4.88a1.23,1.23,0,0,0-1,.45,2,2,0,0,0-.37,1.28c0,1.15.47,1.73,1.4,1.73s1.33-.59,1.33-1.77S248.44,39,247.55,39Z"/><path d="M256.52,43.48a3.66,3.66,0,0,1-1.81.36,3.06,3.06,0,0,1-2.24-.84,2.89,2.89,0,0,1-.85-2.16,3.16,3.16,0,0,1,.92-2.41,3.36,3.36,0,0,1,2.45-.88,3.07,3.07,0,0,1,1.53.28V39.4a2.08,2.08,0,0,0-1.29-.44,1.71,1.71,0,0,0-1.26.47,1.75,1.75,0,0,0-.47,1.29A1.71,1.71,0,0,0,254,42a1.62,1.62,0,0,0,1.22.45,2.42,2.42,0,0,0,1.35-.43Z"/><path d="M263.75,43.69h-2.22l-1.92-3h0v3h-1.85V34.81h1.85v5.65h0l1.79-2.77h2.2l-2.15,2.82Z"/><path d="M269.67,41.22h-3.92c.06.87.61,1.31,1.65,1.31a3.24,3.24,0,0,0,1.74-.47v1.33a4.56,4.56,0,0,1-2.16.45,2.79,2.79,0,0,1-3.06-3.05,3.2,3.2,0,0,1,.87-2.37,2.87,2.87,0,0,1,2.13-.87,2.66,2.66,0,0,1,2,.77,3,3,0,0,1,.72,2.12ZM268,40.08c0-.86-.35-1.29-1-1.29a1,1,0,0,0-.77.37,1.72,1.72,0,0,0-.4.92Z"/><path d="M274.68,39.36a1.61,1.61,0,0,0-.78-.18,1.14,1.14,0,0,0-.94.44,1.93,1.93,0,0,0-.34,1.21v2.86h-1.85v-6h1.85v1.12h0a1.6,1.6,0,0,1,1.58-1.22,1.14,1.14,0,0,1,.46.07Z"/><path d="M60.21,104.72q0,3.54-3.2,3.54c-2,0-3-1.13-3-3.4V99.72h1v5.07c0,1.72.73,2.59,2.18,2.59s2.1-.84,2.1-2.5V99.72h1Z"/><path d="M63.16,107.25h0v.87h-1V99.24h1v3.93h0A2.27,2.27,0,0,1,65.23,102a2.21,2.21,0,0,1,1.81.8,3.32,3.32,0,0,1,.66,2.16,3.69,3.69,0,0,1-.74,2.41,2.42,2.42,0,0,1-2,.91A2,2,0,0,1,63.16,107.25Zm0-2.42v.84a1.77,1.77,0,0,0,.48,1.26,1.59,1.59,0,0,0,1.23.52,1.6,1.6,0,0,0,1.37-.67,3,3,0,0,0,.49-1.85,2.39,2.39,0,0,0-.46-1.57,1.54,1.54,0,0,0-1.26-.57,1.69,1.69,0,0,0-1.34.58A2.15,2.15,0,0,0,63.14,104.83Z"/><path d="M74.08,108.12h-1v-1h0a2,2,0,0,1-1.85,1.09c-1.43,0-2.15-.85-2.15-2.55v-3.59h1v3.43c0,1.27.48,1.9,1.45,1.9a1.47,1.47,0,0,0,1.16-.52,2,2,0,0,0,.45-1.35v-3.46h1Z"/><path d="M81,108.12H80V104.7c0-1.28-.46-1.91-1.39-1.91a1.54,1.54,0,0,0-1.2.54A2,2,0,0,0,77,104.7v3.42H76v-6h1v1h0A2.16,2.16,0,0,1,79,102a1.85,1.85,0,0,1,1.51.63,2.84,2.84,0,0,1,.52,1.84Z"/><path d="M85.6,108.06a1.82,1.82,0,0,1-.9.19c-1,0-1.58-.59-1.58-1.76v-3.55h-1v-.82h1v-1.47l1-.31v1.78H85.6v.82H84.08v3.38a1.37,1.37,0,0,0,.21.86.83.83,0,0,0,.68.26,1.05,1.05,0,0,0,.63-.2Z"/><path d="M91.73,108.12h-1v-1h0a2,2,0,0,1-1.86,1.09c-1.43,0-2.14-.85-2.14-2.55v-3.59h1v3.43c0,1.27.48,1.9,1.45,1.9a1.47,1.47,0,0,0,1.16-.52,2,2,0,0,0,.45-1.35v-3.46h1Z"/><path d="M101.45,108.12H97.09v-8.4h1v7.51h3.38Z"/><path d="M103.1,100.6a.61.61,0,0,1-.62-.62.61.61,0,0,1,.18-.45.6.6,0,0,1,.44-.18.64.64,0,0,1,.45.18.61.61,0,0,1,.18.45.58.58,0,0,1-.18.43A.61.61,0,0,1,103.1,100.6Zm.47,7.52h-1v-6h1Z"/><path d="M110.49,108.12h-1V104.7c0-1.28-.46-1.91-1.39-1.91a1.54,1.54,0,0,0-1.2.54,2,2,0,0,0-.47,1.37v3.42h-1v-6h1v1h0a2.16,2.16,0,0,1,2-1.14,1.85,1.85,0,0,1,1.51.63,2.84,2.84,0,0,1,.52,1.84Z"/><path d="M117.15,108.12h-1v-1h0a2,2,0,0,1-1.85,1.09c-1.43,0-2.15-.85-2.15-2.55v-3.59h1v3.43c0,1.27.48,1.9,1.45,1.9a1.46,1.46,0,0,0,1.16-.52,2,2,0,0,0,.45-1.35v-3.46h1Z"/><path d="M123.48,102.12l-2,3,2,3h-1.12l-1.18-2-.26-.45h0l-.28.45-1.2,2h-1.11l2-2.94-2-3.06h1.12l1.16,2c.09.15.17.31.25.47h0l1.5-2.52Z"/><path d="M57.59,163.78A3.76,3.76,0,0,1,57,166.1a2,2,0,0,1-1.69.83,2.07,2.07,0,0,1-.81-.14v-1a1.31,1.31,0,0,0,.82.23c.89,0,1.33-.75,1.33-2.25v-5.41h1Z"/><path d="M63.89,166.79h-1v-.94h0a2,2,0,0,1-1.85,1.08,2,2,0,0,1-1.4-.48,1.62,1.62,0,0,1-.51-1.26q0-1.68,2-1.95l1.8-.26c0-1-.41-1.52-1.23-1.52a3,3,0,0,0-2,.73v-1a3.68,3.68,0,0,1,2-.56c1.41,0,2.11.74,2.11,2.23Zm-1-3-1.45.2a2.25,2.25,0,0,0-1,.33,1,1,0,0,0-.34.84.9.9,0,0,0,.31.72,1.2,1.2,0,0,0,.84.28,1.56,1.56,0,0,0,1.18-.5,1.8,1.8,0,0,0,.46-1.27Zm.68,3c-.59.55-.88,1-.88,1.3s.13.41.4.41a.71.71,0,0,0,.32-.07v.62a1,1,0,0,1-.48.08,1.08,1.08,0,0,1-.71-.23.82.82,0,0,1-.27-.65,2,2,0,0,1,.92-1.46Z"/><path d="M70.82,166.79h-1v-1h0a2.42,2.42,0,0,1-3.87.35,3.32,3.32,0,0,1-.68-2.19,3.62,3.62,0,0,1,.75-2.39,2.5,2.5,0,0,1,2-.89,1.91,1.91,0,0,1,1.8,1h0V157.9h1Zm-1-2.72v-.88a1.71,1.71,0,0,0-.48-1.23,1.58,1.58,0,0,0-1.22-.5,1.66,1.66,0,0,0-1.38.64,2.85,2.85,0,0,0-.5,1.78,2.56,2.56,0,0,0,.48,1.64,1.59,1.59,0,0,0,1.3.6,1.63,1.63,0,0,0,1.3-.58A2.15,2.15,0,0,0,69.86,164.07Z"/><path d="M75.9,161.76a1.18,1.18,0,0,0-.73-.19,1.23,1.23,0,0,0-1,.58,2.7,2.7,0,0,0-.41,1.58v3.06h-1v-6h1V162h0a2.09,2.09,0,0,1,.63-1,1.42,1.42,0,0,1,.94-.36,1.71,1.71,0,0,1,.58.08Z"/><path d="M79.45,166.93a2.76,2.76,0,0,1-2.12-.84,3.12,3.12,0,0,1-.8-2.23,3.23,3.23,0,0,1,.83-2.36,3,3,0,0,1,2.23-.85,2.72,2.72,0,0,1,2.1.82,3.29,3.29,0,0,1,.75,2.29,3.21,3.21,0,0,1-.81,2.3A2.84,2.84,0,0,1,79.45,166.93Zm.07-5.47a1.82,1.82,0,0,0-1.46.62,2.59,2.59,0,0,0-.54,1.74,2.46,2.46,0,0,0,.54,1.68,1.85,1.85,0,0,0,1.46.62,1.75,1.75,0,0,0,1.43-.6,2.61,2.61,0,0,0,.5-1.72,2.65,2.65,0,0,0-.5-1.74A1.75,1.75,0,0,0,79.52,161.46Z"/><path d="M91.44,161.06,87.89,166h3.52v.82H86.48v-.3L90,161.61H86.81v-.82h4.63Z"/><path d="M101,166.79h-1v-3.46c0-1.25-.46-1.87-1.39-1.87a1.53,1.53,0,0,0-1.19.54,2,2,0,0,0-.48,1.39v3.4H96V157.9h1v3.88h0a2.18,2.18,0,0,1,2-1.13c1.35,0,2,.81,2,2.44Z"/><path d="M105.27,166.93a2.79,2.79,0,0,1-2.12-.84,3.12,3.12,0,0,1-.8-2.23,3.23,3.23,0,0,1,.83-2.36,3,3,0,0,1,2.23-.85,2.69,2.69,0,0,1,2.1.82,3.29,3.29,0,0,1,.75,2.29,3.21,3.21,0,0,1-.81,2.3A2.84,2.84,0,0,1,105.27,166.93Zm.07-5.47a1.85,1.85,0,0,0-1.46.62,2.59,2.59,0,0,0-.54,1.74,2.46,2.46,0,0,0,.54,1.68,1.87,1.87,0,0,0,1.46.62,1.75,1.75,0,0,0,1.43-.6,2.61,2.61,0,0,0,.51-1.72,2.65,2.65,0,0,0-.51-1.74A1.75,1.75,0,0,0,105.34,161.46Z"/><path d="M116.74,166.73a1.94,1.94,0,0,1-.9.19c-1,0-1.57-.59-1.57-1.76v-3.55h-2.66a2.33,2.33,0,0,0-.48,0,1.06,1.06,0,0,0-.38.12.61.61,0,0,0-.24.21.63.63,0,0,0-.08.32.87.87,0,0,0,.08.39.83.83,0,0,0,.25.28,2.11,2.11,0,0,0,.4.23l.53.21a6.17,6.17,0,0,1,.72.32,2.12,2.12,0,0,1,.54.36,1.32,1.32,0,0,1,.34.47,1.49,1.49,0,0,1,.12.62,1.42,1.42,0,0,1-.2.78,1.67,1.67,0,0,1-.52.54,2.49,2.49,0,0,1-.76.32,3.74,3.74,0,0,1-.89.11,3.39,3.39,0,0,1-1.61-.36v-1a2.82,2.82,0,0,0,1.73.58c.84,0,1.27-.28,1.27-.84a.72.72,0,0,0-.11-.4.93.93,0,0,0-.3-.29,1.94,1.94,0,0,0-.43-.24,5.29,5.29,0,0,0-.53-.22c-.27-.11-.5-.21-.71-.32a2.16,2.16,0,0,1-.5-.37,1.19,1.19,0,0,1-.3-.46,1.57,1.57,0,0,1-.11-.6,1.37,1.37,0,0,1,.18-.72,1.6,1.6,0,0,1,.47-.5,2,2,0,0,1,.66-.28,3.12,3.12,0,0,1,.74-.09h2.78v-1.47l1-.31v1.78h1.51v.82h-1.51V165a1.45,1.45,0,0,0,.2.86.84.84,0,0,0,.68.26,1,1,0,0,0,.63-.2Z"/><path d="M122.32,166.79h-1v-.94h0a2,2,0,0,1-1.84,1.08,2,2,0,0,1-1.41-.48,1.65,1.65,0,0,1-.5-1.26q0-1.68,2-1.95l1.8-.26c0-1-.42-1.52-1.24-1.52a3,3,0,0,0-2,.73v-1a3.68,3.68,0,0,1,2-.56c1.41,0,2.12.74,2.12,2.23Zm-1-3-1.45.2a2.3,2.3,0,0,0-1,.33,1,1,0,0,0-.34.84.93.93,0,0,0,.31.72,1.2,1.2,0,0,0,.84.28,1.55,1.55,0,0,0,1.18-.5,1.81,1.81,0,0,0,.47-1.27Z"/><path d="M282.91,72.72a3.8,3.8,0,0,1-.63,2.33,2,2,0,0,1-1.69.83,2.07,2.07,0,0,1-.81-.14v-1a1.31,1.31,0,0,0,.82.23c.89,0,1.33-.75,1.33-2.25V67.33h1Z"/><path d="M289.21,75.74h-1V74.8h0a2,2,0,0,1-1.85,1.08,2,2,0,0,1-1.4-.48,1.64,1.64,0,0,1-.51-1.26c0-1.12.66-1.77,2-2l1.8-.25q0-1.53-1.23-1.53a3,3,0,0,0-2,.74v-1a3.68,3.68,0,0,1,2-.57c1.41,0,2.11.75,2.11,2.24Zm-1-3-1.45.2a2.25,2.25,0,0,0-1,.33,1,1,0,0,0-.34.84.92.92,0,0,0,.31.72,1.25,1.25,0,0,0,.84.28,1.56,1.56,0,0,0,1.18-.5,1.8,1.8,0,0,0,.46-1.27Zm.68,3c-.59.55-.88,1-.88,1.3s.13.41.4.41a.71.71,0,0,0,.32-.07V78a1.19,1.19,0,0,1-.48.08,1,1,0,0,1-.71-.24.8.8,0,0,1-.27-.64,2,2,0,0,1,.92-1.46Z"/><path d="M296.14,75.74h-1v-1h0a2.42,2.42,0,0,1-3.87.35,3.32,3.32,0,0,1-.68-2.19,3.6,3.6,0,0,1,.75-2.39,2.48,2.48,0,0,1,2-.9,1.92,1.92,0,0,1,1.8,1h0V66.85h1Zm-1-2.72v-.88a1.7,1.7,0,0,0-.48-1.23,1.59,1.59,0,0,0-1.22-.51,1.67,1.67,0,0,0-1.38.65,2.85,2.85,0,0,0-.5,1.78,2.56,2.56,0,0,0,.48,1.64,1.59,1.59,0,0,0,1.3.6,1.66,1.66,0,0,0,1.3-.58A2.15,2.15,0,0,0,295.18,73Z"/><path d="M301.22,70.71a1.18,1.18,0,0,0-.73-.2,1.25,1.25,0,0,0-1,.58,2.75,2.75,0,0,0-.41,1.59v3.06h-1v-6h1V71h0a2.17,2.17,0,0,1,.63-1,1.46,1.46,0,0,1,.94-.35,1.71,1.71,0,0,1,.58.08Z"/><path d="M304.77,75.88a2.76,2.76,0,0,1-2.12-.84,3.14,3.14,0,0,1-.8-2.23,3.27,3.27,0,0,1,.83-2.37,3,3,0,0,1,2.23-.85,2.69,2.69,0,0,1,2.09.83,3.25,3.25,0,0,1,.76,2.29A3.21,3.21,0,0,1,307,75,2.84,2.84,0,0,1,304.77,75.88Zm.07-5.48a1.8,1.8,0,0,0-1.46.63,2.59,2.59,0,0,0-.54,1.74,2.46,2.46,0,0,0,.54,1.68,1.85,1.85,0,0,0,1.46.62,1.73,1.73,0,0,0,1.43-.61,2.57,2.57,0,0,0,.5-1.71,2.65,2.65,0,0,0-.5-1.74A1.76,1.76,0,0,0,304.84,70.4Z"/><path d="M49.78,60a1.9,1.9,0,0,0-.35-.19A2.75,2.75,0,0,0,49,59.6a4.15,4.15,0,0,0-.48-.11,2.89,2.89,0,0,0-.5,0,2,2,0,0,0-.79.13,1.61,1.61,0,0,0-.51.33,1.35,1.35,0,0,0-.28.45,1.29,1.29,0,0,0-.09.45,1.45,1.45,0,0,0,.31.92,2.12,2.12,0,0,0,.39.41c.16.14.35.29.56.44a7.77,7.77,0,0,1,.65.52,3.39,3.39,0,0,1,.48.54,2,2,0,0,1,.31.57,2.27,2.27,0,0,1,.1.65,2.8,2.8,0,0,1,0,.48,2,2,0,0,1-.15.52,2.21,2.21,0,0,1-.32.52,2,2,0,0,1-.5.45,3.25,3.25,0,0,1-.75.31,4.21,4.21,0,0,1-1,.11,4.63,4.63,0,0,1-.65,0,5.29,5.29,0,0,1-.6-.13,3.52,3.52,0,0,1-.52-.17,3.22,3.22,0,0,1-.41-.19l.17-1a3.5,3.5,0,0,0,.43.26,3.89,3.89,0,0,0,.51.21,4.58,4.58,0,0,0,.56.14,2.71,2.71,0,0,0,.56,0,2.48,2.48,0,0,0,.77-.1,1.58,1.58,0,0,0,.53-.29,1.19,1.19,0,0,0,.3-.44,1.62,1.62,0,0,0,.1-.54,1.22,1.22,0,0,0-.34-.89,2.44,2.44,0,0,0-.43-.41c-.17-.14-.38-.29-.62-.46s-.37-.29-.54-.44a3.18,3.18,0,0,1-.46-.52,2.57,2.57,0,0,1-.31-.62,2.08,2.08,0,0,1-.12-.71,2.31,2.31,0,0,1,.18-.91,2.22,2.22,0,0,1,.53-.76,2.69,2.69,0,0,1,.87-.52,3.7,3.7,0,0,1,1.21-.19,3,3,0,0,1,.52,0l.51.08c.16,0,.32.08.46.13l.39.13Z"/><path d="M51.37,68.1a6.26,6.26,0,0,1-.55.78,3.84,3.84,0,0,1-.57.57,2.32,2.32,0,0,1-.65.36,2.27,2.27,0,0,1-.75.12l-.3,0-.27-.06.18-.85a1,1,0,0,0,.23.08,1.32,1.32,0,0,0,1-.19,2.42,2.42,0,0,0,.61-.68L51,67.08l-1.09-6h1l.7,4.6a2.29,2.29,0,0,1,0,.25,1.34,1.34,0,0,1,0,.21h0l.09-.2a2,2,0,0,1,.14-.25l2.66-4.61h1.06Z"/><path d="M62.65,61.92H61.14l-.67,3.18a3.53,3.53,0,0,0-.08.4,2.47,2.47,0,0,0,0,.34.6.6,0,0,0,.13.43.62.62,0,0,0,.42.13l.19,0,.22-.06.23-.08.21-.07-.19.84a2.48,2.48,0,0,1-.46.15,2.27,2.27,0,0,1-.5.06,1.91,1.91,0,0,1-.57-.08,1,1,0,0,1-.38-.25,1,1,0,0,1-.22-.38,2,2,0,0,1-.06-.51,3,3,0,0,1,0-.39c0-.15.05-.29.08-.41l.69-3.27h-2.3a2.78,2.78,0,0,0-.52,0,1.31,1.31,0,0,0-.41.13,1,1,0,0,0-.28.24.61.61,0,0,0-.1.36.83.83,0,0,0,.06.32.8.8,0,0,0,.16.26,1.64,1.64,0,0,0,.27.24,3.31,3.31,0,0,0,.39.25,5.43,5.43,0,0,1,.56.39,2.36,2.36,0,0,1,.38.4,1.26,1.26,0,0,1,.22.43,1.4,1.4,0,0,1,.08.47,2,2,0,0,1-.13.67,1.56,1.56,0,0,1-.4.57,2,2,0,0,1-.72.4,3.26,3.26,0,0,1-1.06.15,2.62,2.62,0,0,1-.38,0l-.43-.07-.41-.11a2.16,2.16,0,0,1-.34-.16L55,66a2.52,2.52,0,0,0,.29.16l.38.15.42.1a2.09,2.09,0,0,0,.43,0,1.34,1.34,0,0,0,.88-.23.79.79,0,0,0,.29-.65.64.64,0,0,0-.05-.28A.87.87,0,0,0,57.5,65a1.94,1.94,0,0,0-.29-.26l-.46-.3a2.71,2.71,0,0,1-.88-.76,1.47,1.47,0,0,1-.28-.89,1.52,1.52,0,0,1,.14-.67,1.68,1.68,0,0,1,.43-.54,2,2,0,0,1,.7-.35,3,3,0,0,1,1-.13h2.54l.31-1.47.09,0,.19,0,.24-.07.24-.07.18-.06.09,0-.37,1.78h1.51Z"/><path d="M67.8,62.51a1.81,1.81,0,0,1-.21.87,1.75,1.75,0,0,1-.7.67,4.54,4.54,0,0,1-1.28.43,10.89,10.89,0,0,1-2,.15.66.66,0,0,0,0,.14v.12a1.87,1.87,0,0,0,.09.59A1.42,1.42,0,0,0,64,66a1.25,1.25,0,0,0,.47.33,1.85,1.85,0,0,0,.69.12,3,3,0,0,0,.89-.15,4.09,4.09,0,0,0,.92-.44l-.18.94a3.24,3.24,0,0,1-.77.33,3,3,0,0,1-1,.14,2.67,2.67,0,0,1-1.12-.2,2,2,0,0,1-.73-.55,2,2,0,0,1-.4-.79,3.61,3.61,0,0,1-.12-.94,4.31,4.31,0,0,1,.11-1,4.47,4.47,0,0,1,.33-.91,4.16,4.16,0,0,1,.52-.77,3.33,3.33,0,0,1,.66-.59,2.82,2.82,0,0,1,.78-.38,2.72,2.72,0,0,1,.86-.14,2.57,2.57,0,0,1,.82.12,2,2,0,0,1,.59.34,1.36,1.36,0,0,1,.36.5A1.45,1.45,0,0,1,67.8,62.51Zm-1,.05a.66.66,0,0,0-.27-.57,1.14,1.14,0,0,0-.72-.21,1.52,1.52,0,0,0-.69.16,2.12,2.12,0,0,0-.62.42A2.92,2.92,0,0,0,64,63a3.83,3.83,0,0,0-.3.82,11.43,11.43,0,0,0,1.43-.08,3.7,3.7,0,0,0,1-.25,1.31,1.31,0,0,0,.54-.4A.87.87,0,0,0,66.82,62.56Z"/><path d="M77.42,62.62a1.31,1.31,0,0,1,0,.23c0,.1,0,.21,0,.33l-.06.35c0,.12,0,.21-.06.29l-.71,3.29h-1l.73-3.52a1.42,1.42,0,0,0,0-.22c0-.08,0-.16,0-.24l0-.23a1,1,0,0,0,0-.16,1.13,1.13,0,0,0-.2-.71.73.73,0,0,0-.62-.25,1.13,1.13,0,0,0-.46.1,2,2,0,0,0-.46.28,4.2,4.2,0,0,0-.44.41,6,6,0,0,0-.38.5,4.14,4.14,0,0,0-.29.55,2.4,2.4,0,0,0-.19.55l-.62,2.94h-1l.75-3.52a2.25,2.25,0,0,1,0-.22c0-.08,0-.16,0-.24l0-.23a1,1,0,0,0,0-.16,1.13,1.13,0,0,0-.2-.71.75.75,0,0,0-.62-.25,1.17,1.17,0,0,0-.47.1,2.46,2.46,0,0,0-.46.28,2.89,2.89,0,0,0-.44.42,4.4,4.4,0,0,0-.38.5,4.21,4.21,0,0,0-.3.55,2.9,2.9,0,0,0-.17.55L69,67.11H68l.92-4.29c0-.15.06-.31.1-.47s.06-.33.08-.48,0-.3.07-.43,0-.25,0-.33h.94c0,.15,0,.31-.07.47s0,.32-.07.46-.05.33-.08.48h0a5.79,5.79,0,0,1,.45-.62,4,4,0,0,1,.52-.5,2.56,2.56,0,0,1,.58-.32,1.63,1.63,0,0,1,.62-.12,1.75,1.75,0,0,1,.64.11,1.23,1.23,0,0,1,.45.32,1.25,1.25,0,0,1,.27.48,2.59,2.59,0,0,1,.12.64,5.72,5.72,0,0,1,.46-.61,4,4,0,0,1,.53-.49,2.59,2.59,0,0,1,.61-.33,1.91,1.91,0,0,1,.68-.12A1.4,1.4,0,0,1,77,61.4,1.82,1.82,0,0,1,77.42,62.62Z"/><path d="M86.69,63.33a5,5,0,0,1-.23,1.51,3.72,3.72,0,0,1-.65,1.25,3,3,0,0,1-1,.85,2.91,2.91,0,0,1-1.37.31,2.52,2.52,0,0,1-.93-.16,2,2,0,0,1-.7-.47,2.16,2.16,0,0,1-.44-.75,2.76,2.76,0,0,1-.16-1,4.89,4.89,0,0,1,.24-1.55,3.94,3.94,0,0,1,.67-1.25,3.07,3.07,0,0,1,1-.83,2.91,2.91,0,0,1,1.32-.3,2.75,2.75,0,0,1,.93.16,1.9,1.9,0,0,1,.7.48,2.06,2.06,0,0,1,.46.74A3,3,0,0,1,86.69,63.33Zm-1,0a2.31,2.31,0,0,0-.09-.67,1.39,1.39,0,0,0-.26-.5,1.12,1.12,0,0,0-.41-.31,1.33,1.33,0,0,0-.54-.11,1.71,1.71,0,0,0-.93.26,2.37,2.37,0,0,0-.71.7,3.37,3.37,0,0,0-.44,1,4.2,4.2,0,0,0-.15,1.12,2.29,2.29,0,0,0,.09.66,1.47,1.47,0,0,0,.25.5,1.14,1.14,0,0,0,.41.32,1.26,1.26,0,0,0,.55.11,1.69,1.69,0,0,0,.94-.26,2.19,2.19,0,0,0,.7-.69,3.37,3.37,0,0,0,.44-1A4.28,4.28,0,0,0,85.7,63.37Z"/><path d="M92.89,63.2a4.73,4.73,0,0,1-.09.9,4.46,4.46,0,0,1-.29.92,4.84,4.84,0,0,1-.48.86,3.81,3.81,0,0,1-.68.71,3.11,3.11,0,0,1-.9.48,3.17,3.17,0,0,1-1.1.18A4,4,0,0,1,88.08,67l-.6,2.85h-1L88,63c0-.12,0-.27.07-.45a4.52,4.52,0,0,0,.06-.53c0-.18,0-.34,0-.5s0-.28,0-.36h1c0,.06,0,.15,0,.27s0,.23,0,.35,0,.24,0,.36,0,.21,0,.28h0A3.09,3.09,0,0,1,90,61.31,2,2,0,0,1,91.12,61a1.86,1.86,0,0,1,.73.14,1.45,1.45,0,0,1,.56.42,1.83,1.83,0,0,1,.36.71A3.52,3.52,0,0,1,92.89,63.2Zm-1,0a2.68,2.68,0,0,0-.06-.59,1.47,1.47,0,0,0-.18-.46.91.91,0,0,0-.83-.42,1.25,1.25,0,0,0-.57.13,2,2,0,0,0-.5.33,2.8,2.8,0,0,0-.41.49,4.88,4.88,0,0,0-.34.58,5.8,5.8,0,0,0-.4,1.17l-.37,1.74.25.08.31.07.32,0h.31a2,2,0,0,0,1.36-.5,2.51,2.51,0,0,0,.48-.54,3.87,3.87,0,0,0,.35-.67,4.68,4.68,0,0,0,.21-.73A4.86,4.86,0,0,0,91.91,63.25Z"/><path d="M98.66,62.51a1.81,1.81,0,0,1-.21.87,1.75,1.75,0,0,1-.7.67,4.54,4.54,0,0,1-1.28.43,10.89,10.89,0,0,1-2,.15.66.66,0,0,0,0,.14v.12a1.87,1.87,0,0,0,.09.59,1.42,1.42,0,0,0,.27.5,1.21,1.21,0,0,0,.48.33,1.76,1.76,0,0,0,.68.12,3,3,0,0,0,.89-.15,4.09,4.09,0,0,0,.92-.44l-.18.94a3.34,3.34,0,0,1-.76.33,3.14,3.14,0,0,1-1,.14,2.7,2.7,0,0,1-1.12-.2A2,2,0,0,1,94,66.5a2.19,2.19,0,0,1-.4-.79,3.61,3.61,0,0,1-.12-.94,4.9,4.9,0,0,1,.11-1,4.47,4.47,0,0,1,.33-.91,4.16,4.16,0,0,1,.52-.77,3.33,3.33,0,0,1,.66-.59,2.82,2.82,0,0,1,.78-.38,2.77,2.77,0,0,1,.86-.14,2.57,2.57,0,0,1,.82.12,2,2,0,0,1,.59.34,1.36,1.36,0,0,1,.36.5A1.45,1.45,0,0,1,98.66,62.51Zm-1,.05a.66.66,0,0,0-.27-.57,1.14,1.14,0,0,0-.72-.21,1.52,1.52,0,0,0-.69.16,2.12,2.12,0,0,0-.62.42,2.61,2.61,0,0,0-.48.65,3,3,0,0,0-.3.82A11.38,11.38,0,0,0,96,63.75a3.9,3.9,0,0,0,1-.25,1.34,1.34,0,0,0,.53-.4A.87.87,0,0,0,97.68,62.56Z"/><path d="M103.08,62.13h0a1.29,1.29,0,0,0-.31-.14,1,1,0,0,0-.38-.07,1.08,1.08,0,0,0-.65.22,2.42,2.42,0,0,0-.57.58,4.55,4.55,0,0,0-.44.82,5.5,5.5,0,0,0-.3.95l-.56,2.62h-1l.84-4c0-.16.07-.33.11-.51s.07-.36.1-.54,0-.35.07-.52a4.16,4.16,0,0,0,.06-.44h1c0,.11,0,.24,0,.37s0,.26,0,.38,0,.23-.05.33,0,.18,0,.24h0a6.5,6.5,0,0,1,.38-.61,3.11,3.11,0,0,1,.41-.46,1.57,1.57,0,0,1,.45-.29,1.31,1.31,0,0,1,.52-.11,1.84,1.84,0,0,1,.33,0l.29.07Z"/><path d="M107.77,65.19c0,.14-.06.31-.09.5s-.05.37-.08.55,0,.35,0,.5,0,.28,0,.37h-1c0-.08,0-.17,0-.28l0-.34c0-.12,0-.24,0-.35a2,2,0,0,1,0-.29h0c-.12.19-.25.37-.37.54a3,3,0,0,1-.42.45,1.63,1.63,0,0,1-.51.3,1.69,1.69,0,0,1-.66.11,1.71,1.71,0,0,1-.72-.14,1.43,1.43,0,0,1-.56-.42,2,2,0,0,1-.36-.69,3.6,3.6,0,0,1-.12-1,4.48,4.48,0,0,1,.07-.77,4.35,4.35,0,0,1,.68-1.77,3.13,3.13,0,0,1,.69-.77,3.1,3.1,0,0,1,1-.54,3.65,3.65,0,0,1,1.3-.21,6.39,6.39,0,0,1,1,.07c.34,0,.67.1,1,.17Zm-.27-3.29-.48-.08a3.28,3.28,0,0,0-.52,0,2.29,2.29,0,0,0-.9.16,2.59,2.59,0,0,0-.68.42,2.75,2.75,0,0,0-.48.6,3.93,3.93,0,0,0-.31.7,3.75,3.75,0,0,0-.17.7,5,5,0,0,0,0,.63,2.77,2.77,0,0,0,.06.6,1.41,1.41,0,0,0,.18.45.84.84,0,0,0,.33.29,1,1,0,0,0,.46.1,1.26,1.26,0,0,0,.55-.12A2.11,2.11,0,0,0,106,66a2.68,2.68,0,0,0,.4-.48,5.3,5.3,0,0,0,.33-.57,4.6,4.6,0,0,0,.25-.61c.07-.21.12-.41.17-.61Z"/><path d="M113.74,62.3a2.25,2.25,0,0,0-.6-.37,1.92,1.92,0,0,0-.77-.15,1.9,1.9,0,0,0-.73.14,2.08,2.08,0,0,0-.58.38,2.32,2.32,0,0,0-.43.54,3.64,3.64,0,0,0-.3.63,3.89,3.89,0,0,0-.17.65,3.4,3.4,0,0,0-.06.61,1.94,1.94,0,0,0,.37,1.27,1.25,1.25,0,0,0,1,.43,2.15,2.15,0,0,0,.8-.16,4,4,0,0,0,.79-.41l-.21,1a3.84,3.84,0,0,1-.76.32,2.62,2.62,0,0,1-.8.11,2.33,2.33,0,0,1-1-.18,1.87,1.87,0,0,1-.68-.52,2.23,2.23,0,0,1-.41-.78,3.3,3.3,0,0,1-.13-1,4.57,4.57,0,0,1,.1-1,4.14,4.14,0,0,1,.3-.9,4.27,4.27,0,0,1,.48-.79,3,3,0,0,1,.66-.62,3.21,3.21,0,0,1,.83-.41,3.12,3.12,0,0,1,1-.15,2.45,2.45,0,0,1,.48,0,2.26,2.26,0,0,1,.41.09,2.2,2.2,0,0,1,.34.13.82.82,0,0,1,.23.13Z"/><path d="M115.76,68.1a7.52,7.52,0,0,1-.55.78,3.89,3.89,0,0,1-.58.57,2.14,2.14,0,0,1-.64.36,2.27,2.27,0,0,1-.75.12l-.31,0-.26-.06.18-.85a.87.87,0,0,0,.23.08,1.24,1.24,0,0,0,.27,0,1.31,1.31,0,0,0,.73-.22,2.44,2.44,0,0,0,.62-.68l.72-1.12-1.09-6h1l.7,4.6a2.29,2.29,0,0,1,0,.25,1.34,1.34,0,0,1,0,.21h0l.09-.2a2,2,0,0,1,.13-.25L119,61.11H120Z"/><path d="M120.43,66.83a5.11,5.11,0,0,1-1,2.32,2.2,2.2,0,0,1-1.75.78l-.21,0a1.81,1.81,0,0,1-.23,0l-.22-.06-.2-.07.17-.9.16.09.2.09.22.06.2,0a1.26,1.26,0,0,0,1-.52,3.66,3.66,0,0,0,.63-1.58l1.26-5.9h1Zm1.8-7.86a.68.68,0,0,1-.17.45.62.62,0,0,1-.45.19.58.58,0,0,1-.44-.19A.59.59,0,0,1,121,59a.56.56,0,0,1,.2-.44.64.64,0,0,1,.44-.17.62.62,0,0,1,.44.17A.59.59,0,0,1,122.23,59Z"/><path d="M127.82,62.61a1.15,1.15,0,0,1,0,.24c0,.1,0,.21,0,.33l-.06.34-.07.3-.69,3.29h-1l.74-3.52c0-.06,0-.13,0-.22a2,2,0,0,0,0-.24,1,1,0,0,0,0-.23,1.37,1.37,0,0,0,0-.16,1.07,1.07,0,0,0-.22-.7.77.77,0,0,0-.63-.26,1.49,1.49,0,0,0-.77.23,2.74,2.74,0,0,0-.7.58,3.89,3.89,0,0,0-.56.77,3,3,0,0,0-.31.82L123,67.11h-1l.92-4.29c0-.15.07-.31.1-.47l.09-.48c0-.16,0-.3.07-.43s0-.25,0-.33h.94c0,.15,0,.31-.07.47s-.05.32-.07.46,0,.33-.08.48h0a5.22,5.22,0,0,1,.45-.6,3.6,3.6,0,0,1,.54-.5,2.87,2.87,0,0,1,.62-.34,1.91,1.91,0,0,1,.68-.12,1.76,1.76,0,0,1,.68.12,1.2,1.2,0,0,1,.48.34,1.31,1.31,0,0,1,.28.52A2.31,2.31,0,0,1,127.82,62.61Z"/><path d="M130.17,68.1a7.52,7.52,0,0,1-.54.78,4.43,4.43,0,0,1-.58.57,2.12,2.12,0,0,1-1.4.48l-.3,0-.27-.06.19-.85a.79.79,0,0,0,.22.08l.28,0a1.33,1.33,0,0,0,.73-.22,2.28,2.28,0,0,0,.61-.68l.72-1.12-1.09-6h1l.7,4.6c0,.09,0,.17,0,.25a1.34,1.34,0,0,1,0,.21h0l.09-.2a2,2,0,0,1,.14-.25l2.66-4.61h1.06Z"/><path d="M29.24,78.28l2.12,3.23H30.25l-2-3.17h0l-.67,3.17h-1l1.9-8.89h1l-1.16,5.43h0l3-2.54h1.25Z"/><path d="M37.57,77.73a5,5,0,0,1-.23,1.51,3.72,3.72,0,0,1-.65,1.25,3,3,0,0,1-1,.85,2.91,2.91,0,0,1-1.37.31,2.43,2.43,0,0,1-.92-.16,2,2,0,0,1-.71-.47,2.16,2.16,0,0,1-.44-.75,2.76,2.76,0,0,1-.16-1,4.89,4.89,0,0,1,.24-1.55A3.94,3.94,0,0,1,33,76.49a3.07,3.07,0,0,1,1-.83,2.92,2.92,0,0,1,1.33-.3,2.69,2.69,0,0,1,.92.16A1.9,1.9,0,0,1,37,76a2.06,2.06,0,0,1,.46.74A2.78,2.78,0,0,1,37.57,77.73Zm-1,0a2.26,2.26,0,0,0-.09-.67,1.39,1.39,0,0,0-.26-.5,1.12,1.12,0,0,0-.41-.31,1.33,1.33,0,0,0-.54-.11,1.71,1.71,0,0,0-.93.26,2.37,2.37,0,0,0-.71.7,3.37,3.37,0,0,0-.44,1,4.2,4.2,0,0,0-.15,1.12,2.29,2.29,0,0,0,.09.66,1.47,1.47,0,0,0,.25.5,1.14,1.14,0,0,0,.41.32,1.26,1.26,0,0,0,.55.11,1.69,1.69,0,0,0,.94-.26,2.19,2.19,0,0,0,.7-.69,3.37,3.37,0,0,0,.44-1A4.28,4.28,0,0,0,36.58,77.77Z"/><path d="M43.85,77a1.15,1.15,0,0,1,0,.24c0,.1,0,.21,0,.33l-.06.34q0,.18-.06.3L43,81.51H42L42.72,78c0-.06,0-.13.05-.22a2,2,0,0,1,0-.24l0-.23c0-.07,0-.12,0-.16a1,1,0,0,0-.22-.7.77.77,0,0,0-.63-.26,1.49,1.49,0,0,0-.77.23,2.92,2.92,0,0,0-.7.58,3.89,3.89,0,0,0-.56.77,3,3,0,0,0-.31.82L39,81.51h-1L39,77.22l.09-.47q0-.25.09-.48c0-.16,0-.3.07-.44s0-.24,0-.32h.94c0,.15,0,.31-.07.47s0,.32-.07.46,0,.33-.07.48h0a6.7,6.7,0,0,1,.45-.6,3.6,3.6,0,0,1,.54-.5,3.13,3.13,0,0,1,.62-.34,1.91,1.91,0,0,1,.68-.12,1.81,1.81,0,0,1,.69.12,1.17,1.17,0,0,1,.47.34,1.31,1.31,0,0,1,.28.52A2.31,2.31,0,0,1,43.85,77Z"/><path d="M48.21,76.32H46.7L46,79.5a3.65,3.65,0,0,0-.07.4,1.61,1.61,0,0,0,0,.34.65.65,0,0,0,.13.43.62.62,0,0,0,.42.13l.18,0,.23,0,.23-.08.21-.08-.18.84a2.88,2.88,0,0,1-.47.15,2.2,2.2,0,0,1-.5.06,1.79,1.79,0,0,1-.56-.08,1,1,0,0,1-.39-.25A.83.83,0,0,1,45,80.9a1.61,1.61,0,0,1-.07-.51A3,3,0,0,1,45,80c0-.15.05-.29.08-.42l.69-3.26h-1l.19-.81h1L46.22,74,46.4,74l.34-.1.34-.11.17,0-.37,1.78H48.4Z"/><path d="M53.37,76.91a1.81,1.81,0,0,1-.21.87,1.78,1.78,0,0,1-.69.67,4.74,4.74,0,0,1-1.29.43,10.82,10.82,0,0,1-2,.15s0,.09,0,.14v.12a1.87,1.87,0,0,0,.09.59,1.42,1.42,0,0,0,.27.5,1.28,1.28,0,0,0,.48.33,1.78,1.78,0,0,0,.69.12,3,3,0,0,0,.88-.15,4.16,4.16,0,0,0,.93-.44l-.19.94a3.34,3.34,0,0,1-.76.33,3.14,3.14,0,0,1-1,.14,2.88,2.88,0,0,1-1.12-.2,2,2,0,0,1-.73-.55,2.19,2.19,0,0,1-.4-.79,3.61,3.61,0,0,1-.12-.94,4.9,4.9,0,0,1,.11-1,4,4,0,0,1,.34-.91,3.68,3.68,0,0,1,.51-.77,3.33,3.33,0,0,1,.66-.59,2.57,2.57,0,0,1,.78-.38,2.77,2.77,0,0,1,.86-.14,2.57,2.57,0,0,1,.82.12,1.87,1.87,0,0,1,.59.34,1.36,1.36,0,0,1,.36.5A1.45,1.45,0,0,1,53.37,76.91Zm-1,0a.67.67,0,0,0-.28-.57,1.14,1.14,0,0,0-.72-.21,1.52,1.52,0,0,0-.69.16,2.27,2.27,0,0,0-.62.42,2.88,2.88,0,0,0-.48.65,3,3,0,0,0-.3.82,11.26,11.26,0,0,0,1.42-.08,3.9,3.9,0,0,0,1-.25,1.46,1.46,0,0,0,.54-.4A.94.94,0,0,0,52.4,77Z"/><path d="M59.43,77c0,.06,0,.14,0,.24s0,.21,0,.33,0,.23-.07.34,0,.22-.06.3l-.69,3.29h-1L58.29,78a1,1,0,0,0,.05-.22,2,2,0,0,0,0-.24l0-.23a1,1,0,0,0,0-.16,1.06,1.06,0,0,0-.21-.7.78.78,0,0,0-.64-.26,1.49,1.49,0,0,0-.76.23,3,3,0,0,0-.71.58,3.85,3.85,0,0,0-.55.77,3,3,0,0,0-.31.82l-.63,2.93h-1l.92-4.29c0-.15.07-.31.1-.47s.06-.33.08-.48,0-.3.07-.44,0-.24,0-.32h.94c0,.15,0,.31-.07.47s0,.32-.07.46,0,.33-.08.48h0a4.27,4.27,0,0,1,.45-.6,3.6,3.6,0,0,1,.54-.5,3.05,3.05,0,0,1,.61-.34,2,2,0,0,1,.69-.12,1.76,1.76,0,0,1,.68.12,1.27,1.27,0,0,1,.48.34,1.31,1.31,0,0,1,.28.52A2.31,2.31,0,0,1,59.43,77Z"/><path d="M65.36,76.91a1.81,1.81,0,0,1-.21.87,1.75,1.75,0,0,1-.7.67,4.54,4.54,0,0,1-1.28.43,10.89,10.89,0,0,1-2,.15.66.66,0,0,0,0,.14v.12a1.87,1.87,0,0,0,.09.59,1.28,1.28,0,0,0,.27.5,1.25,1.25,0,0,0,.47.33,1.85,1.85,0,0,0,.69.12,3,3,0,0,0,.89-.15,4.09,4.09,0,0,0,.92-.44l-.18.94a3.24,3.24,0,0,1-.77.33,3.08,3.08,0,0,1-1,.14,2.84,2.84,0,0,1-1.12-.2,2,2,0,0,1-.73-.55,2,2,0,0,1-.4-.79,3.62,3.62,0,0,1-.13-.94,4.31,4.31,0,0,1,.12-1,4.47,4.47,0,0,1,.33-.91,3.72,3.72,0,0,1,.52-.77,2.85,2.85,0,0,1,.66-.59,2.57,2.57,0,0,1,.78-.38,2.72,2.72,0,0,1,.86-.14,2.57,2.57,0,0,1,.82.12,2,2,0,0,1,.59.34,1.36,1.36,0,0,1,.36.5A1.45,1.45,0,0,1,65.36,76.91Zm-1,0a.66.66,0,0,0-.27-.57,1.14,1.14,0,0,0-.72-.21,1.59,1.59,0,0,0-.7.16,2.22,2.22,0,0,0-.61.42,2.92,2.92,0,0,0-.49.65,3.83,3.83,0,0,0-.3.82,11.43,11.43,0,0,0,1.43-.08,3.7,3.7,0,0,0,1-.25,1.31,1.31,0,0,0,.54-.4A.87.87,0,0,0,64.38,77Z"/><path d="M69.78,76.53h0a1.2,1.2,0,0,0-.3-.14,1.07,1.07,0,0,0-1,.15,2.42,2.42,0,0,0-.57.58,4,4,0,0,0-.44.82,5.5,5.5,0,0,0-.3,1l-.56,2.62h-1l.84-4c0-.16.07-.33.11-.51l.09-.54c0-.18.06-.35.08-.52s0-.31.06-.44h.94c0,.11,0,.24,0,.37s0,.26,0,.38,0,.23,0,.33,0,.18,0,.24h0a4.93,4.93,0,0,1,.38-.61,2.63,2.63,0,0,1,.41-.46,1.57,1.57,0,0,1,.45-.29,1.27,1.27,0,0,1,.52-.11,1.84,1.84,0,0,1,.33,0l.29.07Z"/><path d="M74.47,79.58q0,.23-.09.51c0,.18-.06.37-.08.55s0,.35,0,.5,0,.28,0,.37h-1c0-.08,0-.18,0-.28l0-.34c0-.12,0-.24,0-.35s0-.21.05-.29h0l-.36.54a3,3,0,0,1-.42.45,1.63,1.63,0,0,1-.51.3,1.69,1.69,0,0,1-.66.11,1.71,1.71,0,0,1-.72-.14,1.43,1.43,0,0,1-.56-.42,1.74,1.74,0,0,1-.36-.69,3.58,3.58,0,0,1-.13-1,5.78,5.78,0,0,1,.07-.77,5.13,5.13,0,0,1,.24-.89,4.31,4.31,0,0,1,.45-.88,3.13,3.13,0,0,1,.69-.77,3,3,0,0,1,1-.54,3.73,3.73,0,0,1,1.3-.21,6.42,6.42,0,0,1,1,.07c.33,0,.66.1,1,.17Zm-.28-3.28a4,4,0,0,0-.48-.08,3.08,3.08,0,0,0-.51,0,2.29,2.29,0,0,0-.9.16,2.44,2.44,0,0,0-.68.42,2.75,2.75,0,0,0-.48.6,4,4,0,0,0-.32.7,4.41,4.41,0,0,0-.16.7,3.62,3.62,0,0,0,0,.63,2.77,2.77,0,0,0,.06.6,1.41,1.41,0,0,0,.18.45.88.88,0,0,0,.32.29,1,1,0,0,0,.47.1,1.3,1.3,0,0,0,.55-.12,1.86,1.86,0,0,0,.47-.32,2.73,2.73,0,0,0,.41-.48,5.3,5.3,0,0,0,.33-.57,6.5,6.5,0,0,0,.25-.61c.06-.21.12-.41.16-.61Z"/><path d="M84.42,77.6a4.77,4.77,0,0,1-.1.9,5.12,5.12,0,0,1-.28.92,4.33,4.33,0,0,1-.49.86,3.52,3.52,0,0,1-.68.71,3.05,3.05,0,0,1-.89.48,3.21,3.21,0,0,1-1.1.18,4,4,0,0,1-.69-.06,3.47,3.47,0,0,1-.58-.15L79,84.29H78l1.46-6.94c0-.12,0-.27.08-.45l.06-.53c0-.18,0-.34,0-.5s0-.28,0-.36h1c0,.06,0,.15,0,.27s0,.23,0,.35,0,.24,0,.36,0,.21,0,.28h0a3.07,3.07,0,0,1,.93-1.06,2,2,0,0,1,1.14-.35,2,2,0,0,1,.74.14,1.53,1.53,0,0,1,.56.42,2,2,0,0,1,.35.71A3.16,3.16,0,0,1,84.42,77.6Zm-1,.05a3.51,3.51,0,0,0-.05-.59,1.27,1.27,0,0,0-.19-.46.9.9,0,0,0-.33-.31,1,1,0,0,0-.49-.11,1.27,1.27,0,0,0-.58.13,1.92,1.92,0,0,0-.49.33,3.37,3.37,0,0,0-.42.49,6.65,6.65,0,0,0-.33.58,5.09,5.09,0,0,0-.25.6,5,5,0,0,0-.16.57l-.36,1.74a1.23,1.23,0,0,0,.25.08l.3.07.32,0H81a2,2,0,0,0,.75-.13,2.12,2.12,0,0,0,.61-.37,2.51,2.51,0,0,0,.48-.54,3.28,3.28,0,0,0,.35-.67,4.68,4.68,0,0,0,.21-.73A3.85,3.85,0,0,0,83.43,77.65Z"/><path d="M90.54,77.73a5,5,0,0,1-.23,1.51,3.72,3.72,0,0,1-.65,1.25,3,3,0,0,1-1,.85,2.91,2.91,0,0,1-1.37.31,2.52,2.52,0,0,1-.93-.16,2,2,0,0,1-.7-.47,2.16,2.16,0,0,1-.44-.75,2.76,2.76,0,0,1-.16-1,4.89,4.89,0,0,1,.24-1.55,3.94,3.94,0,0,1,.67-1.25,3.07,3.07,0,0,1,1-.83,2.91,2.91,0,0,1,1.32-.3,2.75,2.75,0,0,1,.93.16,1.9,1.9,0,0,1,.7.48,2.06,2.06,0,0,1,.46.74A3,3,0,0,1,90.54,77.73Zm-1,0a2.26,2.26,0,0,0-.09-.67,1.39,1.39,0,0,0-.26-.5,1.12,1.12,0,0,0-.41-.31,1.33,1.33,0,0,0-.54-.11,1.71,1.71,0,0,0-.93.26,2.37,2.37,0,0,0-.71.7,3.37,3.37,0,0,0-.44,1A4.21,4.21,0,0,0,86,79.24a2,2,0,0,0,.1.66,1.47,1.47,0,0,0,.25.5,1.07,1.07,0,0,0,.41.32,1.26,1.26,0,0,0,.55.11,1.69,1.69,0,0,0,.94-.26,2.19,2.19,0,0,0,.7-.69,3.37,3.37,0,0,0,.44-1A4.28,4.28,0,0,0,89.55,77.77Z"/><path d="M96,79.66c0,.13,0,.28-.07.45s-.05.35-.07.53,0,.35,0,.5a2.77,2.77,0,0,0,0,.37h-1c0-.07,0-.16,0-.27l0-.35c0-.12,0-.24,0-.35s0-.2.05-.27h0a5.19,5.19,0,0,1-.42.6,2.53,2.53,0,0,1-.44.43,1.88,1.88,0,0,1-.5.27,2.14,2.14,0,0,1-.58.08,1.91,1.91,0,0,1-.74-.14,1.48,1.48,0,0,1-.56-.43,2.25,2.25,0,0,1-.36-.71,3.5,3.5,0,0,1-.12-1,4.73,4.73,0,0,1,.09-.9,4.89,4.89,0,0,1,.28-.92,4.33,4.33,0,0,1,.49-.86A3.57,3.57,0,0,1,92.7,76a3.41,3.41,0,0,1,.93-.48,3.59,3.59,0,0,1,1.17-.18,5.68,5.68,0,0,1,.61,0,4,4,0,0,1,.48.1l.61-2.88h1Zm-.25-3.34a3.41,3.41,0,0,0-.46-.1,3,3,0,0,0-.52,0,2.29,2.29,0,0,0-.9.16,2,2,0,0,0-.68.42,2.8,2.8,0,0,0-.49.6,4.19,4.19,0,0,0-.31.69,3.75,3.75,0,0,0-.17.7,3.52,3.52,0,0,0,0,.62,2.8,2.8,0,0,0,0,.6,1.47,1.47,0,0,0,.18.46.94.94,0,0,0,.33.3,1,1,0,0,0,.48.1,1.3,1.3,0,0,0,.55-.12,1.67,1.67,0,0,0,.47-.33,2.8,2.8,0,0,0,.41-.49,4.75,4.75,0,0,0,.33-.59,5.9,5.9,0,0,0,.25-.63c.06-.21.12-.41.16-.61Z"/><path d="M104.83,76.32h-1.52l-.67,3.18a3.65,3.65,0,0,0-.07.4,2.47,2.47,0,0,0,0,.34.6.6,0,0,0,.13.43.62.62,0,0,0,.42.13l.18,0,.23-.06.23-.08.2-.07-.18.84a2.6,2.6,0,0,1-.47.15,2.18,2.18,0,0,1-.49.06,1.86,1.86,0,0,1-.57-.08.94.94,0,0,1-.38-.25.85.85,0,0,1-.22-.38,1.61,1.61,0,0,1-.07-.51,2,2,0,0,1,0-.39c0-.15,0-.29.07-.42l.69-3.26h-2.3a2.76,2.76,0,0,0-.51.05,1.16,1.16,0,0,0-.41.13,1,1,0,0,0-.28.24.61.61,0,0,0-.11.36.83.83,0,0,0,.06.32,1,1,0,0,0,.16.26,2.32,2.32,0,0,0,.28.24,4.18,4.18,0,0,0,.38.25,4.52,4.52,0,0,1,.56.39,2.09,2.09,0,0,1,.39.4,1.46,1.46,0,0,1,.22.43,1.41,1.41,0,0,1,.07.47,1.74,1.74,0,0,1-.13.67,1.45,1.45,0,0,1-.4.57,1.94,1.94,0,0,1-.71.4,3.35,3.35,0,0,1-1.06.15,2.68,2.68,0,0,1-.39,0l-.42-.07a4,4,0,0,1-.41-.11,1.92,1.92,0,0,1-.35-.16l.2-.91a1.5,1.5,0,0,0,.29.16l.37.15.42.1a2.18,2.18,0,0,0,.44,0,1.38,1.38,0,0,0,.88-.23.79.79,0,0,0,.29-.65.82.82,0,0,0,0-.28.73.73,0,0,0-.16-.26,1.94,1.94,0,0,0-.29-.26q-.18-.14-.45-.3a2.76,2.76,0,0,1-.89-.76,1.47,1.47,0,0,1-.28-.89,1.53,1.53,0,0,1,.15-.67,1.65,1.65,0,0,1,.42-.54,2,2,0,0,1,.7-.35,3.14,3.14,0,0,1,1-.13h2.53l.31-1.47.1,0,.19-.05.23-.07.24-.07.19-.06.09,0-.37,1.78H105Z"/><path d="M109.67,79.58a5.13,5.13,0,0,0-.1.51c0,.18,0,.37-.07.55s0,.35,0,.5a3.15,3.15,0,0,0,0,.37h-1c0-.08,0-.18,0-.28a2,2,0,0,1,0-.34c0-.12,0-.24,0-.35s0-.21,0-.29h0c-.12.19-.24.37-.37.54a2.24,2.24,0,0,1-.42.45,1.68,1.68,0,0,1-1.17.41,1.64,1.64,0,0,1-.71-.14,1.36,1.36,0,0,1-.56-.42,1.74,1.74,0,0,1-.36-.69,3.23,3.23,0,0,1-.13-1,4.48,4.48,0,0,1,.07-.77,5.13,5.13,0,0,1,.24-.89,4.82,4.82,0,0,1,.44-.88,3.6,3.6,0,0,1,.69-.77,3.1,3.1,0,0,1,1-.54,3.69,3.69,0,0,1,1.3-.21,6.61,6.61,0,0,1,1,.07c.33,0,.66.1,1,.17Zm-.28-3.28a4.79,4.79,0,0,0-.48-.08,3.2,3.2,0,0,0-.52,0,2.29,2.29,0,0,0-.9.16,2.38,2.38,0,0,0-.67.42,2.8,2.8,0,0,0-.49.6,3.93,3.93,0,0,0-.31.7,4.46,4.46,0,0,0-.17.7,5,5,0,0,0,0,.63,2.77,2.77,0,0,0,.06.6,1.22,1.22,0,0,0,.19.45.81.81,0,0,0,.32.29,1,1,0,0,0,.46.1,1.26,1.26,0,0,0,.55-.12,2.11,2.11,0,0,0,.48-.32,2.68,2.68,0,0,0,.4-.48,3.25,3.25,0,0,0,.33-.57,4.6,4.6,0,0,0,.25-.61,5.1,5.1,0,0,0,.17-.61Z"/><path d="M116.57,81.51h-.95l-.35-4.26V77a.81.81,0,0,1,0-.16.72.72,0,0,0,0-.13h0a1.21,1.21,0,0,1,0,.14,1.66,1.66,0,0,1-.06.16l-.07.16s0,.1-.07.14l-2.24,4.25h-1l-.53-6h.92l.29,4.49a1.22,1.22,0,0,1,0,.27,2.64,2.64,0,0,1,0,.29h0l.11-.3a2.13,2.13,0,0,1,.12-.29l2.34-4.46H116l.33,4.5a1.4,1.4,0,0,1,0,.29,1.93,1.93,0,0,1,0,.27h.05a.93.93,0,0,1,0-.13.88.88,0,0,0,0-.15.77.77,0,0,1,.07-.16.81.81,0,0,1,.06-.13l2.15-4.49h1Z"/><path d="M124.9,77.73a5,5,0,0,1-.23,1.51,3.91,3.91,0,0,1-.65,1.25,3.13,3.13,0,0,1-1,.85,2.91,2.91,0,0,1-1.37.31,2.52,2.52,0,0,1-.93-.16A2,2,0,0,1,120,81a2.34,2.34,0,0,1-.45-.75,3,3,0,0,1-.15-1,4.89,4.89,0,0,1,.24-1.55,4.14,4.14,0,0,1,.66-1.25,3.21,3.21,0,0,1,1-.83,2.91,2.91,0,0,1,1.32-.3,2.75,2.75,0,0,1,.93.16,1.9,1.9,0,0,1,.7.48,2.06,2.06,0,0,1,.46.74A3,3,0,0,1,124.9,77.73Zm-1,0a2.26,2.26,0,0,0-.09-.67,1.39,1.39,0,0,0-.26-.5,1.12,1.12,0,0,0-.41-.31,1.33,1.33,0,0,0-.54-.11,1.77,1.77,0,0,0-.94.26,2.46,2.46,0,0,0-.7.7,3.37,3.37,0,0,0-.44,1,4.21,4.21,0,0,0-.16,1.12,2.29,2.29,0,0,0,.09.66,1.68,1.68,0,0,0,.26.5,1.07,1.07,0,0,0,.41.32,1.23,1.23,0,0,0,.55.11,1.69,1.69,0,0,0,.94-.26,2.19,2.19,0,0,0,.7-.69,3.37,3.37,0,0,0,.44-1A4.28,4.28,0,0,0,123.91,77.77Z"/><path d="M131,81.51H130l-.35-4.26V77c0-.06,0-.11,0-.16a1.23,1.23,0,0,1,0-.13h0a1,1,0,0,1,0,.14l-.07.16a1.11,1.11,0,0,1-.07.16s-.05.1-.07.14l-2.24,4.25h-1l-.53-6h.93l.28,4.49a2.26,2.26,0,0,1,0,.27l0,.29h0c0-.09.06-.19.1-.3l.12-.29,2.34-4.46h.86l.33,4.5a1.4,1.4,0,0,1,0,.29q0,.15,0,.27h0a.93.93,0,0,1,0-.13l.06-.15.06-.16a.81.81,0,0,1,.06-.13l2.16-4.49h1Z"/><path d="M138.93,76.91a1.66,1.66,0,0,1-.91,1.54,4.54,4.54,0,0,1-1.28.43,10.89,10.89,0,0,1-2,.15.66.66,0,0,0,0,.14v.12a2.21,2.21,0,0,0,.08.59,1.3,1.3,0,0,0,.28.5,1.25,1.25,0,0,0,.47.33,1.78,1.78,0,0,0,.69.12,3.07,3.07,0,0,0,.89-.15,4.09,4.09,0,0,0,.92-.44l-.18.94a3.43,3.43,0,0,1-.77.33,3.14,3.14,0,0,1-1,.14,2.79,2.79,0,0,1-1.11-.2,2,2,0,0,1-.73-.55,2.2,2.2,0,0,1-.41-.79,3.61,3.61,0,0,1-.12-.94,4.31,4.31,0,0,1,.12-1,4.47,4.47,0,0,1,.33-.91,3.68,3.68,0,0,1,.51-.77,3.33,3.33,0,0,1,.66-.59,3,3,0,0,1,1.65-.52,2.51,2.51,0,0,1,.81.12,1.76,1.76,0,0,1,.59.34,1.36,1.36,0,0,1,.36.5A1.31,1.31,0,0,1,138.93,76.91Zm-1,0a.66.66,0,0,0-.27-.57,1.17,1.17,0,0,0-.73-.21,1.52,1.52,0,0,0-.69.16,2.08,2.08,0,0,0-.61.42,2.92,2.92,0,0,0-.49.65,3,3,0,0,0-.3.82,11.55,11.55,0,0,0,1.43-.08,3.81,3.81,0,0,0,1-.25,1.31,1.31,0,0,0,.54-.4A.94.94,0,0,0,138,77Z"/><path d="M143.84,81.07a7.92,7.92,0,0,1-.39,1.3,3.26,3.26,0,0,1-.64,1,2.62,2.62,0,0,1-1,.68,3.7,3.7,0,0,1-1.41.25,3.26,3.26,0,0,1-1-.14,5.07,5.07,0,0,1-.78-.32l.18-.9a4.42,4.42,0,0,0,.79.38,2.6,2.6,0,0,0,.89.15,2.52,2.52,0,0,0,.91-.15,1.69,1.69,0,0,0,.66-.45,2.33,2.33,0,0,0,.46-.73,4.81,4.81,0,0,0,.31-1l.21-.94h0a5.54,5.54,0,0,1-.43.62,2.27,2.27,0,0,1-.45.43,1.79,1.79,0,0,1-.49.26,1.71,1.71,0,0,1-.57.08,1.73,1.73,0,0,1-.73-.14,1.48,1.48,0,0,1-.56-.43,1.78,1.78,0,0,1-.36-.7,3.5,3.5,0,0,1-.13-1,4.46,4.46,0,0,1,.12-1,4,4,0,0,1,.33-.95,3.78,3.78,0,0,1,.53-.83A3.63,3.63,0,0,1,141,76a3.38,3.38,0,0,1,1.9-.59,8,8,0,0,1,1.09.07c.36,0,.7.1,1,.16Zm0-4.77a4,4,0,0,0-.48-.08,3.91,3.91,0,0,0-.61,0,2,2,0,0,0-1,.26,2.48,2.48,0,0,0-.79.69,3.57,3.57,0,0,0-.52,1,4.16,4.16,0,0,0-.18,1.23,3.48,3.48,0,0,0,0,.58,1.54,1.54,0,0,0,.18.47.81.81,0,0,0,.31.3.86.86,0,0,0,.47.11,1.31,1.31,0,0,0,.59-.13,1.92,1.92,0,0,0,.5-.36,3,3,0,0,0,.41-.51,6.55,6.55,0,0,0,.32-.58c.09-.2.16-.39.23-.59a5.19,5.19,0,0,0,.14-.52Z"/><path d="M151,77.73a5,5,0,0,1-.23,1.51,3.91,3.91,0,0,1-.65,1.25,3.13,3.13,0,0,1-1,.85,2.94,2.94,0,0,1-1.37.31,2.52,2.52,0,0,1-.93-.16,2,2,0,0,1-.7-.47,2.18,2.18,0,0,1-.45-.75,3,3,0,0,1-.15-1,5.19,5.19,0,0,1,.23-1.55,4.15,4.15,0,0,1,.67-1.25,3.17,3.17,0,0,1,1-.83,3,3,0,0,1,1.33-.3,2.65,2.65,0,0,1,.92.16,1.94,1.94,0,0,1,.71.48,1.92,1.92,0,0,1,.45.74A2.78,2.78,0,0,1,151,77.73Zm-1,0a2.26,2.26,0,0,0-.09-.67,1.4,1.4,0,0,0-.27-.5,1,1,0,0,0-.41-.31,1.33,1.33,0,0,0-.54-.11,1.76,1.76,0,0,0-.93.26,2.46,2.46,0,0,0-.7.7,3.37,3.37,0,0,0-.44,1,3.84,3.84,0,0,0-.16,1.12,2.29,2.29,0,0,0,.09.66,1.48,1.48,0,0,0,.26.5,1.07,1.07,0,0,0,.41.32,1.23,1.23,0,0,0,.55.11,1.69,1.69,0,0,0,.94-.26,2.3,2.3,0,0,0,.7-.69,3.37,3.37,0,0,0,.44-1A4.28,4.28,0,0,0,150,77.77Z"/></g></svg>